SplineFontDB: 3.0
FontName: Rosario-Regular
FullName: Rosario
FamilyName: Rosario
Weight: Normal
Copyright: Copyright (c) 2011 by Omnibus-Type (www.omnibus-type.com) with Reserved Font Name "Rosario".\n
Version: 001.002
ItalicAngle: 0
UnderlinePosition: -50
UnderlineWidth: 50
Ascent: 800
Descent: 200
LayerCount: 2
Layer: 0 1 "Back"  1
Layer: 1 1 "Fore"  0
NeedsXUIDChange: 1
XUID: [1021 288 713564382 2495506]
FSType: 0
OS2Version: 2
OS2_WeightWidthSlopeOnly: 0
OS2_UseTypoMetrics: 1
CreationTime: 1314731281
ModificationTime: 1314727800
PfmFamily: 33
TTFWeight: 400
TTFWidth: 5
LineGap: 0
VLineGap: 0
Panose: 2 0 5 3 4 0 0 2 0 3
OS2TypoAscent: 977
OS2TypoAOffset: 0
OS2TypoDescent: -235
OS2TypoDOffset: 0
OS2TypoLinegap: 0
OS2WinAscent: 977
OS2WinAOffset: 0
OS2WinDescent: 235
OS2WinDOffset: 0
HheadAscent: 977
HheadAOffset: 0
HheadDescent: -235
HheadDOffset: 0
OS2SubXSize: 700
OS2SubYSize: 650
OS2SubXOff: 0
OS2SubYOff: 140
OS2SupXSize: 700
OS2SupYSize: 650
OS2SupXOff: 0
OS2SupYOff: 477
OS2StrikeYSize: 50
OS2StrikeYPos: 250
OS2Vendor: 'PfEd'
OS2CodePages: 00000001.00000000
OS2UnicodeRanges: 00000001.00000000.00000000.00000000
Lookup: 4 0 1 "'liga' Standard Ligatures in Latin lookup 0"  {"'liga' Standard Ligatures in Latin lookup 0 subtable"  } ['liga' ('latn' <'dflt' > ) ]
Lookup: 258 0 0 "'kern' Horizontal Kerning in Latin lookup 0"  {"'kern' Horizontal Kerning in Latin lookup 0 per glyph data 0"  "'kern' Horizontal Kerning in Latin lookup 0 per glyph data 1"  "'kern' Horizontal Kerning in Latin lookup 0 kerning class 2"  } ['kern' ('latn' <'dflt' > ) ]
MarkAttachClasses: 1
DEI: 91125
KernClass2: 13+ 15 "'kern' Horizontal Kerning in Latin lookup 0 kerning class 2" 
 50 A Agrave Aacute Acircumflex Atilde Adieresis Aring
 15 C Ccedilla Euro
 59 D O Q Eth Ograve Oacute Ocircumflex Otilde Odieresis Oslash
 43 E AE Egrave Eacute Ecircumflex Edieresis OE
 37 U Ugrave Uacute Ucircumflex Udieresis
 3 V W
 18 Y Yacute Ydieresis

StartChar: exclam
Encoding: 33 33 4
Width: 329
GlyphClass: 2
Flags: HMW
HStem: -13 132<147 183> 707 20G<123 205 205 210.5>
VStem: 99 132<35 71 35 71.5> 120 88
LayerCount: 2
Fore
SplineSet
118.5 6.5 m 128,-1,1
 99 26 99 26 99 53.5 c 128,-1,2
 99 81 99 81 118 100 c 128,-1,3
 137 119 137 119 164.5 119 c 128,-1,4
 192 119 192 119 211.5 99.5 c 128,-1,5
 231 80 231 80 231 53 c 128,-1,6
 231 26 231 26 211.5 6.5 c 128,-1,7
 192 -13 192 -13 165 -13 c 128,-1,0
 138 -13 138 -13 118.5 6.5 c 128,-1,1
135 217 m 1,8,-1
 106 713 l 2,9,10
 106 727 106 727 123 727 c 2,11,-1
 205 727 l 2,12,13
 223 727 223 727 223 712 c 2,14,-1
 194 217 l 1,15,-1
 135 217 l 1,8,-1
EndSplineSet
EndChar

StartChar: quotedbl
Encoding: 34 34 5
Width: 367
GlyphClass: 2
Flags: HMW
HStem: 441 21G<242 276> 714 20G<69 152 152 152 215 299 299 299>
VStem: 69 83<556 734> 215 84<556 734 556 734>
LayerCount: 2
Fore
SplineSet
69 556 m 2,0,-1
 69 734 l 1,1,-1
 152 734 l 1,2,-1
 152 556 l 2,3,4
 152 553 152 553 148 538 c 2,5,-1
 139 502 l 2,6,7
 125 446 125 446 125 441 c 1,8,-1
 96 441 l 1,9,10
 96 446 96 446 82 502 c 2,11,-1
 73 538 l 2,12,13
 69 553 69 553 69 556 c 2,0,-1
215 556 m 2,14,-1
 215 734 l 1,15,-1
 299 734 l 1,16,-1
 299 556 l 1,17,-1
 276 462 l 2,18,19
 275 457 275 457 274 452 c 128,-1,20
 273 447 273 447 272 444.5 c 128,-1,21
 271 442 271 442 271 441 c 1,22,-1
 242 441 l 1,23,24
 242 446 242 446 228 502 c 2,25,-1
 219 538 l 2,26,27
 215 553 215 553 215 556 c 2,14,-1
EndSplineSet
EndChar

StartChar: numbersign
Encoding: 35 35 6
Width: 640
GlyphClass: 2
Flags: HMW
HStem: -5 21G<145 215 145 145 327 398 327 327> 236 65<52 178 52 187 52 249 258 360 440 564> 422 66<78 203 78 212 283 386 78 274 465 588> 701 20G<243 316 316 316 426 497 497 497>
LayerCount: 2
Fore
SplineSet
178 236 m 1,0,-1
 52 236 l 1,1,-1
 52 301 l 1,2,-1
 187 301 l 1,3,-1
 203 422 l 1,4,-1
 78 422 l 1,5,-1
 78 488 l 1,6,-1
 212 488 l 1,7,-1
 243 721 l 1,8,-1
 316 721 l 1,9,-1
 283 488 l 1,10,-1
 395 488 l 1,11,-1
 426 721 l 1,12,-1
 497 721 l 1,13,-1
 465 488 l 1,14,-1
 588 488 l 1,15,-1
 588 422 l 1,16,-1
 457 422 l 1,17,-1
 440 301 l 1,18,-1
 564 301 l 1,19,-1
 564 236 l 1,20,-1
 431 236 l 1,21,-1
 398 -5 l 1,22,-1
 327 -5 l 1,23,-1
 360 236 l 1,24,-1
 249 236 l 1,25,-1
 215 -5 l 1,26,-1
 145 -5 l 1,27,-1
 178 236 l 1,0,-1
274 422 m 1,28,-1
 258 301 l 1,29,-1
 369 301 l 1,30,-1
 386 422 l 1,31,-1
 274 422 l 1,28,-1
EndSplineSet
EndChar

StartChar: dollar
Encoding: 36 36 7
Width: 453
GlyphClass: 2
Flags: HMW
HStem: -116 166<191.5 228 155 232> 446 63<240 240 240 275.5> 446 167<250 275.5>
VStem: 76 86<322.5 404 322.5 411> 309 87<93 177>
LayerCount: 2
Fore
SplineSet
67 29 m 1,0,-1
 104 90 l 1,1,2
 160 50 160 50 205 50 c 0,3,4
 250 50 250 50 279.5 66.5 c 128,-1,5
 309 83 309 83 309 117.5 c 0,6,7
 309 152 309 152 285 174.5 c 128,-1,8
 261 197 261 197 226.5 212.5 c 128,-1,9
 192 228 192 228 158 245.5 c 128,-1,10
 124 263 124 263 100 293 c 128,-1,11
 76 323 76 323 76 364 c 0,12,13
 76 430 76 430 123.5 467.5 c 128,-1,14
 171 505 171 505 240 509 c 1,15,-1
 250 613 l 1,16,-1
 322 613 l 1,17,-1
 290 506 l 1,18,19
 347 497 347 497 385 474 c 1,20,-1
 356 410 l 1,21,22
 309 446 309 446 265 446 c 0,23,24
 221 446 221 446 191.5 429.5 c 128,-1,25
 162 413 162 413 162 380.5 c 0,26,27
 162 348 162 348 186 326 c 128,-1,28
 210 304 210 304 244.5 289.5 c 128,-1,29
 279 275 279 275 313.5 258 c 128,-1,30
 348 241 348 241 372 211 c 128,-1,31
 396 181 396 181 396 138 c 0,32,33
 396 69 396 69 351.5 30.5 c 128,-1,34
 307 -8 307 -8 237 -14 c 1,35,-1
 228 -116 l 1,36,-1
 155 -116 l 1,37,-1
 186 -13 l 1,38,39
 130 -7 130 -7 67 29 c 1,0,-1
EndSplineSet
EndChar

StartChar: percent
Encoding: 37 37 8
Width: 863
GlyphClass: 2
Flags: HMW
HStem: -13 21G<224 288 224 224> -5 59<635 699 635 719.5> 324 59<181 245 181 265.5> 657 58<210 243 328 552 328 328>
VStem: 46 75<491 542 491 571.5> 297 76<495 544.5> 500 74<161.5 214 161.5 242.5> 750 77<166 214.5>
LayerCount: 2
Fore
SplineSet
92 383 m 128,-1,1
 46 442 46 442 46 522 c 128,-1,2
 46 602 46 602 88.5 658.5 c 128,-1,3
 131 715 131 715 210 715 c 2,4,-1
 643 715 l 1,5,-1
 288 -13 l 1,6,-1
 224 -13 l 1,7,-1
 552 657 l 1,8,-1
 328 657 l 1,9,10
 373 600 373 600 373 523 c 128,-1,11
 373 446 373 446 329.5 385 c 128,-1,12
 286 324 286 324 212 324 c 128,-1,0
 138 324 138 324 92 383 c 128,-1,1
121 517 m 128,-1,14
 121 470 121 470 145 426.5 c 128,-1,15
 169 383 169 383 213 383 c 0,16,17
 243 383 243 383 263 408 c 0,18,19
 297 450.5 297 450.5 297 509.25 c 128,-1,20
 297 568 297 568 275.5 612.5 c 128,-1,21
 254 657 254 657 211 657 c 128,-1,22
 168 657 168 657 144.5 610.5 c 128,-1,13
 121 564 121 564 121 517 c 128,-1,14
545.5 54 m 128,-1,24
 500 113 500 113 500 193.5 c 128,-1,25
 500 274 500 274 542 329.5 c 128,-1,26
 584 385 584 385 661.5 385 c 128,-1,27
 739 385 739 385 783 327 c 128,-1,28
 827 269 827 269 827 192.5 c 128,-1,29
 827 116 827 116 784 55.5 c 128,-1,30
 741 -5 741 -5 666 -5 c 128,-1,23
 591 -5 591 -5 545.5 54 c 128,-1,24
598 282 m 128,-1,32
 574 236 574 236 574 188.5 c 128,-1,33
 574 141 574 141 598.5 97.5 c 128,-1,34
 623 54 623 54 667 54 c 0,35,36
 697 54 697 54 716.5 79 c 128,-1,37
 736 104 736 104 743 133 c 128,-1,38
 750 162 750 162 750 190 c 128,-1,39
 750 218 750 218 742.5 247.5 c 128,-1,40
 735 277 735 277 715 302.5 c 128,-1,41
 695 328 695 328 665 328 c 0,42,31
 622 328 622 328 598 282 c 128,-1,32
EndSplineSet
EndChar

StartChar: ampersand
Encoding: 38 38 9
Width: 679
GlyphClass: 2
Flags: HMW
HStem: -13 82 0 69<573.5 666 613 666 613 666> 627 57<273.5 315>
VStem: 51 85<154 225 154 232.5> 145 81<531.5 573 531.5 592.5> 361 78<530 576.5>
LayerCount: 2
Fore
SplineSet
51 185 m 0,0,1
 51 301 51 301 203 394 c 1,2,3
 173 436 173 436 159 471 c 128,-1,4
 145 506 145 506 145 551 c 0,5,6
 145 611 145 611 190.5 647.5 c 128,-1,7
 236 684 236 684 295 684 c 128,-1,8
 354 684 354 684 396.5 650.5 c 128,-1,9
 439 617 439 617 439 562 c 128,-1,10
 439 507 439 507 404 466.5 c 128,-1,11
 369 426 369 426 311 387 c 1,12,-1
 462 205 l 1,13,14
 496 273 496 273 505 354 c 1,15,-1
 567 340 l 1,16,17
 554 234 554 234 505 154 c 1,18,19
 517 141 517 141 532.5 122.5 c 128,-1,20
 548 104 548 104 553.5 98.5 c 128,-1,21
 559 93 559 93 570 84.5 c 128,-1,22
 581 76 581 76 592.5 74.5 c 0,23,24
 634.666666667 69 634.666666667 69 666 69 c 1,25,-1
 666 0 l 1,26,-1
 605 0 l 2,27,28
 531 0 531 0 452 83 c 1,29,30
 362 -13 362 -13 251 -13 c 0,31,32
 170 -13 170 -13 110.5 45.5 c 128,-1,33
 51 104 51 104 51 185 c 0,0,1
136 192 m 0,34,35
 136 136 136 136 174 101 c 128,-1,36
 212 66 212 66 274.5 66 c 128,-1,37
 337 66 337 66 409 131 c 1,38,-1
 322 238 l 1,39,-1
 237 345 l 1,40,41
 136 279 136 279 136 192 c 0,34,35
226 553 m 0,42,43
 226 506 226 506 275 437 c 1,44,45
 361 494 361 494 361 557 c 0,46,47
 361 587 361 587 342.5 607 c 128,-1,48
 324 627 324 627 294 627 c 128,-1,49
 264 627 264 627 245 605.5 c 128,-1,50
 226 584 226 584 226 553 c 0,42,43
EndSplineSet
EndChar

StartChar: quotesingle
Encoding: 39 39 10
Width: 226
GlyphClass: 2
Flags: HMW
HStem: 445 21G<98 132> 718 20G<71 155 155 155>
VStem: 71 84<560 738>
LayerCount: 2
Fore
SplineSet
71 560 m 2,0,-1
 71 738 l 1,1,-1
 155 738 l 1,2,-1
 155 560 l 2,3,4
 155 557 155 557 151 542 c 2,5,-1
 132 466 l 2,6,7
 131 461 131 461 130 456 c 128,-1,8
 129 451 129 451 128 448.5 c 128,-1,9
 127 446 127 446 127 445 c 1,10,-1
 98 445 l 1,11,12
 98 450 98 450 84 506 c 2,13,-1
 75 542 l 2,14,15
 71 557 71 557 71 560 c 2,0,-1
EndSplineSet
EndChar

StartChar: parenleft
Encoding: 40 40 11
Width: 306
GlyphClass: 2
Flags: HMW
HStem: -138 21G<218 218> 723 20G<218 218>
VStem: 44 88<219.5 384.5>
LayerCount: 2
Fore
SplineSet
218 -138 m 1,0,1
 44 64 44 64 44 303.5 c 128,-1,2
 44 543 44 543 218 743 c 1,3,-1
 285 733 l 1,4,5
 132 543 132 543 132 302 c 128,-1,6
 132 61 132 61 285 -129 c 1,7,-1
 218 -138 l 1,0,1
EndSplineSet
EndChar

StartChar: parenright
Encoding: 41 41 12
Width: 306
GlyphClass: 2
Flags: HMW
HStem: -138 21G<88 88> 723 20G<88 88>
VStem: 175 87<219.5 384.5 219.5 385.5>
LayerCount: 2
Fore
SplineSet
88 -138 m 1,0,-1
 21 -129 l 1,1,2
 175 62 175 62 175 302 c 128,-1,3
 175 542 175 542 21 733 c 1,4,-1
 88 743 l 1,5,6
 262 543 262 543 262 303.5 c 0,7,8
 262 64 262 64 88 -138 c 1,0,-1
EndSplineSet
EndChar

StartChar: asterisk
Encoding: 42 42 13
Width: 510
GlyphClass: 2
Flags: HMW
HStem: 379 21G<329 329> 711 20G<212 290 290 290>
LayerCount: 2
Fore
SplineSet
208 546 m 1,0,-1
 72 567 l 1,1,-1
 93 643 l 1,2,-1
 221 582 l 1,3,-1
 208 546 l 1,0,-1
178 381 m 1,4,-1
 117 426 l 1,5,-1
 212 530 l 1,6,-1
 246 503 l 1,7,-1
 178 381 l 1,4,-1
232 591 m 1,8,-1
 212 731 l 1,9,-1
 290 731 l 1,10,-1
 273 591 l 1,11,-1
 232 591 l 1,8,-1
329 379 m 1,12,-1
 261 503 l 1,13,-1
 294 526 l 1,14,-1
 392 427 l 1,15,-1
 329 379 l 1,12,-1
300 541 m 1,16,-1
 287 583 l 1,17,-1
 408 647 l 1,18,-1
 437 569 l 1,19,-1
 300 541 l 1,16,-1
EndSplineSet
EndChar

StartChar: plus
Encoding: 43 43 14
Width: 642
GlyphClass: 2
Flags: HMW
HStem: 0 21G<282 352 282 282> 215 68<68 282 68 282 352 567> 477 20G<282 352 352 352>
VStem: 282 70<0 215 0 215 283 497>
LayerCount: 2
Fore
SplineSet
282 215 m 1,0,-1
 68 215 l 1,1,-1
 68 283 l 1,2,-1
 282 283 l 1,3,-1
 282 497 l 1,4,-1
 352 497 l 1,5,-1
 352 283 l 1,6,-1
 567 283 l 1,7,-1
 567 215 l 1,8,-1
 352 215 l 1,9,-1
 352 0 l 1,10,-1
 282 0 l 1,11,-1
 282 215 l 1,0,-1
EndSplineSet
EndChar

StartChar: comma
Encoding: 44 44 15
Width: 235
GlyphClass: 2
Flags: HMW
HStem: -127 21G 104 20G<90.5 132>
VStem: 46 137<51.5 61.5 4.5 81.5> 96 87<-35 61.5>
LayerCount: 2
Fore
SplineSet
71 12 m 1,0,1
 46 37 46 37 46 63.5 c 128,-1,2
 46 90 46 90 64 107 c 128,-1,3
 82 124 82 124 112.5 124 c 128,-1,4
 143 124 143 124 163 99 c 128,-1,5
 183 74 183 74 183 39 c 0,6,7
 183 -50 183 -50 81 -127 c 1,8,9
 63 -111 63 -111 47 -93 c 1,10,11
 80.4 -59.6 80.4 -59.6 88.2 -45.3 c 128,-1,12
 96 -31 96 -31 96 -21.5 c 128,-1,13
 96 -12 96 -12 88 -4 c 2,14,-1
 71 12 l 1,0,1
EndSplineSet
EndChar

StartChar: hyphen
Encoding: 45 45 16
Width: 313
GlyphClass: 2
Flags: HMW
HStem: 224 75<41 272 41 272>
LayerCount: 2
Fore
SplineSet
272 224 m 1,0,-1
 41 224 l 1,1,-1
 41 299 l 1,2,-1
 272 299 l 1,3,-1
 272 224 l 1,0,-1
EndSplineSet
EndChar

StartChar: period
Encoding: 46 46 17
Width: 228
GlyphClass: 2
Flags: HMW
HStem: -10 132<90 126>
VStem: 42 132<38 74 38 74.5>
LayerCount: 2
Fore
SplineSet
61.5 9.5 m 128,-1,1
 42 29 42 29 42 56.5 c 128,-1,2
 42 84 42 84 61 103 c 128,-1,3
 80 122 80 122 107.5 122 c 128,-1,4
 135 122 135 122 154.5 102.5 c 128,-1,5
 174 83 174 83 174 56 c 128,-1,6
 174 29 174 29 154.5 9.5 c 128,-1,7
 135 -10 135 -10 108 -10 c 128,-1,0
 81 -10 81 -10 61.5 9.5 c 128,-1,1
EndSplineSet
EndChar

StartChar: slash
Encoding: 47 47 18
Width: 326
GlyphClass: 2
Flags: HMW
HStem: -9 21G<-5 64 -5 -5> 707 20G<264 331 331 331>
LayerCount: 2
Fore
SplineSet
64 -9 m 1,0,-1
 -5 -9 l 1,1,-1
 264 727 l 1,2,-1
 331 727 l 1,3,-1
 64 -9 l 1,0,-1
EndSplineSet
EndChar

StartChar: zero
Encoding: 48 48 19
Width: 578
GlyphClass: 2
Flags: HMW
HStem: -13 63<230 350.5 230 365> 446 63<230.5 350.5>
VStem: 49 90<196.5 299 196.5 320> 440 91<196.5 299.5>
LayerCount: 2
Fore
SplineSet
114.5 62 m 128,-1,1
 49 137 49 137 49 248.5 c 128,-1,2
 49 360 49 360 114.5 434.5 c 128,-1,3
 180 509 180 509 290 509 c 128,-1,4
 400 509 400 509 465.5 434 c 128,-1,5
 531 359 531 359 531 248 c 128,-1,6
 531 137 531 137 465.5 62 c 128,-1,7
 400 -13 400 -13 290 -13 c 128,-1,0
 180 -13 180 -13 114.5 62 c 128,-1,1
139 248 m 128,-1,9
 139 50 139 50 289.5 50 c 128,-1,10
 440 50 440 50 440 248 c 128,-1,11
 440 446 440 446 289.5 446 c 128,-1,8
 139 446 139 446 139 248 c 128,-1,9
EndSplineSet
EndChar

StartChar: one
Encoding: 49 49 20
Width: 387
GlyphClass: 2
Flags: HMW
HStem: -1 68<47 164 247 360 47 164> 477 20G<197 247 247 247>
VStem: 164 83<67 404 404 404>
LayerCount: 2
Fore
SplineSet
44 367 m 1,0,-1
 26 414 l 1,1,-1
 197 497 l 1,2,-1
 247 497 l 1,3,-1
 247 67 l 1,4,-1
 360 67 l 1,5,-1
 360 -1 l 1,6,-1
 47 -1 l 1,7,-1
 47 67 l 1,8,-1
 164 67 l 1,9,-1
 164 404 l 1,10,-1
 44 367 l 1,0,-1
EndSplineSet
EndChar

StartChar: two
Encoding: 50 50 21
Width: 469
GlyphClass: 2
Flags: HMW
HStem: -1 69<141 425> 446 63<217 260.5>
VStem: 309 95<356.5 394>
LayerCount: 2
Fore
SplineSet
425 -1 m 1,0,-1
 34 -1 l 1,1,-1
 34 52 l 1,2,-1
 266 284 l 2,3,4
 309 327 309 327 309 374 c 0,5,6
 309 404 309 404 289.5 425 c 128,-1,7
 270 446 270 446 240 446 c 0,8,9
 177 446 177 446 98 381 c 1,10,-1
 57 427 l 1,11,12
 93 463 93 463 146.5 486 c 128,-1,13
 200 509 200 509 257.5 509 c 0,14,15
 315 509 315 509 359.5 473.5 c 128,-1,16
 404 438 404 438 404 375 c 0,17,18
 404 292 404 292 297 202 c 1,19,-1
 141 68 l 1,20,-1
 445 68 l 1,21,-1
 425 -1 l 1,0,-1
EndSplineSet
EndChar

StartChar: three
Encoding: 51 51 22
Width: 410
GlyphClass: 2
Flags: HMW
HStem: -196 54<-46 2 -55 37> 447 62<189.5 219.5>
VStem: 255 91<364.5 414> 271 91<2 102.5>
LayerCount: 2
Fore
SplineSet
200 290 m 128,-1,1
 255 342 255 342 255 394.5 c 128,-1,2
 255 447 255 447 204 447 c 0,3,4
 178 447 178 447 145 431.5 c 128,-1,5
 112 416 112 416 90 397 c 1,6,-1
 43 436 l 1,7,8
 97 477 97 477 135 493 c 128,-1,9
 173 509 173 509 228 509 c 128,-1,10
 283 509 283 509 314.5 480.5 c 128,-1,11
 346 452 346 452 346 402.5 c 128,-1,12
 346 353 346 353 305 306.5 c 128,-1,13
 264 260 264 260 212 226 c 1,14,-1
 225 227 l 2,15,16
 232.878787879 227.727272727 232.878787879 227.727272727 240.331496786 227.727272727 c 0,17,18
 294.363636364 227.727272727 294.363636364 227.727272727 328.181818182 186.863636364 c 128,-1,19
 362 146 362 146 362 75.5 c 128,-1,20
 362 5 362 5 322.5 -50.5 c 128,-1,21
 283 -106 283 -106 219.5 -136 c 0,22,23
 92.5 -196 92.5 -196 -46 -196 c 1,24,-1
 -55 -142 l 1,25,26
 43.5384615385 -142 43.5384615385 -142 150.5 -88 c 0,27,28
 202 -62 202 -62 236.5 -20 c 128,-1,29
 271 22 271 22 271 72 c 0,30,31
 271 162 271 162 178 162 c 0,32,33
 142 162 142 162 109 151 c 1,34,-1
 82 207 l 1,35,0
 145 238 145 238 200 290 c 128,-1,1
EndSplineSet
EndChar

StartChar: four
Encoding: 52 52 23
Width: 497
GlyphClass: 2
Flags: HMW
HStem: -185 21G<304 387 304 304> 0 69<104 304 104 304 387 470> 478 20G<289 387 387 387>
VStem: 304 83<-185 0 -185 0 69 399 399 399>
LayerCount: 2
Fore
SplineSet
304 0 m 1,0,-1
 12 0 l 1,1,-1
 12 40 l 1,2,-1
 289 498 l 1,3,-1
 387 498 l 1,4,-1
 387 69 l 1,5,-1
 488 69 l 1,6,-1
 470 0 l 1,7,-1
 387 0 l 1,8,-1
 387 -185 l 1,9,-1
 304 -185 l 1,10,-1
 304 0 l 1,0,-1
304 399 m 1,11,-1
 104 69 l 1,12,-1
 304 69 l 1,13,-1
 304 399 l 1,11,-1
EndSplineSet
EndChar

StartChar: five
Encoding: 53 53 24
Width: 377
GlyphClass: 2
Flags: HMW
HStem: -209 21G<10 10> 412 85<166 343 166 166>
VStem: 215 90<7.5 121>
LayerCount: 2
Fore
SplineSet
10 -209 m 1,0,-1
 -6 -157 l 1,1,2
 215 -88 215 -88 215 74 c 0,3,4
 215 138 215 138 162 194 c 128,-1,5
 109 250 109 250 40 283 c 1,6,-1
 131 497 l 1,7,-1
 367 497 l 1,8,-1
 343 412 l 1,9,-1
 166 412 l 1,10,-1
 131 328 l 1,11,12
 207 290 207 290 256 224.5 c 128,-1,13
 305 159 305 159 305 80 c 0,14,15
 305 -35 305 -35 218 -112 c 128,-1,16
 131 -189 131 -189 10 -209 c 1,0,-1
EndSplineSet
EndChar

StartChar: six
Encoding: 54 54 25
Width: 536
GlyphClass: 2
Flags: HMW
HStem: -13 63<225.5 317 225.5 334.5> 337 68<273.5 314> 712 20G<449 449>
VStem: 49 92<191 232 232 251 191 329> 397 91<163.5 238>
LayerCount: 2
Fore
SplineSet
49 235 m 0,0,1
 49 370 49 370 123 482 c 128,-1,2
 197 594 197 594 320 670 c 0,3,4
 398 718 398 718 449 732 c 1,5,-1
 470 681 l 1,6,7
 356 633 356 633 272 548.5 c 128,-1,8
 188 464 188 464 157 354 c 1,9,10
 219 405 219 405 300.5 405 c 0,11,12
 382 405 382 405 435 345.5 c 128,-1,13
 488 286 488 286 488 197 c 0,14,15
 488 108 488 108 427 47.5 c 128,-1,16
 366 -13 366 -13 269 -13 c 0,17,18
 172 -13 172 -13 110.5 60 c 128,-1,19
 49 133 49 133 49 235 c 0,0,1
141 251 m 2,20,-1
 141 232 l 2,21,22
 141 161 141 161 174 105.5 c 128,-1,23
 207 50 207 50 271 50 c 0,24,25
 335 50 335 50 366 94.5 c 128,-1,26
 397 139 397 139 397 198.5 c 0,27,28
 397 258 397 258 364 297.5 c 128,-1,29
 331 337 331 337 276 337 c 0,30,31
 207 337 207 337 142 270 c 1,32,33
 141 263 141 263 141 251 c 2,20,-1
EndSplineSet
EndChar

StartChar: seven
Encoding: 55 55 26
Width: 425
GlyphClass: 2
Flags: HMW
HStem: -185 21G<38 127 38 38> 422 75<35 308 15 405>
LayerCount: 2
Fore
SplineSet
308 422 m 1,0,-1
 15 422 l 1,1,-1
 35 497 l 1,2,-1
 405 497 l 1,3,-1
 405 455 l 1,4,-1
 127 -185 l 1,5,-1
 38 -185 l 1,6,-1
 308 422 l 1,0,-1
EndSplineSet
EndChar

StartChar: eight
Encoding: 56 56 27
Width: 492
GlyphClass: 2
Flags: HMW
HStem: -11 60<206.5 270 206.5 294> 670 59<219 276>
VStem: 47 82<132 189.5 132 208.5> 71 93<545.5 591 545.5 607.5> 349 69 349 93<132.5 190>
LayerCount: 2
Fore
SplineSet
83.5 278 m 0,0,1
 103 303 103 303 120 319.5 c 128,-1,2
 137 336 137 336 169 361 c 2,3,-1
 185 374 l 1,4,5
 176 384 176 384 146.5 413.5 c 128,-1,6
 117 443 117 443 106 457 c 128,-1,7
 95 471 95 471 83 499.5 c 128,-1,8
 71 528 71 528 71 560 c 0,9,10
 71 630 71 630 123.5 679.5 c 128,-1,11
 176 729 176 729 247.5 729 c 128,-1,12
 319 729 319 729 368.5 685.5 c 128,-1,13
 418 642 418 642 418 567 c 128,-1,14
 418 492 418 492 353 430 c 1,15,-1
 305 383 l 1,16,-1
 351 339 l 2,17,18
 442 252 442 252 442 169.5 c 128,-1,19
 442 87 442 87 384 38 c 128,-1,20
 326 -11 326 -11 243 -11 c 128,-1,21
 160 -11 160 -11 103.5 35.5 c 128,-1,22
 47 82 47 82 47 156.602564103 c 128,-1,23
 47 231.205128205 47 231.205128205 83.5 278 c 0,0,1
129 161 m 0,24,25
 129 117 129 117 160.5 83 c 128,-1,26
 192 49 192 49 239 49 c 128,-1,27
 286 49 286 49 317.5 82 c 128,-1,28
 349 115 349 115 349 168.5 c 128,-1,29
 349 222 349 222 270 293 c 1,30,-1
 234 326 l 1,31,-1
 184 282 l 1,32,33
 129 227 129 227 129 161 c 0,24,25
185.5 639 m 128,-1,35
 164 608 164 608 164 564 c 128,-1,36
 164 520 164 520 226 460 c 1,37,-1
 254 432 l 1,38,39
 338 503 338 503 338 570 c 0,40,41
 338 611 338 611 313.5 640.5 c 128,-1,42
 289 670 289 670 248 670 c 128,-1,34
 207 670 207 670 185.5 639 c 128,-1,35
EndSplineSet
EndChar

StartChar: nine
Encoding: 57 57 28
Width: 536
GlyphClass: 2
Flags: HMW
HStem: -217 21G<82 82> 91 68<225 265.5> 447 62<225 316.5>
VStem: 51 91<258 330.5 258 354> 399 91<245 264 264 306.5>
LayerCount: 2
Fore
SplineSet
105.5 152 m 128,-1,1
 51 213 51 213 51 298.5 c 128,-1,2
 51 384 51 384 114 446.5 c 128,-1,3
 177 509 177 509 274.5 509 c 128,-1,4
 372 509 372 509 431 438.5 c 128,-1,5
 490 368 490 368 490 261 c 0,6,7
 490 126 490 126 415 20 c 128,-1,8
 340 -86 340 -86 213 -159 c 0,9,10
 135 -203 135 -203 82 -217 c 1,11,-1
 61 -161 l 1,12,13
 326 -51 326 -51 382 142 c 1,14,15
 320 91 320 91 240 91 c 128,-1,0
 160 91 160 91 105.5 152 c 128,-1,1
175 400.5 m 128,-1,17
 142 354 142 354 142 296 c 128,-1,18
 142 238 142 238 175 198.5 c 128,-1,19
 208 159 208 159 263 159 c 0,20,21
 332 159 332 159 397 226 c 1,22,23
 399 240 399 240 399 245 c 2,24,-1
 399 264 l 2,25,26
 399 339 399 339 367 393 c 128,-1,27
 335 447 335 447 271.5 447 c 128,-1,16
 208 447 208 447 175 400.5 c 128,-1,17
EndSplineSet
EndChar

StartChar: colon
Encoding: 58 58 29
Width: 331
GlyphClass: 2
Flags: HMW
HStem: -13 132<144 180> 302 132<144 180>
VStem: 96 132<35 71 350 386>
LayerCount: 2
Fore
SplineSet
96 53 m 128,-1,1
 96 80 96 80 115.5 99.5 c 128,-1,2
 135 119 135 119 162 119 c 128,-1,3
 189 119 189 119 208.5 99.5 c 128,-1,4
 228 80 228 80 228 53 c 128,-1,5
 228 26 228 26 208.5 6.5 c 128,-1,6
 189 -13 189 -13 162 -13 c 128,-1,7
 135 -13 135 -13 115.5 6.5 c 128,-1,0
 96 26 96 26 96 53 c 128,-1,1
96 368 m 128,-1,9
 96 395 96 395 115.5 414.5 c 128,-1,10
 135 434 135 434 162 434 c 128,-1,11
 189 434 189 434 208.5 414.5 c 128,-1,12
 228 395 228 395 228 368 c 128,-1,13
 228 341 228 341 208.5 321.5 c 128,-1,14
 189 302 189 302 162 302 c 128,-1,15
 135 302 135 302 115.5 321.5 c 128,-1,8
 96 341 96 341 96 368 c 128,-1,9
EndSplineSet
EndChar

StartChar: semicolon
Encoding: 59 59 30
Width: 334
GlyphClass: 2
Flags: HMW
HStem: -127 21G 124 178<144 177> 302 132<144 180 144 180.5>
VStem: 91 137<51.5 61.5 4.5 81.5> 141 87<-35 61.5>
LayerCount: 2
Fore
SplineSet
116 12 m 1,0,1
 91 37 91 37 91 63.5 c 128,-1,2
 91 90 91 90 109 107 c 128,-1,3
 127 124 127 124 157.5 124 c 128,-1,4
 188 124 188 124 208 99 c 128,-1,5
 228 74 228 74 228 39 c 0,6,7
 228 -50 228 -50 126 -127 c 1,8,9
 108 -111 108 -111 92 -93 c 1,10,11
 125.4 -59.6 125.4 -59.6 133.2 -45.3 c 128,-1,12
 141 -31 141 -31 141 -21.5 c 128,-1,13
 141 -12 141 -12 133 -4 c 2,14,-1
 116 12 l 1,0,1
96 368 m 128,-1,16
 96 395 96 395 115.5 414.5 c 128,-1,17
 135 434 135 434 162 434 c 128,-1,18
 189 434 189 434 208.5 414.5 c 128,-1,19
 228 395 228 395 228 367.5 c 128,-1,20
 228 340 228 340 209 321 c 128,-1,21
 190 302 190 302 162.5 302 c 128,-1,22
 135 302 135 302 115.5 321.5 c 128,-1,15
 96 341 96 341 96 368 c 128,-1,16
EndSplineSet
EndChar

StartChar: less
Encoding: 60 60 31
Width: 630
GlyphClass: 2
Flags: HMW
HStem: -4 21G<564 564> 483 20G<564 564>
LayerCount: 2
Fore
SplineSet
564 -4 m 1,0,-1
 66 214 l 1,1,-1
 66 287 l 1,2,-1
 564 503 l 1,3,-1
 564 426 l 1,4,-1
 159 249 l 1,5,-1
 564 72 l 1,6,-1
 564 -4 l 1,0,-1
EndSplineSet
EndChar

StartChar: equal
Encoding: 61 61 32
Width: 630
GlyphClass: 2
Flags: HMW
HStem: 113 70<68 567 68 567> 306 70<68 567 68 567>
LayerCount: 2
Fore
SplineSet
567 113 m 1,0,-1
 68 113 l 1,1,-1
 68 183 l 1,2,-1
 567 183 l 1,3,-1
 567 113 l 1,0,-1
567 306 m 1,4,-1
 68 306 l 1,5,-1
 68 376 l 1,6,-1
 567 376 l 1,7,-1
 567 306 l 1,4,-1
EndSplineSet
EndChar

StartChar: greater
Encoding: 62 62 33
Width: 630
GlyphClass: 2
Flags: HMW
HStem: -4 21G<66 66> 483 20G<66 66>
LayerCount: 2
Fore
SplineSet
564 214 m 1,0,-1
 66 -4 l 1,1,-1
 66 72 l 1,2,-1
 471 249 l 1,3,-1
 66 426 l 1,4,-1
 66 503 l 1,5,-1
 564 287 l 1,6,-1
 564 214 l 1,0,-1
EndSplineSet
EndChar

StartChar: question
Encoding: 63 63 34
Width: 438
GlyphClass: 2
Flags: HMW
HStem: -13 132<168 204> 662 61<164.5 207.5>
VStem: 120 132<35 71 35 71.5> 157 65<217 340 217 412> 299 88<513 583.5>
LayerCount: 2
Fore
SplineSet
78 634 m 1,0,-1
 51 691 l 1,1,2
 94 723 94 723 179.5 723 c 128,-1,3
 265 723 265 723 326 678.5 c 128,-1,4
 387 634 387 634 387 554 c 0,5,6
 387 494 387 494 346 441.5 c 128,-1,7
 305 389 305 389 246 371 c 0,8,9
 229 365 229 365 225.5 360.5 c 128,-1,10
 222 356 222 356 222 340 c 2,11,-1
 222 217 l 1,12,-1
 157 217 l 1,13,-1
 157 412 l 1,14,15
 214 421 214 421 256.5 457 c 128,-1,16
 299 493 299 493 299 546.5 c 128,-1,17
 299 600 299 600 262.5 631 c 128,-1,18
 226 662 226 662 169 662 c 128,-1,19
 112 662 112 662 78 634 c 1,0,-1
139.5 6.5 m 128,-1,21
 120 26 120 26 120 53.5 c 128,-1,22
 120 81 120 81 139 100 c 128,-1,23
 158 119 158 119 185.5 119 c 128,-1,24
 213 119 213 119 232.5 99.5 c 128,-1,25
 252 80 252 80 252 53 c 128,-1,26
 252 26 252 26 232.5 6.5 c 128,-1,27
 213 -13 213 -13 186 -13 c 128,-1,20
 159 -13 159 -13 139.5 6.5 c 128,-1,21
EndSplineSet
EndChar

StartChar: at
Encoding: 64 64 35
Width: 831
GlyphClass: 2
Flags: HMW
HStem: -128 42<288.5 379 288.5 381.5> 50 45 391 49<402 459.5> 574 42<343 528.5>
VStem: 51 50<113 284.5 113 294.5> 248 74<173 226.5 173 246.5> 729 50<258 394.5>
LayerCount: 2
Fore
SplineSet
486 113 m 1,0,-1
 484 114 l 1,1,2
 463 84 463 84 431.5 67 c 128,-1,3
 400 50 400 50 369 50 c 0,4,5
 307 50 307 50 277.5 91.5 c 128,-1,6
 248 133 248 133 248 191 c 128,-1,7
 248 249 248 249 270.5 303.5 c 128,-1,8
 293 358 293 358 341 399 c 128,-1,9
 389 440 389 440 445.5 440 c 128,-1,10
 502 440 502 440 533 404 c 1,11,-1
 542 418 l 1,12,-1
 549 433 l 1,13,-1
 586 433 l 1,14,-1
 558 247 l 1,15,-1
 552 201 l 2,16,17
 546 159 546 159 546 147 c 0,18,19
 546 95 546 95 592 95 c 0,20,21
 653 95 653 95 691 160.5 c 128,-1,22
 729 226 729 226 729 311 c 0,23,24
 729 432 729 432 650 503 c 128,-1,25
 571 574 571 574 459.5 574 c 128,-1,26
 348 574 348 574 265.5 516.5 c 128,-1,27
 183 459 183 459 142 373 c 128,-1,28
 101 287 101 287 101 192 c 0,29,30
 101 73 101 73 176 -6.5 c 128,-1,31
 251 -86 251 -86 366 -86 c 0,32,33
 404 -86 404 -86 446 -75 c 1,34,-1
 458 -116 l 1,35,36
 413 -128 413 -128 366 -128 c 0,37,38
 229 -128 229 -128 140 -36.5 c 128,-1,39
 51 55 51 55 51 192 c 0,40,41
 51 297 51 297 98.5 392.5 c 128,-1,42
 146 488 146 488 240 552 c 128,-1,43
 334 616 334 616 462.5 616 c 128,-1,44
 591 616 591 616 685 534 c 128,-1,45
 779 452 779 452 779 311 c 0,46,47
 779 210 779 210 726.5 131 c 128,-1,48
 674 52 674 52 590 52 c 0,49,50
 556 52 556 52 531.5 65.5 c 128,-1,51
 507 79 507 79 499 90.5 c 128,-1,52
 491 102 491 102 487 113 c 1,53,-1
 486 113 l 1,0,-1
383 99 m 0,54,55
 448.989690722 99 448.989690722 99 478 199.5 c 0,56,57
 499.655696203 274.521518987 499.655696203 274.521518987 510 359 c 1,58,59
 480 391 480 391 442.5 391 c 128,-1,60
 405 391 405 391 375.5 354 c 0,61,62
 322 286.898305085 322 286.898305085 322 192.949152542 c 128,-1,63
 322 99 322 99 383 99 c 0,54,55
EndSplineSet
EndChar

StartChar: A
Encoding: 65 65 36
Width: 631
GlyphClass: 2
Flags: HMW
HStem: 0 21G<18 102 18 18 511 511 511 614> 250 68<210 404 210 427 187 404> 708 20G<271 362 362 362>
LayerCount: 2
Fore
SplineSet
102 0 m 1,0,-1
 18 0 l 1,1,-1
 271 728 l 1,2,-1
 362 728 l 1,3,-1
 614 0 l 1,4,-1
 511 0 l 1,5,-1
 427 250 l 1,6,-1
 187 250 l 1,7,-1
 102 0 l 1,0,-1
308 606 m 1,8,-1
 210 318 l 1,9,-1
 404 318 l 1,10,-1
 308 606 l 1,8,-1
EndSplineSet
EndChar

StartChar: B
Encoding: 66 66 37
Width: 614
GlyphClass: 2
Flags: HMW
HStem: 0 69<178 283> 358 69<178 285 178 285 285 289> 659 69<178 178 178 311>
VStem: 85 93<69 358 69 427 427 659> 438 97<521.5 596.5> 469 66 469 99<159 253 117.5 269.5>
LayerCount: 2
Fore
SplineSet
71 728 m 1,0,-1
 314 728 l 2,1,2
 535 728 535 728 535 559 c 0,3,4
 535 500 535 500 501.5 453 c 128,-1,5
 468 406 468 406 412 397 c 1,6,7
 485 385 485 385 526.5 332 c 128,-1,8
 568 279 568 279 568 204 c 0,9,10
 568 63.3333333333 568 63.3333333333 444 22 c 0,11,12
 378 0 378 0 283 0 c 2,13,-1
 85 0 l 1,14,-1
 85 662 l 1,15,16
 84 665 84 665 83 672 c 2,17,-1
 78 694 l 1,18,-1
 74 716 l 2,19,20
 72.5 726.5 72.5 726.5 71 728 c 1,0,-1
178 358 m 1,21,-1
 178 69 l 1,22,-1
 289 69 l 2,23,24
 375 69 375 69 422 102 c 128,-1,25
 469 135 469 135 469 212 c 128,-1,26
 469 289 469 289 416 323.5 c 128,-1,27
 363 358 363 358 289 358 c 2,28,-1
 178 358 l 1,21,-1
178 659 m 1,29,-1
 178 427 l 1,30,-1
 285 427 l 2,31,32
 359 427 359 427 398.5 456.5 c 128,-1,33
 438 486 438 486 438 557 c 0,34,35
 438 659 438 659 311 659 c 2,36,-1
 178 659 l 1,29,-1
EndSplineSet
EndChar

StartChar: C
Encoding: 67 67 38
Width: 624
GlyphClass: 2
Flags: HMW
HStem: -12 75<301 416.5 301 419.5> 668 70<299 413.5>
VStem: 46 102<282.5 434.5 282.5 470.5>
LayerCount: 2
Fore
SplineSet
46 366 m 0,0,1
 46 528 46 528 137 633 c 128,-1,2
 228 738 228 738 387 738 c 0,3,4
 446 738 446 738 509 717.5 c 128,-1,5
 572 697 572 697 605 659 c 1,6,-1
 553 601 l 1,7,8
 524 632 524 632 477 650 c 128,-1,9
 430 668 430 668 376.5 668 c 128,-1,10
 323 668 323 668 276 641.5 c 128,-1,11
 229 615 229 615 202 569.5 c 0,12,13
 148 478.5 148 478.5 148 360 c 0,14,15
 148 237.727272727 148 237.727272727 202.5 153.5 c 0,16,17
 230 111 230 111 277.5 87 c 128,-1,18
 325 63 325 63 379 63 c 128,-1,19
 433 63 433 63 482 79.5 c 128,-1,20
 531 96 531 96 564 125 c 1,21,-1
 607 58 l 1,22,23
 568 25 568 25 504.5 6.5 c 128,-1,24
 441 -12 441 -12 385 -12 c 0,25,26
 279 -12 279 -12 200.5 40.5 c 128,-1,27
 122 93 122 93 84 177.5 c 128,-1,28
 46 262 46 262 46 366 c 0,0,1
EndSplineSet
EndChar

StartChar: D
Encoding: 68 68 39
Width: 699
GlyphClass: 2
Flags: HMW
HStem: 0 69<179 311 311 323> 659 69<179 179 179 252>
VStem: 86 93<69 659 69 662 69 662> 556 97<283 469.5>
LayerCount: 2
Fore
SplineSet
72 728 m 2,0,-1
 259 728 l 2,1,2
 653 728 653 728 653 362 c 0,3,4
 653 197 653 197 569.5 98.5 c 128,-1,5
 486 0 486 0 323 0 c 2,6,-1
 86 0 l 1,7,-1
 86 662 l 1,8,9
 85 665 85 665 84 672 c 2,10,-1
 80 694 l 1,11,-1
 74 716 l 2,12,13
 73.4342585459 719.960190179 73.4342585459 719.960190179 72.717129273 723.762965816 c 0,14,15
 72 727.565741454 72 727.565741454 72 728 c 2,0,-1
179 659 m 1,16,-1
 179 69 l 1,17,-1
 311 69 l 2,18,19
 439 69 439 69 497.5 150 c 128,-1,20
 556 231 556 231 556 364 c 0,21,22
 556 519 556 519 480.5 589 c 128,-1,23
 405 659 405 659 252 659 c 2,24,-1
 179 659 l 1,16,-1
EndSplineSet
EndChar

StartChar: E
Encoding: 69 69 40
Width: 549
GlyphClass: 2
Flags: HMW
HStem: 0 69<179 509 179 509> 340 68<179 435 179 435> 659 69<179 509 179 179>
VStem: 86 93<69 340 408 659>
LayerCount: 2
Fore
SplineSet
72 728 m 2,0,-1
 509 728 l 1,1,-1
 509 659 l 1,2,-1
 179 659 l 1,3,-1
 179 408 l 1,4,-1
 435 408 l 1,5,-1
 435 340 l 1,6,-1
 179 340 l 1,7,-1
 179 69 l 1,8,-1
 509 69 l 1,9,-1
 509 0 l 1,10,-1
 86 0 l 1,11,-1
 86 662 l 1,12,13
 85 665 85 665 84 672 c 2,14,-1
 80 694 l 1,15,-1
 74 716 l 2,16,17
 73.4342585459 719.960190179 73.4342585459 719.960190179 72.717129273 723.762965816 c 0,18,19
 72 727.565741454 72 727.565741454 72 728 c 2,0,-1
EndSplineSet
EndChar

StartChar: F
Encoding: 70 70 41
Width: 510
GlyphClass: 2
Flags: HMW
HStem: 0 21G<86 179 86 86> 340 68<179 414 179 414> 659 69<179 475 179 179>
VStem: 86 93<0 340 408 659>
LayerCount: 2
Fore
SplineSet
72 728 m 2,0,-1
 475 728 l 1,1,-1
 475 659 l 1,2,-1
 179 659 l 1,3,-1
 179 408 l 1,4,-1
 414 408 l 1,5,-1
 414 340 l 1,6,-1
 179 340 l 1,7,-1
 179 0 l 1,8,-1
 86 0 l 1,9,-1
 86 662 l 1,10,11
 85 665 85 665 84 672 c 2,12,-1
 80 694 l 1,13,-1
 74 716 l 2,14,15
 73.4342585459 719.960190179 73.4342585459 719.960190179 72.717129273 723.762965816 c 0,16,17
 72 727.565741454 72 727.565741454 72 728 c 2,0,-1
EndSplineSet
EndChar

StartChar: G
Encoding: 71 71 42
Width: 707
GlyphClass: 2
Flags: HMW
HStem: -12 74<289.5 402.5> 0 21G<601 651 601 601> 307 68<381 548 369 642> 666 72<297.5 423.5 271.5 426.5>
VStem: 47 98<290.5 441.5 290.5 461.5> 548 94<241 307 307 307>
LayerCount: 2
Fore
SplineSet
47 355 m 0,0,1
 47 523 47 523 134.5 630.5 c 128,-1,2
 222 738 222 738 385 738 c 0,3,4
 449 738 449 738 517.5 717 c 128,-1,5
 586 696 586 696 624 655 c 1,6,-1
 571 593 l 1,7,8
 520 634 520 634 482 650 c 128,-1,9
 444 666 444 666 383 666 c 128,-1,10
 322 666 322 666 274 641 c 128,-1,11
 226 616 226 616 199 572.5 c 0,12,13
 145 485.5 145 485.5 145 364 c 0,14,15
 145 246.62745098 145 246.62745098 195.5 158.5 c 0,16,17
 221 114 221 114 267.5 88 c 128,-1,18
 314 62 314 62 383 62 c 128,-1,19
 452 62 452 62 500 112.5 c 128,-1,20
 548 163 548 163 548 241 c 2,21,-1
 548 307 l 1,22,-1
 369 307 l 1,23,-1
 381 375 l 1,24,-1
 642 375 l 1,25,-1
 642 166 l 2,26,27
 642 126.2 642 126.2 646 72.6 c 128,-1,28
 650 19 650 19 651 0 c 1,29,-1
 601 0 l 1,30,-1
 569 76 l 1,31,32
 525 29 525 29 475 8.5 c 128,-1,33
 425 -12 425 -12 359 -12 c 0,34,35
 258 -12 258 -12 185.5 40 c 0,36,37
 47 139.337931034 47 139.337931034 47 355 c 0,0,1
EndSplineSet
EndChar

StartChar: H
Encoding: 72 72 43
Width: 714
GlyphClass: 2
Flags: HMW
HStem: 0 21G<87 180 87 87 534 627 534 534> 344 68<180 534 180 534> 708 20G<73 180 180 180 534 627 627 627>
VStem: 87 93<0 344 412 662 662 662> 534 93<0 344 344 344 412 728 0 728>
LayerCount: 2
Fore
SplineSet
73 728 m 1,0,-1
 180 728 l 1,1,-1
 180 412 l 1,2,-1
 534 412 l 1,3,-1
 534 728 l 1,4,-1
 627 728 l 1,5,-1
 627 0 l 1,6,-1
 534 0 l 1,7,-1
 534 344 l 1,8,-1
 180 344 l 1,9,-1
 180 0 l 1,10,-1
 87 0 l 1,11,-1
 87 662 l 1,12,13
 86 665 86 665 85 672 c 2,14,-1
 80 694 l 1,15,-1
 76 716 l 2,16,17
 74.5 726.5 74.5 726.5 73 728 c 1,0,-1
EndSplineSet
EndChar

StartChar: I
Encoding: 73 73 44
Width: 268
GlyphClass: 2
Flags: HMW
HStem: 0 21G<87 180 87 87> 708 20G<73 180 180 180>
VStem: 87 93<0 662 662 662>
LayerCount: 2
Fore
SplineSet
73 728 m 1,0,-1
 180 728 l 1,1,-1
 180 0 l 1,2,-1
 87 0 l 1,3,-1
 87 662 l 1,4,5
 86 665 86 665 85 672 c 2,6,-1
 80 694 l 1,7,-1
 76 716 l 2,8,9
 74.5 726.5 74.5 726.5 73 728 c 1,0,-1
EndSplineSet
EndChar

StartChar: J
Encoding: 74 74 45
Width: 268
GlyphClass: 2
Flags: HMW
HStem: -211 21G<-11 -11> 708 20G<73 181 181 181>
VStem: 88 93<55 61 61 662 662 662>
LayerCount: 2
Fore
SplineSet
-11 -211 m 1,0,-1
 -23 -159 l 1,1,2
 51.5930949445 -146.903822441 51.5930949445 -146.903822441 72 -76.5 c 0,3,4
 88 -21.3 88 -21.3 88 55 c 2,5,-1
 88 662 l 1,6,-1
 73 728 l 1,7,-1
 181 728 l 1,8,-1
 181 61 l 2,9,10
 181 -32.6 181 -32.6 164.5 -78.8 c 128,-1,11
 148 -125 148 -125 127 -149 c 0,12,13
 81.1489971347 -201.401146132 81.1489971347 -201.401146132 -11 -211 c 1,0,-1
EndSplineSet
EndChar

StartChar: K
Encoding: 75 75 46
Width: 583
GlyphClass: 2
Flags: HMW
HStem: 0 21G<86 179 86 86 467 583 467 467> 708 20G<72 179 179 179 468 565 565 565>
VStem: 86 93<0 379 403 662 662 662>
LayerCount: 2
Fore
SplineSet
72 728 m 2,0,-1
 179 728 l 1,1,-1
 179 403 l 1,2,-1
 468 728 l 1,3,-1
 565 728 l 1,4,-1
 278 404 l 1,5,-1
 583 0 l 1,6,-1
 467 0 l 1,7,-1
 179 379 l 1,8,-1
 179 0 l 1,9,-1
 86 0 l 1,10,-1
 86 662 l 1,11,12
 85 665 85 665 84 672 c 2,13,-1
 80 694 l 1,14,-1
 74 716 l 2,15,16
 73.4342585459 719.960190179 73.4342585459 719.960190179 72.717129273 723.762965816 c 0,17,18
 72 727.565741454 72 727.565741454 72 728 c 2,0,-1
EndSplineSet
EndChar

StartChar: L
Encoding: 76 76 47
Width: 514
GlyphClass: 2
Flags: HMW
HStem: 0 69<179 485 179 485> 708 20G<72 179 179 179>
VStem: 86 93<69 662 662 662>
LayerCount: 2
Fore
SplineSet
72 728 m 2,0,-1
 179 728 l 1,1,-1
 179 69 l 1,2,-1
 485 69 l 1,3,-1
 485 0 l 1,4,-1
 86 0 l 1,5,-1
 86 662 l 1,6,7
 85 665 85 665 84 672 c 2,8,-1
 80 694 l 1,9,-1
 74 716 l 2,10,11
 73.4342585459 719.960190179 73.4342585459 719.960190179 72.717129273 723.762965816 c 0,12,13
 72 727.565741454 72 727.565741454 72 728 c 2,0,-1
EndSplineSet
EndChar

StartChar: M
Encoding: 77 77 48
Width: 838
GlyphClass: 2
Flags: HMW
HStem: -1 21G<384 440 384 384> 0 21G<89 165 89 89 659 751 659 659> 708 20G<74 209 209 209 630 751 751 751>
VStem: 89 76<0 595 0 662 0 662> 659 92<0 595 595 595>
LayerCount: 2
Fore
SplineSet
89 662 m 1,0,-1
 74 728 l 1,1,-1
 209 728 l 1,2,-1
 421 161 l 1,3,-1
 630 728 l 1,4,-1
 751 728 l 1,5,-1
 751 0 l 1,6,-1
 659 0 l 1,7,-1
 659 595 l 1,8,-1
 440 -1 l 1,9,-1
 384 -1 l 1,10,-1
 165 595 l 1,11,-1
 165 0 l 1,12,-1
 89 0 l 1,13,-1
 89 662 l 1,0,-1
EndSplineSet
EndChar

StartChar: N
Encoding: 78 78 49
Width: 714
GlyphClass: 2
Flags: HMW
HStem: -5 21G<568 627 568 568> 0 21G<87 163 87 87> 708 20G<73 197 197 197 551 627 627 627>
VStem: 87 76<0 615 0 662 0 662> 551 76<183 728 -5 728>
LayerCount: 2
Fore
SplineSet
73 728 m 1,0,-1
 197 728 l 1,1,-1
 551 183 l 1,2,-1
 551 728 l 1,3,-1
 627 728 l 1,4,-1
 627 -5 l 1,5,-1
 568 -5 l 1,6,-1
 163 615 l 1,7,-1
 163 0 l 1,8,-1
 87 0 l 1,9,-1
 87 662 l 1,10,11
 86 665 86 665 85 672 c 2,12,-1
 80 694 l 1,13,-1
 76 716 l 2,14,15
 74.5 726.5 74.5 726.5 73 728 c 1,0,-1
EndSplineSet
EndChar

StartChar: O
Encoding: 79 79 50
Width: 737
GlyphClass: 2
Flags: HMW
HStem: -11 68<284.5 454 284.5 477> 668 70<284.5 453.5>
VStem: 46 99<290.5 434 290.5 463> 594 97<291 435>
LayerCount: 2
Fore
SplineSet
46 363 m 0,0,1
 46 583.624161074 46 583.624161074 188.5 685 c 0,2,3
 263 738 263 738 368.5 738 c 128,-1,4
 474 738 474 738 548.5 685 c 128,-1,5
 623 632 623 632 657 549 c 128,-1,6
 691 466 691 466 691 363 c 128,-1,7
 691 260 691 260 656.5 177 c 128,-1,8
 622 94 622 94 547.5 41.5 c 128,-1,9
 473 -11 473 -11 368 -11 c 0,10,11
 214 -11 214 -11 130 96.5 c 128,-1,12
 46 204 46 204 46 363 c 0,0,1
156.5 471.5 m 128,-1,14
 145 420 145 420 145 362.5 c 128,-1,15
 145 305 145 305 156.5 253.5 c 128,-1,16
 168 202 168 202 193 156.5 c 128,-1,17
 218 111 218 111 263 84 c 128,-1,18
 308 57 308 57 369 57 c 128,-1,19
 430 57 430 57 475.5 84 c 128,-1,20
 521 111 521 111 546 156.5 c 0,21,22
 594 243.86 594 243.86 594 363 c 0,23,24
 594 480.8 594 480.8 545 569 c 0,25,26
 520 614 520 614 475 641 c 128,-1,27
 430 668 430 668 369 668 c 128,-1,28
 308 668 308 668 263 641 c 128,-1,29
 218 614 218 614 193 568.5 c 128,-1,13
 168 523 168 523 156.5 471.5 c 128,-1,14
EndSplineSet
EndChar

StartChar: P
Encoding: 80 80 51
Width: 575
GlyphClass: 2
Flags: HMW
HStem: 0 21G<86 179 86 86> 288 68<179 288 288 290 179 288> 659 69<179 179 179 289>
VStem: 86 93<0 288 0 356 356 659> 437 97<462 555.5>
LayerCount: 2
Fore
SplineSet
86 662 m 1,0,-1
 71 728 l 1,1,-1
 289 728 l 2,2,3
 403 728 403 728 468.5 674 c 128,-1,4
 534 620 534 620 534 511.5 c 0,5,6
 534 403 534 403 465.5 345.5 c 128,-1,7
 397 288 397 288 290 288 c 2,8,-1
 179 288 l 1,9,-1
 179 0 l 1,10,-1
 86 0 l 1,11,-1
 86 662 l 1,0,-1
179 659 m 1,12,-1
 179 356 l 1,13,-1
 288 356 l 2,14,15
 357 356 357 356 397 397.5 c 128,-1,16
 437 439 437 439 437 509.5 c 0,17,18
 437 580 437 580 398.5 619.5 c 128,-1,19
 360 659 360 659 289 659 c 2,20,-1
 179 659 l 1,12,-1
EndSplineSet
EndChar

StartChar: Q
Encoding: 81 81 52
Width: 737
GlyphClass: 2
Flags: HMW
HStem: -222 64<922 981.5> 668 70<285 453>
VStem: 46 99<290 435 290 462.5> 594 97<291.5 436.5>
LayerCount: 2
Fore
SplineSet
46 363 m 0,0,1
 46 583.624161074 46 583.624161074 188.5 685 c 0,2,3
 263 738 263 738 368.5 738 c 128,-1,4
 474 738 474 738 548.5 684.5 c 0,5,6
 691 582.167785235 691 582.167785235 691 363 c 0,7,8
 691 247 691 247 642 151.5 c 128,-1,9
 593 56 593 56 493 14 c 1,10,11
 496 11 496 11 508 7 c 1,12,-1
 628 -52 l 1,13,14
 848 -158 848 -158 969 -158 c 0,15,16
 1037 -158 1037 -158 1139 -127 c 1,17,-1
 1155 -175 l 1,18,19
 1093 -199 1093 -199 1046 -210.5 c 128,-1,20
 999 -222 999 -222 935 -222 c 0,21,22
 840 -222 840 -222 670 -150 c 1,23,-1
 438 -42 l 2,24,25
 403 -26 403 -26 374 -20 c 2,26,-1
 307 -5 l 2,27,28
 173 26 173 26 109.5 124 c 128,-1,29
 46 222 46 222 46 363 c 0,0,1
152 450 m 128,-1,31
 145 408 145 408 145 356.5 c 128,-1,32
 145 305 145 305 157 253 c 128,-1,33
 169 201 169 201 194 156 c 128,-1,34
 219 111 219 111 264 84 c 128,-1,35
 309 57 309 57 369 57 c 128,-1,36
 429 57 429 57 474.5 83.5 c 128,-1,37
 520 110 520 110 545 155 c 0,38,39
 594 243.2 594 243.2 594 363 c 0,40,41
 594 481.8 594 481.8 545 570 c 0,42,43
 520 615 520 615 474.5 641.5 c 128,-1,44
 429 668 429 668 374.5 668 c 128,-1,45
 320 668 320 668 281 650 c 128,-1,46
 242 632 242 632 217 602.5 c 128,-1,47
 192 573 192 573 175.5 532.5 c 128,-1,30
 159 492 159 492 152 450 c 128,-1,31
EndSplineSet
EndChar

StartChar: R
Encoding: 82 82 53
Width: 591
GlyphClass: 2
Flags: HMW
HStem: 0 21G<85 178 85 85 491 599 491 491> 327 68<178 228 178 258 228 258 258 267> 659 69<178 178 178 288>
VStem: 85 93<0 327 0 395 395 659> 437 97<486.5 575.5>
LayerCount: 2
Fore
SplineSet
71 728 m 1,0,-1
 288 728 l 2,1,2
 534 728 534 728 534 527 c 0,3,4
 534 467 534 467 493.5 415.5 c 128,-1,5
 453 364 453 364 395 346 c 1,6,-1
 599 0 l 1,7,-1
 491 0 l 1,8,-1
 303 329 l 1,9,10
 281 327 281 327 267 327 c 2,11,-1
 178 327 l 1,12,-1
 178 0 l 1,13,-1
 85 0 l 1,14,-1
 85 662 l 1,15,16
 84 665 84 665 83 672 c 2,17,-1
 78 694 l 1,18,-1
 74 716 l 2,19,20
 72.5 726.5 72.5 726.5 71 728 c 1,0,-1
178 659 m 1,21,-1
 178 395 l 1,22,-1
 258 395 l 2,23,24
 341 395 341 395 389 425.5 c 128,-1,25
 437 456 437 456 437 533 c 0,26,27
 437 593 437 593 393.5 626 c 128,-1,28
 350 659 350 659 288 659 c 2,29,-1
 178 659 l 1,21,-1
EndSplineSet
EndChar

StartChar: S
Encoding: 83 83 54
Width: 516
GlyphClass: 2
Flags: HMW
HStem: -12 72<208.5 271.5 208.5 301> 667 71<243.5 305>
VStem: 52 100<478.5 594.5 478.5 610.5> 385 100<140.5 280.5>
LayerCount: 2
Fore
SplineSet
32 42 m 1,0,-1
 68 124 l 1,1,2
 101 95 101 95 147.5 77.5 c 128,-1,3
 194 60 194 60 245 60 c 128,-1,4
 296 60 296 60 340.5 91.5 c 128,-1,5
 385 123 385 123 385 180 c 128,-1,6
 385 237 385 237 350.5 273 c 128,-1,7
 316 309 316 309 267 330.5 c 128,-1,8
 218 352 218 352 169.5 375.5 c 128,-1,9
 121 399 121 399 86.5 442 c 128,-1,10
 52 485 52 485 52 548 c 0,11,12
 52 637 52 637 120 687.5 c 128,-1,13
 188 738 188 738 284 738 c 128,-1,14
 380 738 380 738 468 684 c 1,15,-1
 422 617 l 1,16,17
 353 667 353 667 287.5 667 c 128,-1,18
 222 667 222 667 187 639 c 128,-1,19
 152 611 152 611 152 556 c 0,20,21
 152 497.689655172 152 497.689655172 218 459 c 0,22,23
 247 442 247 442 283 426 c 128,-1,24
 319 410 319 410 354.5 390.5 c 128,-1,25
 390 371 390 371 419 347 c 128,-1,26
 448 323 448 323 466.5 285 c 128,-1,27
 485 247 485 247 485 198 c 0,28,29
 485 96 485 96 413.5 42 c 128,-1,30
 342 -12 342 -12 239.5 -12 c 128,-1,31
 137 -12 137 -12 32 42 c 1,0,-1
EndSplineSet
EndChar

StartChar: T
Encoding: 84 84 55
Width: 578
GlyphClass: 2
Flags: HMW
HStem: 0 21G<240 335 240 240> 659 69<24 240 24 554 335 335 335 554>
VStem: 240 95<0 659 0 659>
LayerCount: 2
Fore
SplineSet
240 659 m 1,0,-1
 24 659 l 1,1,-1
 24 728 l 1,2,-1
 554 728 l 1,3,-1
 554 659 l 1,4,-1
 335 659 l 1,5,-1
 335 0 l 1,6,-1
 240 0 l 1,7,-1
 240 659 l 1,0,-1
EndSplineSet
EndChar

StartChar: U
Encoding: 85 85 56
Width: 707
GlyphClass: 2
Flags: HMW
HStem: -12 69<295 417 295 437> 708 20G<71 181 181 181 543 620 620 620>
VStem: 86 95<244 662 662 662> 543 77<258 728>
LayerCount: 2
Fore
SplineSet
86 662 m 1,0,-1
 71 728 l 1,1,-1
 181 728 l 1,2,-1
 181 244 l 2,3,4
 181 155 181 155 224 106 c 128,-1,5
 267 57 267 57 356.5 57 c 0,6,7
 446 57 446 57 494.5 111.5 c 128,-1,8
 543 166 543 166 543 258 c 2,9,-1
 543 728 l 1,10,-1
 620 728 l 1,11,-1
 620 258 l 2,12,13
 620 129 620 129 550 58.5 c 128,-1,14
 480 -12 480 -12 352 -12 c 0,15,16
 224 -12 224 -12 155 53 c 128,-1,17
 86 118 86 118 86 244 c 2,18,-1
 86 662 l 1,0,-1
EndSplineSet
EndChar

StartChar: V
Encoding: 86 86 57
Width: 603
GlyphClass: 2
Flags: HMW
HStem: -3 21G<272 272 272 330> 708 20G<21 120 120 120> 709 20G<502 582 582 582>
LayerCount: 2
Fore
SplineSet
272 -3 m 1,0,-1
 21 728 l 1,1,-1
 120 728 l 1,2,-1
 308 162 l 1,3,-1
 502 729 l 1,4,-1
 582 729 l 1,5,-1
 330 -3 l 1,6,-1
 272 -3 l 1,0,-1
EndSplineSet
EndChar

StartChar: W
Encoding: 87 87 58
Width: 894
GlyphClass: 2
Flags: HMW
HStem: -5 21G<223 223 223 300 597 597 597 674> 708 20G<21 119 119 119 420 494 494 494 795 873 873 873>
LayerCount: 2
Fore
SplineSet
223 -5 m 1,0,-1
 21 728 l 1,1,-1
 119 728 l 1,2,-1
 270 170 l 1,3,-1
 420 728 l 1,4,-1
 494 728 l 1,5,-1
 644 170 l 1,6,-1
 795 728 l 1,7,-1
 873 728 l 1,8,-1
 674 -5 l 1,9,-1
 597 -5 l 1,10,-1
 448 541 l 1,11,-1
 300 -5 l 1,12,-1
 223 -5 l 1,0,-1
EndSplineSet
EndChar

StartChar: X
Encoding: 88 88 59
Width: 585
GlyphClass: 2
Flags: HMW
HStem: 0 21G<12 98 12 12 464 464 464 573> 708 20G<31 138 138 138 464 551 551 551>
LayerCount: 2
Fore
SplineSet
98 0 m 1,0,-1
 12 0 l 1,1,-1
 243 372 l 1,2,-1
 31 728 l 1,3,-1
 138 728 l 1,4,-1
 298 461 l 1,5,-1
 464 728 l 1,6,-1
 551 728 l 1,7,-1
 339 391 l 1,8,-1
 573 0 l 1,9,-1
 464 0 l 1,10,-1
 285 300 l 1,11,-1
 98 0 l 1,0,-1
EndSplineSet
EndChar

StartChar: Y
Encoding: 89 89 60
Width: 584
GlyphClass: 2
Flags: HMW
HStem: 0 21G<249 344 249 249> 708 20G<32 140 140 140 466 553 553 553>
VStem: 249 95<0 360 0 360>
LayerCount: 2
Fore
SplineSet
249 360 m 1,0,-1
 32 728 l 1,1,-1
 140 728 l 1,2,-1
 309 445 l 1,3,-1
 466 728 l 1,4,-1
 553 728 l 1,5,-1
 344 360 l 1,6,-1
 344 0 l 1,7,-1
 249 0 l 1,8,-1
 249 360 l 1,0,-1
EndSplineSet
EndChar

StartChar: Z
Encoding: 90 90 61
Width: 571
GlyphClass: 2
Flags: HMW
HStem: 0 69<146 529> 659 69<57 413 57 524>
LayerCount: 2
Fore
SplineSet
529 0 m 1,0,-1
 35 0 l 1,1,-1
 35 67 l 1,2,-1
 413 659 l 1,3,-1
 57 659 l 1,4,-1
 57 728 l 1,5,-1
 524 728 l 1,6,-1
 524 661 l 1,7,-1
 146 69 l 1,8,-1
 537 69 l 1,9,-1
 529 0 l 1,0,-1
EndSplineSet
EndChar

StartChar: bracketleft
Encoding: 91 91 62
Width: 351
GlyphClass: 2
Flags: HMW
HStem: -128 49<153 280 153 280> 681 49<153 280 153 153>
VStem: 72 81<-79 681 -79 730 -79 730> 72 208<-128 -79 681 730>
LayerCount: 2
Fore
SplineSet
280 -128 m 1,0,-1
 72 -128 l 1,1,-1
 72 730 l 1,2,-1
 280 730 l 1,3,-1
 280 681 l 1,4,-1
 153 681 l 1,5,-1
 153 -79 l 1,6,-1
 280 -79 l 1,7,-1
 280 -128 l 1,0,-1
EndSplineSet
EndChar

StartChar: backslash
Encoding: 92 92 63
Width: 326
GlyphClass: 2
Flags: HMW
HStem: 0 21G<262 262 262 329> 708 20G<-3 66 66 66>
LayerCount: 2
Fore
SplineSet
262 0 m 1,0,-1
 -3 728 l 1,1,-1
 66 728 l 1,2,-1
 329 0 l 1,3,-1
 262 0 l 1,0,-1
EndSplineSet
EndChar

StartChar: bracketright
Encoding: 93 93 64
Width: 350
GlyphClass: 2
Flags: HMW
HStem: -127 49<72 198 72 279 72 198> 681 49<71 198 71 279>
VStem: 72 207<-127 -78 -78 -78> 198 81<-78 681 681 681>
LayerCount: 2
Fore
SplineSet
198 681 m 1,0,-1
 71 681 l 1,1,-1
 71 730 l 1,2,-1
 279 730 l 1,3,-1
 279 -127 l 1,4,-1
 72 -127 l 1,5,-1
 72 -78 l 1,6,-1
 198 -78 l 1,7,-1
 198 681 l 1,0,-1
EndSplineSet
EndChar

StartChar: asciicircum
Encoding: 94 94 65
Width: 618
GlyphClass: 2
Flags: HMW
HStem: 0 21G<56 133 56 56 486 486 486 562> 477 20G<271 345 345 345>
LayerCount: 2
Fore
SplineSet
133 0 m 1,0,-1
 56 0 l 1,1,-1
 271 497 l 1,2,-1
 345 497 l 1,3,-1
 562 0 l 1,4,-1
 486 0 l 1,5,-1
 309 405 l 1,6,-1
 133 0 l 1,0,-1
EndSplineSet
EndChar

StartChar: underscore
Encoding: 95 95 66
Width: 499
GlyphClass: 2
Flags: HMW
HStem: -126 60<-9 509 -9 509>
LayerCount: 2
Fore
SplineSet
-9 -126 m 1,0,-1
 -9 -66 l 1,1,-1
 509 -66 l 1,2,-1
 509 -126 l 1,3,-1
 -9 -126 l 1,0,-1
EndSplineSet
EndChar

StartChar: grave
Encoding: 96 96 67
Width: 281
GlyphClass: 2
Flags: HMW
HStem: 576 21G<171 171 171 249> 708 20G<31 154 154 154>
LayerCount: 2
Fore
SplineSet
171 576 m 1,0,-1
 31 728 l 1,1,-1
 154 728 l 1,2,-1
 249 576 l 1,3,-1
 171 576 l 1,0,-1
EndSplineSet
EndChar

StartChar: a
Encoding: 97 97 68
Width: 494
GlyphClass: 2
Flags: HMW
HStem: -11 70<184.5 209.5> -9 21G<381.5 418> 226 65<293 329> 444 65<221.5 278>
VStem: 44 85<101 173 101 195.5> 329 83<194 226 226 226 291 344 344 345>
LayerCount: 2
Fore
SplineSet
498 21 m 1,0,1
 428 -9 428 -9 402 -9 c 0,2,3
 343 -9 343 -9 331 59 c 1,4,5
 264 -11 264 -11 181 -11 c 0,6,7
 120 -11 120 -11 82 24 c 128,-1,8
 44 59 44 59 44 120 c 0,9,10
 44 291 44 291 329 291 c 1,11,-1
 329 344 l 2,12,13
 329 444 329 444 246 444 c 0,14,15
 207 444 207 444 167 428.5 c 128,-1,16
 127 413 127 413 103 385 c 1,17,-1
 62 444 l 1,18,19
 145 509 145 509 253 509 c 0,20,21
 331 509 331 509 371.5 466.5 c 128,-1,22
 412 424 412 424 412 345 c 2,23,-1
 412 97 l 2,24,25
 412 77 412 77 416.5 68 c 128,-1,26
 421 59 421 59 434 59 c 1,27,-1
 442 61 l 1,28,-1
 456 66 l 1,29,-1
 472 70 l 2,30,31
 479.5 71.5 479.5 71.5 481 73 c 1,32,-1
 498 21 l 1,0,1
129 123 m 0,33,34
 129 59 129 59 208 59 c 0,35,36
 259 59 259 59 294 100.5 c 128,-1,37
 329 142 329 142 329 194 c 2,38,-1
 329 226 l 1,39,40
 221.142857143 226 221.142857143 226 177.5 202.5 c 0,41,42
 158 192 158 192 143.5 172 c 128,-1,43
 129 152 129 152 129 123 c 0,33,34
EndSplineSet
EndChar

StartChar: b
Encoding: 98 98 69
Width: 558
GlyphClass: 2
Flags: HMW
HStem: -13 62<265 340 244 367> -1 21G<79 129 79 79> 436 71<276.5 334.5> 742 20G<68 165 165 165>
VStem: 82 83<157 199 199 381 452 704 704 704.5> 423 89<208 292>
LayerCount: 2
Fore
SplineSet
68 762 m 1,0,-1
 165 762 l 1,1,-1
 165 452 l 1,2,3
 226 507 226 507 305 507 c 0,4,5
 403 507 403 507 457.5 430 c 128,-1,6
 512 353 512 353 512 247.5 c 128,-1,7
 512 142 512 142 455 64.5 c 128,-1,8
 398 -13 398 -13 299.5 -13 c 128,-1,9
 201 -13 201 -13 147 51 c 1,10,-1
 129 -1 l 1,11,-1
 79 -1 l 1,12,-1
 81 34 l 2,13,14
 82 46 82 46 82 68 c 2,15,-1
 82 704 l 1,16,-1
 76 732 l 2,17,18
 73.5 744.5 73.5 744.5 70.75 752.75 c 128,-1,19
 68 761 68 761 68 762 c 1,0,-1
165 381 m 1,20,-1
 165 199 l 2,21,22
 165 131 165 131 195 90 c 128,-1,23
 225 49 225 49 290 49 c 0,24,25
 337 49 337 49 368.5 83.5 c 0,26,27
 423 143.19047619 423 143.19047619 423 248 c 0,28,29
 423 324 423 324 388.5 380 c 128,-1,30
 354 436 354 436 286 436 c 128,-1,31
 218 436 218 436 165 381 c 1,20,-1
EndSplineSet
EndChar

StartChar: c
Encoding: 99 99 70
Width: 450
GlyphClass: 2
Flags: HMW
HStem: -13 69<224 299.5 224 303.5> 444 65<221.5 293.5>
VStem: 44 89<215 296.5 215 320.5>
LayerCount: 2
Fore
SplineSet
106.5 66.5 m 128,-1,1
 44 146 44 146 44 253.5 c 128,-1,2
 44 361 44 361 107.5 435 c 128,-1,3
 171 509 171 509 282 509 c 0,4,5
 357 509 357 509 426 458 c 1,6,-1
 381 400 l 1,7,8
 352 425 352 425 328.5 434.5 c 128,-1,9
 305 444 305 444 269 444 c 0,10,11
 204 444 204 444 168.5 385 c 128,-1,12
 133 326 133 326 133 268.5 c 128,-1,13
 133 211 133 211 146.5 167 c 128,-1,14
 160 123 160 123 193.5 89.5 c 128,-1,15
 227 56 227 56 268.5 56 c 128,-1,16
 310 56 310 56 335 66 c 128,-1,17
 360 76 360 76 395 100 c 1,18,-1
 433 37 l 1,19,20
 388 9 388 9 354 -2 c 128,-1,21
 320 -13 320 -13 269 -13 c 0,22,0
 169 -13 169 -13 106.5 66.5 c 128,-1,1
EndSplineSet
EndChar

StartChar: d
Encoding: 100 100 71
Width: 558
GlyphClass: 2
Flags: HMW
HStem: -13 73<223 279.5> 440 68<216.5 289.5 192 312.5> 742 20G<378 474 474 474>
VStem: 45 88<204.5 294 204.5 312> 392 82<126 143 143 294 294 334 464 703 703 703>
LayerCount: 2
Fore
SplineSet
99 64 m 128,-1,1
 45 141 45 141 45 247.5 c 128,-1,2
 45 354 45 354 102.5 431 c 128,-1,3
 160 508 160 508 267 508 c 0,4,5
 342 508 342 508 392 464 c 1,6,-1
 392 703 l 1,7,-1
 378 762 l 1,8,-1
 474 762 l 1,9,-1
 474 143 l 2,10,11
 474 56 474 56 505 2 c 1,12,-1
 417 -9 l 1,13,14
 402 26 402 26 398 59 c 1,15,16
 342 -13 342 -13 247.5 -13 c 128,-1,0
 153 -13 153 -13 99 64 c 128,-1,1
168 116 m 128,-1,18
 203 60 203 60 276 60 c 0,19,20
 334 60 334 60 392 126 c 1,21,-1
 392 294 l 2,22,23
 392 358 392 358 361.5 399 c 128,-1,24
 331 440 331 440 269 440 c 0,25,26
 231 440 231 440 203.5 423 c 128,-1,27
 176 406 176 406 161.5 377.5 c 0,28,29
 133 321.482758621 133 321.482758621 133 246.74137931 c 128,-1,17
 133 172 133 172 168 116 c 128,-1,18
EndSplineSet
EndChar

StartChar: e
Encoding: 101 101 72
Width: 494
GlyphClass: 2
Flags: HMW
HStem: -13 70<228 298.5 228 305> 256 62<138 347 347 355 138 402 132 347> 446 63<234.5 298.5>
VStem: 44 88<203.5 246 246 256 203.5 308> 364 89<331.5 367.5>
LayerCount: 2
Fore
SplineSet
105.5 59.5 m 128,-1,1
 44 132 44 132 44 241 c 128,-1,2
 44 350 44 350 100.5 429.5 c 128,-1,3
 157 509 157 509 260 509 c 0,4,5
 347 509 347 509 400 457.5 c 128,-1,6
 453 406 453 406 453 320 c 0,7,8
 453 256 453 256 402 256 c 2,9,-1
 132 256 l 1,10,-1
 132 246 l 2,11,12
 132 174 132 174 170.5 115.5 c 128,-1,13
 209 57 209 57 277 57 c 0,14,15
 310 57 310 57 346 69.5 c 128,-1,16
 382 82 382 82 406 103 c 1,17,-1
 443 43 l 1,18,19
 376 -13 376 -13 271.5 -13 c 128,-1,0
 167 -13 167 -13 105.5 59.5 c 128,-1,1
138 318 m 1,20,-1
 347 318 l 2,21,22
 358 318 358 318 361 322.5 c 128,-1,23
 364 327 364 327 364 339 c 0,24,25
 364 384 364 384 338 415 c 128,-1,26
 312 446 312 446 266 446 c 128,-1,27
 220 446 220 446 183.5 406.5 c 128,-1,28
 147 367 147 367 138 318 c 1,20,-1
EndSplineSet
EndChar

StartChar: f
Encoding: 102 102 73
Width: 288
GlyphClass: 2
Flags: HMW
HStem: 0 21G<95 177 95 95> 435 62<177 320 177 302> 708 62<247.5 317>
VStem: 95 82<0 435 0 435>
LayerCount: 2
Fore
SplineSet
95 435 m 1,0,-1
 20 435 l 1,1,-1
 20 487 l 1,2,-1
 44 489 l 2,3,4
 90 493 90 493 97 527 c 0,5,6
 100 539 100 539 108 590 c 1,7,8
 123 672 123 672 173 721 c 128,-1,9
 223 770 223 770 303 770 c 0,10,11
 358 770 358 770 400 745 c 1,12,-1
 377 683 l 1,13,14
 347 708 347 708 305.5 708 c 128,-1,15
 264 708 264 708 236.5 688.5 c 128,-1,16
 209 669 209 669 197 634 c 0,17,18
 177 575.666666667 177 575.666666667 177 497 c 1,19,-1
 320 497 l 1,20,-1
 302 435 l 1,21,-1
 177 435 l 1,22,-1
 177 0 l 1,23,-1
 95 0 l 1,24,-1
 95 435 l 1,0,-1
EndSplineSet
EndChar

StartChar: g
Encoding: 103 103 74
Width: 477
GlyphClass: 2
Flags: HMW
HStem: -230 68<192.5 249.5 192.5 262.5> 0 79<285.5 300.5> 164 60<213.5 244.5 196 269> 449 46 449 60<196.5 239.5 172 245> 490 20G<489 489>
VStem: 21 86<-111 -78.5> 44 87<307.5 369 305 384.5> 44 99 310 87<304 354.5 288.5 368> 380 77<-95 -29>
LayerCount: 2
Fore
SplineSet
204 76 m 2,0,-1
 301 79 l 1,1,2
 457 79 457 79 457 -26 c 0,3,4
 457 -96 457 -96 417.5 -144 c 0,5,6
 346.729166667 -230 346.729166667 -230 200 -230 c 0,7,8
 103 -230 103 -230 51 -178 c 0,9,10
 21 -148 21 -148 21 -104 c 0,11,12
 21 -39 21 -39 98 14 c 1,13,14
 52 39 52 39 52 87 c 0,15,16
 52 93.4285714286 52 93.4285714286 57.5 99.7142857143 c 128,-1,17
 63 106 63 106 64 108 c 2,18,-1
 95 151 l 2,19,20
 108 170 108 170 121 194 c 1,21,22
 85 218 85 218 64.5 256 c 128,-1,23
 44 294 44 294 44 336 c 0,24,25
 44 408 44 408 96 458.5 c 128,-1,26
 148 509 148 509 220 509 c 0,27,28
 240 509 240 509 276 502 c 128,-1,29
 312 495 312 495 345 495 c 128,-1,30
 378 495 378 495 489 510 c 1,31,-1
 471 438 l 1,32,-1
 364 438 l 1,33,34
 397 396 397 396 397 330.5 c 128,-1,35
 397 265 397 265 345 214.5 c 128,-1,36
 293 164 293 164 221 164 c 1,37,-1
 183 168 l 1,38,39
 169 168 169 168 156 148.5 c 128,-1,40
 143 129 143 129 143 112.5 c 128,-1,41
 143 96 143 96 153.5 87 c 128,-1,42
 164 78 164 78 174.5 77 c 128,-1,43
 185 76 185 76 204 76 c 2,0,-1
107 -87 m 0,44,45
 107 -120 107 -120 142 -141 c 128,-1,46
 177 -162 177 -162 227.5 -162 c 128,-1,47
 278 -162 278 -162 329 -135.5 c 128,-1,48
 380 -109 380 -109 380 -55 c 0,49,50
 380 -18.2941176471 380 -18.2941176471 345 -8 c 0,51,52
 303.299145299 4.26495726496 303.299145299 4.26495726496 158 -3 c 1,53,54
 137 -18 137 -18 122 -41.5 c 128,-1,55
 107 -65 107 -65 107 -87 c 0,44,45
131 337 m 128,-1,57
 131 290 131 290 157.5 257 c 128,-1,58
 184 224 184 224 220.5 224 c 128,-1,59
 257 224 257 224 283.5 256.5 c 128,-1,60
 310 289 310 289 310 336 c 128,-1,61
 310 383 310 383 283.5 416 c 128,-1,62
 257 449 257 449 220.5 449 c 128,-1,63
 184 449 184 449 157.5 416.5 c 128,-1,56
 131 384 131 384 131 337 c 128,-1,57
EndSplineSet
EndChar

StartChar: h
Encoding: 104 104 75
Width: 547
GlyphClass: 2
Flags: HMW
HStem: 0 21G<82 164 82 82 384 466 384 384> 436 74<285 340.5> 742 20G<69 164 164 164>
VStem: 82 82<0 370 438 703 703 704> 384 82<0 306 306 333 0 336.5>
LayerCount: 2
Fore
SplineSet
82 703 m 1,0,-1
 69 762 l 1,1,-1
 164 762 l 1,2,-1
 164 438 l 1,3,4
 241 510 241 510 315 510 c 0,5,6
 466 510 466 510 466 333 c 2,7,-1
 466 0 l 1,8,-1
 384 0 l 1,9,-1
 384 306 l 2,10,11
 384 402.388888889 384 402.388888889 347 425 c 0,12,13
 329 436 329 436 301 436 c 0,14,15
 243 436 243 436 164 370 c 1,16,-1
 164 0 l 1,17,-1
 82 0 l 1,18,-1
 82 703 l 1,0,-1
EndSplineSet
EndChar

StartChar: i
Encoding: 105 105 76
Width: 251
GlyphClass: 2
Flags: HMW
HStem: 0 21G<84 167 84 84> 477 20G<72 167 167 167> 603 122<107.5 140.5 107.5 141.5>
VStem: 64 121<647.5 680.5> 84 83<0 438 438 439.5>
LayerCount: 2
Fore
SplineSet
64 664 m 128,-1,1
 64 689 64 689 81.5 707 c 128,-1,2
 99 725 99 725 124 725 c 128,-1,3
 149 725 149 725 167 707 c 128,-1,4
 185 689 185 689 185 663.5 c 128,-1,5
 185 638 185 638 167.5 620.5 c 128,-1,6
 150 603 150 603 124.5 603 c 128,-1,7
 99 603 99 603 81.5 621 c 128,-1,0
 64 639 64 639 64 664 c 128,-1,1
84 438 m 1,8,-1
 72 497 l 1,9,-1
 167 497 l 1,10,-1
 167 0 l 1,11,-1
 84 0 l 1,12,-1
 84 438 l 1,8,-1
EndSplineSet
EndChar

StartChar: j
Encoding: 106 106 77
Width: 251
GlyphClass: 2
Flags: HMW
HStem: -228 21G<25 25> 497 106<108.5 143.5 108.5 167 108.5 167> 603 122<109.5 142.5 109.5 143.5>
VStem: 65 122<646.5 680.5> 84 83<13 25 25 438 438 439>
LayerCount: 2
Fore
SplineSet
84 438 m 1,0,-1
 71 497 l 1,1,-1
 167 497 l 1,2,-1
 167 25 l 2,3,4
 167 -210 167 -210 25 -228 c 1,5,-1
 11 -188 l 1,6,7
 69.4522292994 -157.382165605 69.4522292994 -157.382165605 79.5 -77 c 0,8,9
 84 -41 84 -41 84 13 c 2,10,-1
 84 438 l 1,0,-1
82.5 620.5 m 128,-1,12
 65 638 65 638 65 663.5 c 128,-1,13
 65 689 65 689 83 707 c 128,-1,14
 101 725 101 725 126 725 c 128,-1,15
 151 725 151 725 169 707 c 128,-1,16
 187 689 187 689 187 663.5 c 128,-1,17
 187 638 187 638 169.5 620.5 c 128,-1,18
 152 603 152 603 126 603 c 128,-1,11
 100 603 100 603 82.5 620.5 c 128,-1,12
EndSplineSet
EndChar

StartChar: k
Encoding: 107 107 78
Width: 464
GlyphClass: 2
Flags: HMW
HStem: 0 21G<81 164 81 81 367 466 367 367> 477 20G<350 439 439 439> 742 20G<68 164 164 164>
VStem: 81 83<0 270 292 703 703 704>
LayerCount: 2
Fore
SplineSet
81 703 m 1,0,-1
 68 762 l 1,1,-1
 164 762 l 1,2,-1
 164 292 l 1,3,-1
 350 497 l 1,4,-1
 439 497 l 1,5,-1
 248 288 l 1,6,-1
 466 0 l 1,7,-1
 367 0 l 1,8,-1
 164 270 l 1,9,-1
 164 0 l 1,10,-1
 81 0 l 1,11,-1
 81 703 l 1,0,-1
EndSplineSet
EndChar

StartChar: l
Encoding: 108 108 79
Width: 251
GlyphClass: 2
Flags: HMW
HStem: 0 21G<84 167 84 84> 742 20G<71 167 167 167>
VStem: 84 83<0 704 704 705.5>
LayerCount: 2
Fore
SplineSet
84 704 m 1,0,-1
 71 762 l 1,1,-1
 167 762 l 1,2,-1
 167 0 l 1,3,-1
 84 0 l 1,4,-1
 84 704 l 1,0,-1
EndSplineSet
EndChar

StartChar: m
Encoding: 109 109 80
Width: 829
GlyphClass: 2
Flags: HMW
HStem: 0 21G<80 163 80 80 372 455 372 372 664 747 664 664> 435 74<276.5 327.5 566 619.5>
VStem: 80 83<0 361 361 369 0 381.5> 372 83<0 305 305 332 0 335.5> 664 83<0 305 305 332 0 335>
CounterMasks: 1 38
LayerCount: 2
Fore
SplineSet
48 494 m 1,0,-1
 139 504 l 1,1,2
 154 466 154 466 158 435 c 1,3,4
 232 509 232 509 303 509 c 0,5,6
 401 509 401 509 440 426 c 1,7,8
 523 509 523 509 598 509 c 128,-1,9
 673 509 673 509 710 461.5 c 128,-1,10
 747 414 747 414 747 332 c 2,11,-1
 747 0 l 1,12,-1
 664 0 l 1,13,-1
 664 305 l 2,14,15
 664 400.777777778 664 400.777777778 626 424 c 0,16,17
 608 435 608 435 581 435 c 0,18,19
 521 435 521 435 453 367 c 1,20,21
 455 345 455 345 455 332 c 2,22,-1
 455 0 l 1,23,-1
 372 0 l 1,24,-1
 372 305 l 2,25,26
 372 400.777777778 372 400.777777778 334 424 c 0,27,28
 316 435 316 435 289 435 c 0,29,30
 245 435 245 435 190 391 c 2,31,-1
 163 369 l 1,32,-1
 163 0 l 1,33,-1
 80 0 l 1,34,-1
 80 361 l 2,35,36
 80 444 80 444 48 494 c 1,0,-1
EndSplineSet
EndChar

StartChar: n
Encoding: 110 110 81
Width: 547
GlyphClass: 2
Flags: HMW
HStem: 0 21G<80 162 80 80 382 464 382 382> 435 74<282.5 338>
VStem: 80 82<0 352 352 369 0 372> 382 82<0 305 305 332 0 336>
LayerCount: 2
Fore
SplineSet
47 493 m 1,0,-1
 138 505 l 1,1,2
 153 467 153 467 157 434 c 1,3,4
 232 509 232 509 311 509 c 128,-1,5
 390 509 390 509 427 461.5 c 128,-1,6
 464 414 464 414 464 332 c 2,7,-1
 464 0 l 1,8,-1
 382 0 l 1,9,-1
 382 305 l 2,10,11
 382 381.117647059 382 381.117647059 362.5 407.5 c 0,12,13
 342.173913043 435 342.173913043 435 298 435 c 0,14,15
 232 435 232 435 162 369 c 1,16,-1
 162 0 l 1,17,-1
 80 0 l 1,18,-1
 80 352 l 2,19,20
 80 445 80 445 47 493 c 1,0,-1
EndSplineSet
EndChar

StartChar: o
Encoding: 111 111 82
Width: 536
GlyphClass: 2
Flags: HMW
HStem: -13 63<219.5 320 219.5 342> 446 63<216.5 319>
VStem: 44 88<208.5 290.5 208.5 314.5> 405 88<205.5 290>
LayerCount: 2
Fore
SplineSet
103.5 63.5 m 128,-1,1
 44 140 44 140 44 247 c 128,-1,2
 44 354 44 354 104 431.5 c 128,-1,3
 164 509 164 509 269 509 c 128,-1,4
 374 509 374 509 433.5 433 c 128,-1,5
 493 357 493 357 493 248 c 128,-1,6
 493 139 493 139 433.5 63 c 128,-1,7
 374 -13 374 -13 268.5 -13 c 128,-1,0
 163 -13 163 -13 103.5 63.5 c 128,-1,1
143.5 337.5 m 128,-1,9
 132 295 132 295 132 249.5 c 128,-1,10
 132 204 132 204 145 161 c 128,-1,11
 158 118 158 118 190.5 84 c 128,-1,12
 223 50 223 50 270 50 c 128,-1,13
 317 50 317 50 349.5 83 c 128,-1,14
 382 116 382 116 393.5 158.5 c 128,-1,15
 405 201 405 201 405 248 c 128,-1,16
 405 295 405 295 393 337.5 c 128,-1,17
 381 380 381 380 348.5 413 c 128,-1,18
 316 446 316 446 268 446 c 128,-1,19
 220 446 220 446 187.5 413 c 128,-1,8
 155 380 155 380 143.5 337.5 c 128,-1,9
EndSplineSet
EndChar

StartChar: p
Encoding: 112 112 83
Width: 556
GlyphClass: 2
Flags: HMW
HStem: -216 21G<81 177 81 81> -13 68<264.5 337.5 241.5 361.5> 435 73<274.5 331.5>
VStem: 81 82<-157 31 161 201 201 352 352 369> 422 88<201 290.5>
LayerCount: 2
Fore
SplineSet
50 493 m 1,0,-1
 138 504 l 1,1,2
 153 469 153 469 157 436 c 1,3,4
 214 508 214 508 308 508 c 128,-1,5
 402 508 402 508 456 431 c 128,-1,6
 510 354 510 354 510 247.5 c 128,-1,7
 510 141 510 141 451.5 64 c 128,-1,8
 393 -13 393 -13 287 -13 c 0,9,10
 210 -13 210 -13 163 31 c 1,11,-1
 163 -157 l 1,12,-1
 177 -216 l 1,13,-1
 81 -216 l 1,14,-1
 81 352 l 2,15,16
 81 444 81 444 50 493 c 1,0,-1
163 369 m 1,17,-1
 163 201 l 2,18,19
 163 136 163 136 193 95.5 c 128,-1,20
 223 55 223 55 285 55 c 0,21,22
 388.09375 55 388.09375 55 415 178 c 0,23,24
 422 210 422 210 422 245 c 0,25,26
 422 323 422 323 387 379 c 128,-1,27
 352 435 352 435 278 435 c 0,28,29
 219 435 219 435 163 369 c 1,17,-1
EndSplineSet
EndChar

StartChar: q
Encoding: 113 113 84
Width: 556
GlyphClass: 2
Flags: HMW
HStem: -216 21G<391 487 391 391> -12 72<221.5 280.5> 446 63<216 290 187.5 312> 477 20G<427 477 477 477>
VStem: 44 89<204 288 204 312.5> 391 83<-158 -157 -157 43 43 43 115 296 296 338>
LayerCount: 2
Fore
SplineSet
474 -157 m 1,0,-1
 487 -216 l 1,1,-1
 391 -216 l 1,2,-1
 391 43 l 1,3,4
 330 -12 330 -12 257.5 -12 c 128,-1,5
 185 -12 185 -12 136.5 27.5 c 0,6,7
 44 102.835051546 44 102.835051546 44 245 c 0,8,9
 44 355 44 355 100.5 432 c 128,-1,10
 157 509 157 509 256.5 509 c 128,-1,11
 356 509 356 509 409 444 c 1,12,-1
 427 497 l 1,13,-1
 477 497 l 1,14,-1
 475 462 l 2,15,16
 474 451 474 451 474 428 c 2,17,-1
 474 -157 l 1,0,-1
133 248 m 0,18,19
 133 172 133 172 167.5 116 c 128,-1,20
 202 60 202 60 272 60 c 0,21,22
 304 60 304 60 337 75 c 128,-1,23
 370 90 370 90 391 115 c 1,24,-1
 391 296 l 2,25,26
 391 364 391 364 361 405 c 128,-1,27
 331 446 331 446 266 446 c 0,28,29
 219 446 219 446 187.5 412 c 0,30,31
 133 353.174603175 133 353.174603175 133 248 c 0,18,19
EndSplineSet
EndChar

StartChar: r
Encoding: 114 114 85
Width: 349
GlyphClass: 2
Flags: HMW
HStem: 0 21G<81 164 81 81> 418 88<291.5 305>
VStem: 81 83<0 330 0 360 0 379.5>
LayerCount: 2
Fore
SplineSet
49 495 m 1,0,-1
 139 506 l 1,1,2
 158 461 158 461 162 413 c 1,3,4
 189 455 189 455 232.5 480.5 c 128,-1,5
 276 506 276 506 325 506 c 1,6,-1
 305 418 l 1,7,8
 224 418 224 418 164 330 c 1,9,-1
 164 0 l 1,10,-1
 81 0 l 1,11,-1
 81 360 l 2,12,13
 81 448 81 448 49 495 c 1,0,-1
EndSplineSet
EndChar

StartChar: s
Encoding: 115 115 86
Width: 430
GlyphClass: 2
Flags: HMW
HStem: -13 63<174.5 214.5 174.5 246.5> 446 63<222.5 258.5 191 259.5>
VStem: 60 85<322.5 404.5 322.5 414> 293 86<92 176>
LayerCount: 2
Fore
SplineSet
51 29 m 1,0,-1
 86 90 l 1,1,2
 144 50 144 50 188.5 50 c 0,3,4
 233 50 233 50 263 66 c 128,-1,5
 293 82 293 82 293 116.5 c 0,6,7
 293 151 293 151 269 173.5 c 128,-1,8
 245 196 245 196 210.5 211.5 c 128,-1,9
 176 227 176 227 142 244 c 128,-1,10
 108 261 108 261 84 291.5 c 128,-1,11
 60 322 60 322 60 364 c 0,12,13
 60 434 60 434 111.5 471.5 c 128,-1,14
 163 509 163 509 237 509 c 0,15,16
 311 509 311 509 368 474 c 1,17,-1
 339 410 l 1,18,19
 292 446 292 446 248.5 446 c 0,20,21
 205 446 205 446 175 430 c 128,-1,22
 145 414 145 414 145 381 c 0,23,24
 145 348 145 348 169 325.5 c 128,-1,25
 193 303 193 303 227.5 287.5 c 128,-1,26
 262 272 262 272 296.5 254.5 c 128,-1,27
 331 237 331 237 355 206 c 128,-1,28
 379 175 379 175 379 132 c 0,29,30
 379 57 379 57 328 22 c 128,-1,31
 277 -13 277 -13 203.5 -13 c 0,32,33
 130 -13 130 -13 51 29 c 1,0,-1
EndSplineSet
EndChar

StartChar: t
Encoding: 116 116 87
Width: 327
GlyphClass: 2
Flags: HMW
HStem: -11 64<208.5 227.5> 434 50<20 94 20 20> 434 63<177 307 177 289> 434 205<20 199 20 199 177 177 177 199 136 289>
VStem: 94 83<118 434>
LayerCount: 2
Fore
SplineSet
94 434 m 1,0,-1
 20 434 l 1,1,-1
 20 484 l 1,2,3
 77.5653389238 486.055904962 77.5653389238 486.055904962 103.5 540 c 0,4,5
 125.246575342 585.232876712 125.246575342 585.232876712 136 639 c 1,6,-1
 199 639 l 1,7,8
 177 549 177 549 177 497 c 1,9,-1
 307 497 l 1,10,-1
 289 434 l 1,11,-1
 177 434 l 1,12,-1
 177 116 l 2,13,14
 177 84 177 84 188.5 68.5 c 128,-1,15
 200 53 200 53 226.5 53 c 128,-1,16
 253 53 253 53 293 63 c 1,17,-1
 307 7 l 1,18,19
 253 -11 253 -11 199.5 -11 c 0,20,21
 94 -11 94 -11 94 118 c 2,22,-1
 94 434 l 1,0,-1
EndSplineSet
EndChar

StartChar: u
Encoding: 117 117 88
Width: 553
GlyphClass: 2
Flags: HMW
HStem: -13 74<208 260.5> -9 21G<434.5 471> 477 20G<67 163 163 163 369 465 465 465>
VStem: 80 83<164 191 191 438 438 439> 382 83<188 438 438 439>
LayerCount: 2
Fore
SplineSet
80 438 m 1,0,-1
 67 497 l 1,1,-1
 163 497 l 1,2,-1
 163 191 l 2,3,4
 163 96.7777777778 163 96.7777777778 201 72.5 c 0,5,6
 219 61 219 61 246 61 c 0,7,8
 302 61 302 61 342 96.5 c 128,-1,9
 382 132 382 132 382 188 c 2,10,-1
 382 438 l 1,11,12
 369 497 l 1,13,-1
 465 497 l 1,14,-1
 465 97 l 2,15,16
 465 77 465 77 469.5 68 c 128,-1,17
 474 59 474 59 487 59 c 0,18,19
 487.5 59 487.5 59 489.75 59.75 c 128,-1,20
 492 60.5 492 60.5 494 61 c 2,21,-1
 510 66 l 1,22,-1
 525 70 l 2,23,24
 532.5 71.5 532.5 71.5 534 73 c 1,25,-1
 551 21 l 1,26,27
 481 -9 481 -9 455 -9 c 0,28,29
 397 -9 397 -9 385 59 c 1,30,31
 315 -13 315 -13 234.5 -13 c 128,-1,32
 154 -13 154 -13 117 34.5 c 128,-1,33
 80 82 80 82 80 164 c 2,34,-1
 80 438 l 1,0,-1
EndSplineSet
EndChar

StartChar: v
Encoding: 118 118 89
Width: 455
GlyphClass: 2
Flags: HMW
HStem: -6 21G<189 189 189 265> 477 20G<12 100 100 100 365 443 443 443>
LayerCount: 2
Fore
SplineSet
189 -6 m 1,0,-1
 12 497 l 1,1,-1
 100 497 l 1,2,-1
 233 119 l 1,3,-1
 365 497 l 1,4,-1
 443 497 l 1,5,-1
 265 -6 l 1,6,-1
 189 -6 l 1,0,-1
EndSplineSet
EndChar

StartChar: w
Encoding: 119 119 90
Width: 658
GlyphClass: 2
Flags: HMW
HStem: -6 21G<160 160 160 221 429 429 429 489> 477 20G<13 99 99 99 306 365 365 365 572 646 646 646>
LayerCount: 2
Fore
SplineSet
160 -6 m 1,0,-1
 13 497 l 1,1,-1
 99 497 l 1,2,-1
 200 157 l 1,3,-1
 306 497 l 1,4,-1
 365 497 l 1,5,-1
 467 157 l 1,6,-1
 572 497 l 1,7,-1
 646 497 l 1,8,-1
 489 -6 l 1,9,-1
 429 -6 l 1,10,-1
 328 338 l 1,11,-1
 221 -6 l 1,12,-1
 160 -6 l 1,0,-1
EndSplineSet
EndChar

StartChar: x
Encoding: 120 120 91
Width: 446
GlyphClass: 2
Flags: HMW
HStem: -1 21G<10 92 10 10 341 341 341 436> 477 20G<21 116 116 116 340 421 421 421>
LayerCount: 2
Fore
SplineSet
92 -1 m 1,0,-1
 10 -1 l 1,1,-1
 176 254 l 1,2,-1
 21 497 l 1,3,-1
 116 497 l 1,4,-1
 225 325 l 1,5,-1
 340 497 l 1,6,-1
 421 497 l 1,7,-1
 267 263 l 1,8,-1
 436 -1 l 1,9,-1
 341 -1 l 1,10,-1
 218 192 l 1,11,-1
 92 -1 l 1,0,-1
EndSplineSet
EndChar

StartChar: y
Encoding: 121 121 92
Width: 456
GlyphClass: 2
Flags: HMW
HStem: -217 67<38 49 49 76 38 49> 477 20G<12 102 102 102 366 444 444 444>
LayerCount: 2
Fore
SplineSet
194 4 m 1,0,-1
 12 497 l 1,1,-1
 102 497 l 1,2,-1
 234 119 l 1,3,-1
 366 497 l 1,4,-1
 444 497 l 1,5,-1
 268 -2 l 1,6,7
 195 -217 195 -217 76 -217 c 2,8,-1
 38 -217 l 1,9,-1
 38 -150 l 1,10,-1
 49 -150 l 2,11,12
 107.784313725 -150 107.784313725 -150 144.5 -96.5 c 0,13,14
 173.154580153 -54.7461832061 173.154580153 -54.7461832061 194 4 c 1,0,-1
EndSplineSet
EndChar

StartChar: z
Encoding: 122 122 93
Width: 445
GlyphClass: 2
Flags: HMW
HStem: 0 63<143 402> 433 64<55 289 55 401>
LayerCount: 2
Fore
SplineSet
402 0 m 1,0,-1
 32 0 l 1,1,-1
 32 47 l 1,2,-1
 289 433 l 1,3,-1
 55 433 l 1,4,-1
 55 497 l 1,5,-1
 401 497 l 1,6,-1
 401 449 l 1,7,-1
 143 63 l 1,8,-1
 413 63 l 1,9,-1
 402 0 l 1,0,-1
EndSplineSet
EndChar

StartChar: braceleft
Encoding: 123 123 94
Width: 349
GlyphClass: 2
Flags: HMW
HStem: -135 47<260 267 267 292> 278 45<58 82.5> 689 47<270 292 270 292>
VStem: 122 81<28 170 420 431 431 573 573 601> 122 170<-135 192>
CounterMasks: 1 e0
LayerCount: 2
Fore
SplineSet
58 278 m 1,0,-1
 58 323 l 1,1,2
 122 323 122 323 122 420 c 2,3,-1
 122 573 l 2,4,5
 122 736 122 736 270 736 c 2,6,-1
 292 736 l 1,7,-1
 292 689 l 1,8,9
 236 689 236 689 219.5 672 c 128,-1,10
 203 655 203 655 203 601 c 2,11,-1
 203 431 l 2,12,13
 203 322 203 322 137 300 c 1,14,15
 203 275 203 275 203 170 c 2,16,-1
 203 -8 l 2,17,18
 203 -56 203 -56 222.5 -72 c 128,-1,19
 242 -88 242 -88 292 -88 c 1,20,-1
 292 -135 l 1,21,-1
 267 -135 l 2,22,23
 122 -135 122 -135 122 28 c 2,24,-1
 122 192 l 2,25,26
 122 278 122 278 58 278 c 1,0,-1
EndSplineSet
EndChar

StartChar: bar
Encoding: 124 124 95
Width: 235
GlyphClass: 2
Flags: HMW
HStem: -107 21G<82 153 82 82> 728 20G<82 153 153 153>
VStem: 82 71<-107 748>
LayerCount: 2
Fore
SplineSet
153 -107 m 1,0,-1
 82 -107 l 1,1,-1
 82 748 l 1,2,-1
 153 748 l 1,3,-1
 153 -107 l 1,0,-1
EndSplineSet
EndChar

StartChar: braceright
Encoding: 125 125 96
Width: 349
GlyphClass: 2
Flags: HMW
HStem: -135 47<58 94.5 58 80> 278 45<266.5 292 266.5 292> 689 47<58 65 65 90.5>
VStem: 58 169<-135 28 -88 28> 146 81<0 28 28 170 170 181 431 573>
CounterMasks: 1 e0
LayerCount: 2
Fore
SplineSet
58 -135 m 1,0,-1
 58 -88 l 1,1,2
 112 -88 112 -88 129 -70.5 c 128,-1,3
 146 -53 146 -53 146 0 c 2,4,-1
 146 170 l 2,5,6
 146 275 146 275 212 300 c 1,7,8
 146 322 146 322 146 431 c 2,9,-1
 146 609 l 2,10,11
 146 658 146 658 127.5 673.5 c 128,-1,12
 109 689 109 689 58 689 c 1,13,-1
 58 736 l 1,14,-1
 65 736 l 2,15,16
 150 736 150 736 188.5 698 c 128,-1,17
 227 660 227 660 227 573 c 2,18,-1
 227 409 l 2,19,20
 227 323 227 323 292 323 c 1,21,-1
 292 278 l 1,22,23
 253 278 253 278 240 251 c 128,-1,24
 227 224 227 224 227 181 c 2,25,-1
 227 28 l 2,26,27
 227 -135 227 -135 80 -135 c 2,28,-1
 58 -135 l 1,0,-1
EndSplineSet
EndChar

StartChar: asciitilde
Encoding: 126 126 97
Width: 663
GlyphClass: 2
Flags: HMW
HStem: 201 21G<137 137> 202 75<429 455.5 429 464> 271 75<202 243 190.5 259.5>
LayerCount: 2
Fore
SplineSet
137 201 m 1,0,-1
 84 245 l 1,1,2
 103 287 103 287 140.5 316.5 c 128,-1,3
 178 346 178 346 221 346 c 128,-1,4
 264 346 264 346 341 312 c 1,5,-1
 392 288 l 2,6,7
 416 277 416 277 439.5 277 c 0,8,9
 463 277 463 277 488 297 c 128,-1,10
 513 317 513 317 527 345 c 1,11,-1
 579 298 l 1,12,13
 555 260 555 260 515 231 c 128,-1,14
 475 202 475 202 435.5 202 c 0,15,16
 396 202 396 202 327.5 236.5 c 128,-1,17
 259 271 259 271 221 271 c 0,18,19
 172 271 172 271 137 201 c 1,0,-1
EndSplineSet
EndChar

StartChar: exclamdown
Encoding: 161 161 98
Width: 329
GlyphClass: 2
Flags: HMW
HStem: -126 21G<120.5 125 125 206> 482 132<147 183 147 183>
VStem: 98 133<548 566 548 566.5> 121 88
LayerCount: 2
Fore
SplineSet
117.5 501 m 128,-1,1
 98 520 98 520 98 547.5 c 128,-1,2
 98 575 98 575 118 594.5 c 128,-1,3
 138 614 138 614 165 614 c 128,-1,4
 192 614 192 614 211.5 594.5 c 128,-1,5
 231 575 231 575 230.5 548 c 128,-1,6
 230 521 230 521 211 501.5 c 128,-1,7
 192 482 192 482 164.5 482 c 128,-1,0
 137 482 137 482 117.5 501 c 128,-1,1
107 -110 m 2,8,-1
 136 383 l 1,9,-1
 194 383 l 1,10,-1
 224 -112 l 2,11,12
 224 -126 224 -126 206 -126 c 2,13,-1
 125 -126 l 2,14,15
 107 -126 107 -126 107 -110 c 2,8,-1
EndSplineSet
EndChar

StartChar: cent
Encoding: 162 162 99
Width: 450
GlyphClass: 2
Flags: HMW
HStem: -118 173<221 248 176 297> -14 69<258 273 258 258> 443 169<266 292.5>
VStem: 41 89<214 295.5 214 315>
LayerCount: 2
Fore
SplineSet
83 86.5 m 128,-1,1
 41 156 41 156 41 254.5 c 128,-1,2
 41 353 41 353 97 425.5 c 128,-1,3
 153 498 153 498 256 507 c 1,4,-1
 266 612 l 1,5,-1
 340 612 l 1,6,-1
 310 505 l 1,7,8
 376 493 376 493 423 457 c 1,9,-1
 379 399 l 1,10,11
 347 425 347 425 325.5 434 c 128,-1,12
 304 443 304 443 266 443 c 0,13,14
 201 443 201 443 165.5 384 c 128,-1,15
 130 325 130 325 130 267.5 c 128,-1,16
 130 210 130 210 143.5 166 c 128,-1,17
 157 122 157 122 190.5 88.5 c 128,-1,18
 224 55 224 55 266 55 c 128,-1,19
 308 55 308 55 333 65 c 128,-1,20
 358 75 358 75 392 99 c 1,21,-1
 430 35 l 1,22,23
 358 -14 358 -14 273 -14 c 2,24,-1
 258 -14 l 1,25,-1
 248 -118 l 1,26,-1
 176 -118 l 1,27,-1
 207 -6 l 1,28,0
 125 17 125 17 83 86.5 c 128,-1,1
EndSplineSet
EndChar

StartChar: sterling
Encoding: 163 163 100
Width: 581
GlyphClass: 2
Flags: HMW
HStem: 0 69<56 149 243 535 56 149> 359 68<73 149 73 149 243 372> 669 69<312.5 371.5>
VStem: 149 94<69 359 69 359 427 545 545 547>
LayerCount: 2
Fore
SplineSet
535 0 m 1,0,-1
 56 0 l 1,1,-1
 56 69 l 1,2,-1
 149 69 l 1,3,-1
 149 359 l 1,4,-1
 73 359 l 1,5,-1
 73 427 l 1,6,-1
 149 427 l 1,7,-1
 149 545 l 2,8,9
 149 636 149 636 203.5 687 c 128,-1,10
 258 738 258 738 349 738 c 0,11,12
 403 738 403 738 449 712 c 128,-1,13
 495 686 495 686 524 640 c 1,14,-1
 449 598 l 1,15,16
 413 669 413 669 348 669 c 0,17,18
 297 669 297 669 270 634.5 c 128,-1,19
 243 600 243 600 243 547 c 2,20,-1
 243 427 l 1,21,-1
 372 427 l 1,22,-1
 372 359 l 1,23,-1
 243 359 l 1,24,-1
 243 69 l 1,25,-1
 535 69 l 1,26,-1
 535 0 l 1,0,-1
EndSplineSet
EndChar

StartChar: currency
Encoding: 164 164 101
Width: 536
GlyphClass: 2
Flags: HMW
HStem: 114 21G<96 96 436 436> 125 61<244 288> 477 61<244 287.5 244 301> 531 20G<96 96 436 436>
VStem: 72 73<310.5 352.5> 388 72<310.5 352.5>
LayerCount: 2
Fore
SplineSet
47 163 m 1,0,-1
 103 219 l 1,1,2
 72 271 72 271 72 331.5 c 128,-1,3
 72 392 72 392 104 445 c 1,4,-1
 47 502 l 1,5,-1
 96 551 l 1,6,-1
 150 496 l 1,7,8
 200 538 200 538 265.5 538 c 128,-1,9
 331 538 331 538 381 497 c 1,10,-1
 436 551 l 1,11,-1
 460 526 l 1,12,-1
 485 502 l 1,13,-1
 427 445 l 1,14,15
 460 391 460 391 460 331.5 c 128,-1,16
 460 272 460 272 427 218 c 1,17,-1
 485 162 l 1,18,-1
 436 114 l 1,19,-1
 408 140 l 1,20,-1
 382 167 l 1,21,22
 332 125 332 125 266 125 c 128,-1,23
 200 125 200 125 149 167 c 1,24,-1
 123 140 l 1,25,-1
 96 114 l 1,26,-1
 72 138 l 2,27,28
 60 151 60 151 47 163 c 1,0,-1
180 434.5 m 128,-1,30
 145 392 145 392 145 330.5 c 128,-1,31
 145 269 145 269 181 227.5 c 128,-1,32
 217 186 217 186 266.5 186 c 128,-1,33
 316 186 316 186 352 227 c 128,-1,34
 388 268 388 268 388 330.5 c 128,-1,35
 388 393 388 393 353 435 c 128,-1,36
 318 477 318 477 266.5 477 c 128,-1,29
 215 477 215 477 180 434.5 c 128,-1,30
EndSplineSet
EndChar

StartChar: yen
Encoding: 165 165 102
Width: 502
GlyphClass: 2
Flags: HMW
HStem: 0 21G<208 289 208 208> 163 48<62 208 62 208 289 437> 271 47<62 157 62 190 62 157 339 437> 271 225<62 123 32 190 62 62 384 437 32 307>
VStem: 208 81<0 163 0 163 211 246>
LayerCount: 2
Fore
SplineSet
157 318 m 1,0,-1
 32 496 l 1,1,-1
 123 496 l 1,2,-1
 258 307 l 1,3,-1
 384 496 l 1,4,-1
 460 496 l 1,5,-1
 339 318 l 1,6,-1
 437 318 l 1,7,-1
 437 271 l 1,8,-1
 307 271 l 1,9,-1
 289 246 l 1,10,-1
 289 211 l 1,11,-1
 437 211 l 1,12,-1
 437 163 l 1,13,-1
 289 163 l 1,14,-1
 289 0 l 1,15,-1
 208 0 l 1,16,-1
 208 163 l 1,17,-1
 62 163 l 1,18,-1
 62 211 l 1,19,-1
 208 211 l 1,20,-1
 208 246 l 1,21,-1
 190 271 l 1,22,-1
 62 271 l 1,23,-1
 62 318 l 1,24,-1
 157 318 l 1,0,-1
EndSplineSet
EndChar

StartChar: brokenbar
Encoding: 166 166 103
Width: 238
GlyphClass: 2
Flags: HMW
HStem: -115 21G<84 152 84 84> 722 20G<84 152 152 152>
VStem: 84 68<-115 233 393 742>
LayerCount: 2
Fore
SplineSet
152 -115 m 1,0,-1
 84 -115 l 1,1,-1
 84 233 l 1,2,-1
 152 233 l 1,3,-1
 152 -115 l 1,0,-1
152 393 m 1,4,-1
 84 393 l 1,5,-1
 84 742 l 1,6,-1
 152 742 l 1,7,-1
 152 393 l 1,4,-1
EndSplineSet
EndChar

StartChar: section
Encoding: 167 167 104
Width: 497
GlyphClass: 2
Flags: HMW
HStem: -135 59<228 269.5 228 287.5> 673 59<242.5 282.5>
VStem: 53 76<350 390.5> 110 80<570.5 626.5 557.5 638> 326 83<-21.5 36.5 -35.5 52.5> 380 77<229 260>
LayerCount: 2
Fore
SplineSet
53 356 m 0,0,1
 53 406 53 406 83 438 c 128,-1,2
 113 470 113 470 163 483 c 1,3,4
 135 515 135 515 122.5 538 c 128,-1,5
 110 561 110 561 110 596 c 0,6,7
 110 657 110 657 155.5 694.5 c 128,-1,8
 201 732 201 732 264 732 c 0,9,10
 364 732 364 732 418 646 c 1,11,-1
 364 606 l 1,12,13
 317 673 317 673 261 673 c 0,14,15
 232 673 232 673 211 654 c 128,-1,16
 190 635 190 635 190 607.5 c 128,-1,17
 190 580 190 580 217.5 548.5 c 128,-1,18
 245 517 245 517 284.5 485.5 c 128,-1,19
 324 454 324 454 363 420.5 c 128,-1,20
 402 387 402 387 429.5 345 c 128,-1,21
 457 303 457 303 457 258.5 c 128,-1,22
 457 214 457 214 429.5 180.5 c 128,-1,23
 402 147 402 147 356 132 c 1,24,25
 409 72 409 72 409 8 c 128,-1,26
 409 -56 409 -56 361 -95.5 c 128,-1,27
 313 -135 313 -135 253.5 -135 c 0,28,29
 141.095238095 -135 141.095238095 -135 71 -43 c 1,30,-1
 131 4 l 1,31,-1
 154 -24 l 1,32,33
 200 -76 200 -76 247 -76 c 0,34,35
 281 -76 281 -76 303.5 -54.5 c 128,-1,36
 326 -33 326 -33 326 -4 c 128,-1,37
 326 25 326 25 306 54 c 128,-1,38
 286 83 286 83 255.5 109.5 c 128,-1,39
 225 136 225 136 189.5 167.5 c 128,-1,40
 154 199 154 199 123.5 228 c 128,-1,41
 93 257 93 257 73 291 c 128,-1,42
 53 325 53 325 53 356 c 0,0,1
129 372 m 0,43,44
 129 323 129 323 263 210 c 1,45,-1
 310 172 l 1,46,47
 336 176 336 176 358 196 c 128,-1,48
 380 216 380 216 380 242 c 0,49,50
 380 295 380 295 328 339 c 2,51,-1
 208 441 l 1,52,53
 181 441 181 441 155 421 c 128,-1,54
 129 401 129 401 129 372 c 0,43,44
EndSplineSet
EndChar

StartChar: dieresis
Encoding: 168 168 105
Width: 276
GlyphClass: 2
Flags: HMW
HStem: 567 114<40.5 71.5 203.5 234.5>
VStem: 0 113<608.5 639.5> 163 113<608.5 639.5>
LayerCount: 2
Fore
SplineSet
0 624 m 128,-1,1
 0 647 0 647 16.5 664 c 128,-1,2
 33 681 33 681 56.5 681 c 0,3,4
 80 681 80 681 96.5 664.5 c 128,-1,5
 113 648 113 648 113 624.5 c 0,6,7
 113 601 113 601 96 584 c 128,-1,8
 79 567 79 567 56 567 c 128,-1,9
 33 567 33 567 16.5 584 c 128,-1,0
 0 601 0 601 0 624 c 128,-1,1
163 624 m 128,-1,11
 163 647 163 647 179.5 664 c 128,-1,12
 196 681 196 681 219.5 681 c 0,13,14
 243 681 243 681 259.5 664.5 c 128,-1,15
 276 648 276 648 276 624.5 c 0,16,17
 276 601 276 601 259 584 c 128,-1,18
 242 567 242 567 219 567 c 128,-1,19
 196 567 196 567 179.5 584 c 128,-1,10
 163 601 163 601 163 624 c 128,-1,11
EndSplineSet
EndChar

StartChar: copyright
Encoding: 169 169 106
Width: 635
GlyphClass: 2
Flags: HMW
HStem: -22 39<252 380 252 390.5> 88 46<290 337.5 290 340.5> 370 44<288 334> 483 39<252 380>
VStem: 44 39<186 314 186 324.5> 171 61<229.5 281 229.5 297.5> 549 39<186 314>
LayerCount: 2
Fore
SplineSet
44 250 m 128,-1,1
 44 362 44 362 124 442 c 128,-1,2
 204 522 204 522 316 522 c 128,-1,3
 428 522 428 522 508 442 c 128,-1,4
 588 362 588 362 588 250 c 128,-1,5
 588 138 588 138 508 58 c 128,-1,6
 428 -22 428 -22 316 -22 c 128,-1,7
 204 -22 204 -22 124 58 c 128,-1,0
 44 138 44 138 44 250 c 128,-1,1
83 250 m 128,-1,9
 83 154 83 154 151.5 85.5 c 128,-1,10
 220 17 220 17 316 17 c 128,-1,11
 412 17 412 17 480.5 85.5 c 128,-1,12
 549 154 549 154 549 250 c 128,-1,13
 549 346 549 346 480.5 414.5 c 128,-1,14
 412 483 412 483 316 483 c 128,-1,15
 220 483 220 483 151.5 414.5 c 128,-1,8
 83 346 83 346 83 250 c 128,-1,9
210.5 134.5 m 128,-1,17
 171 181 171 181 171 251.5 c 128,-1,18
 171 322 171 322 213 368 c 128,-1,19
 255 414 255 414 326 414 c 0,20,21
 372 414 372 414 421 381 c 1,22,-1
 391 343 l 1,23,24
 359 370 359 370 318 370 c 128,-1,25
 277 370 277 370 254.5 334.5 c 128,-1,26
 232 299 232 299 232 254.5 c 128,-1,27
 232 210 232 210 255 172 c 128,-1,28
 278 134 278 134 319 134 c 128,-1,29
 360 134 360 134 400 162 c 1,30,-1
 426 119 l 1,31,32
 373 88 373 88 311.5 88 c 128,-1,16
 250 88 250 88 210.5 134.5 c 128,-1,17
EndSplineSet
EndChar

StartChar: ordfeminine
Encoding: 170 170 107
Width: 315
GlyphClass: 2
Flags: HMW
HStem: 279 50<40 259 40 259> 387 57<108 117.5> 387 205<74.5 186> 676 54<125.5 159.5>
VStem: 10 66<466.5 506.5 466.5 524> 186 63<523 537 537 537 592 619 619 620>
LayerCount: 2
Fore
SplineSet
35.5 411 m 128,-1,1
 10 435 10 435 10 478 c 128,-1,2
 10 521 10 521 39.5 548.5 c 128,-1,3
 69 576 69 576 105 584 c 128,-1,4
 141 592 141 592 186 592 c 1,5,-1
 186 619 l 2,6,7
 186 676 186 676 141 676 c 0,8,9
 118 676 118 676 93 664 c 128,-1,10
 68 652 68 652 52 634 c 1,11,-1
 19 684 l 1,12,13
 74 730 74 730 145 730 c 0,14,15
 249 730 249 730 249 620 c 2,16,-1
 249 467 l 2,17,18
 249 444 249 444 256 444 c 1,19,-1
 290 454 l 1,20,-1
 305 410 l 1,21,22
 285 402 285 402 274.5 397.5 c 0,23,24
 252.333333333 388 252.333333333 388 236 388 c 0,25,26
 202 388 202 388 190 425 c 1,27,28
 150 387 150 387 105.5 387 c 128,-1,0
 61 387 61 387 35.5 411 c 128,-1,1
259 279 m 1,29,-1
 40 279 l 1,30,-1
 40 329 l 1,31,-1
 259 329 l 1,32,-1
 259 279 l 1,29,-1
86.5 511 m 0,33,34
 76 498 76 498 76 480 c 128,-1,35
 76 462 76 462 88.5 453 c 128,-1,36
 101 444 101 444 124 444 c 128,-1,37
 147 444 147 444 166.5 469 c 128,-1,38
 186 494 186 494 186 523 c 2,39,-1
 186 537 l 1,40,41
 107.5 537 107.5 537 86.5 511 c 0,33,34
EndSplineSet
EndChar

StartChar: guillemotleft
Encoding: 171 171 108
Width: 466
GlyphClass: 2
Flags: HMW
HStem: 173 21G<203 203 352 352> 479 20G<199 199 348 348>
LayerCount: 2
Fore
SplineSet
203 173 m 1,0,-1
 55 336 l 1,1,-1
 199 499 l 1,2,-1
 260 488 l 1,3,-1
 144 336 l 1,4,-1
 263 182 l 1,5,-1
 203 173 l 1,0,-1
352 173 m 1,6,-1
 203 336 l 1,7,-1
 348 499 l 1,8,-1
 409 488 l 1,9,-1
 293 336 l 1,10,-1
 411 182 l 1,11,-1
 352 173 l 1,6,-1
EndSplineSet
EndChar

StartChar: logicalnot
Encoding: 172 172 109
Width: 638
GlyphClass: 2
Flags: HMW
HStem: 89 250<504 565 504 504> 279 60<72 504 72 565>
VStem: 504 61<89 279 279 279>
LayerCount: 2
Fore
SplineSet
504 279 m 1,0,-1
 72 279 l 1,1,-1
 72 339 l 1,2,-1
 565 339 l 1,3,-1
 565 89 l 1,4,-1
 504 89 l 1,5,-1
 504 279 l 1,0,-1
EndSplineSet
EndChar

StartChar: uni00AD
Encoding: 173 173 110
Width: 636
GlyphClass: 2
Flags: HMW
HStem: 216 61<72 564 72 564>
LayerCount: 2
Fore
SplineSet
564 216 m 1,0,-1
 72 216 l 1,1,-1
 72 277 l 1,2,-1
 564 277 l 1,3,-1
 564 216 l 1,0,-1
EndSplineSet
EndChar

StartChar: registered
Encoding: 174 174 111
Width: 459
GlyphClass: 2
Flags: HMW
HStem: 405 33<185.5 277 185.5 285> 405 220<200 224 224 236.5 200 285> 492 225<150 200 150 238 150 283 150 343> 768 33<185.5 277>
VStem: 33 33<557.5 648.5 557.5 657.5> 150 50<492 588 625 680> 266 50<643.5 663.5> 397 33<557.5 648.5>
LayerCount: 2
Fore
SplineSet
33 603 m 128,-1,1
 33 685 33 685 91 743 c 128,-1,2
 149 801 149 801 230.5 801 c 0,3,4
 312 801 312 801 371 742.5 c 128,-1,5
 430 684 430 684 430 603 c 128,-1,6
 430 522 430 522 371 463.5 c 128,-1,7
 312 405 312 405 230.5 405 c 0,8,9
 149 405 149 405 91 463 c 128,-1,0
 33 521 33 521 33 603 c 128,-1,1
66 603 m 128,-1,11
 66 535 66 535 114.5 486.5 c 128,-1,12
 163 438 163 438 231.5 438 c 0,13,14
 300 438 300 438 348.5 486.5 c 128,-1,15
 397 535 397 535 397 603 c 128,-1,16
 397 671 397 671 348.5 719.5 c 128,-1,17
 300 768 300 768 231.5 768 c 0,18,19
 163 768 163 768 114.5 719.5 c 128,-1,10
 66 671 66 671 66 603 c 128,-1,11
200 492 m 1,20,-1
 150 492 l 1,21,-1
 150 717 l 1,22,-1
 238 717 l 2,23,24
 316 717 316 717 316 653 c 0,25,26
 316 613 316 613 270 596 c 1,27,-1
 343 492 l 1,28,-1
 283 492 l 1,29,-1
 218 588 l 1,30,-1
 200 588 l 1,31,-1
 200 492 l 1,20,-1
200 680 m 1,32,-1
 200 625 l 1,33,-1
 224 625 l 2,34,35
 266 625 266 625 266 655 c 0,36,37
 266 680 266 680 231 680 c 2,38,-1
 200 680 l 1,32,-1
EndSplineSet
EndChar

StartChar: overscore
Encoding: 175 175 112
Width: 274
GlyphClass: 2
Flags: HMW
HStem: 596 64<-15 289 -15 289>
LayerCount: 2
Fore
SplineSet
289 596 m 1,0,-1
 -15 596 l 1,1,-1
 -15 660 l 1,2,-1
 289 660 l 1,3,-1
 289 596 l 1,0,-1
EndSplineSet
EndChar

StartChar: degree
Encoding: 176 176 113
Width: 388
GlyphClass: 2
Flags: HMW
HStem: 443 60<168.5 219.5 168.5 235.5> 683 60<168.5 219.5>
VStem: 44 62<568.5 617.5 568.5 634.5> 281 63<568.5 617.5>
LayerCount: 2
Fore
SplineSet
44 593 m 128,-1,1
 44 655 44 655 88 699 c 128,-1,2
 132 743 132 743 194 743 c 128,-1,3
 256 743 256 743 300 699 c 128,-1,4
 344 655 344 655 344 593 c 128,-1,5
 344 531 344 531 300 487 c 128,-1,6
 256 443 256 443 194 443 c 128,-1,7
 132 443 132 443 88 487 c 128,-1,0
 44 531 44 531 44 593 c 128,-1,1
106 593 m 128,-1,9
 106 556 106 556 131 529.5 c 128,-1,10
 156 503 156 503 194 503 c 128,-1,11
 232 503 232 503 256.5 529.5 c 128,-1,12
 281 556 281 556 281 593 c 128,-1,13
 281 630 281 630 256.5 656.5 c 128,-1,14
 232 683 232 683 194 683 c 128,-1,15
 156 683 156 683 131 656.5 c 128,-1,8
 106 630 106 630 106 593 c 128,-1,9
EndSplineSet
EndChar

StartChar: plusminus
Encoding: 177 177 114
Width: 632
GlyphClass: 2
Flags: HMW
HStem: -1 70<68 567 68 567> 262 70<68 282 68 282 352 567> 476 20G<282 352 352 352>
VStem: 282 70<97 262 97 262 332 496>
LayerCount: 2
Fore
SplineSet
567 -1 m 1,0,-1
 68 -1 l 1,1,-1
 68 69 l 1,2,-1
 567 69 l 1,3,-1
 567 -1 l 1,0,-1
282 262 m 1,4,-1
 68 262 l 1,5,-1
 68 332 l 1,6,-1
 282 332 l 1,7,-1
 282 496 l 1,8,-1
 352 496 l 1,9,-1
 352 332 l 1,10,-1
 567 332 l 1,11,-1
 567 262 l 1,12,-1
 352 262 l 1,13,-1
 352 97 l 1,14,-1
 282 97 l 1,15,-1
 282 262 l 1,4,-1
EndSplineSet
EndChar

StartChar: uni00B2
Encoding: 178 178 115
Width: 457
GlyphClass: 2
Flags: HMW
HStem: 434 68<171 386> 870 58<219 256.5>
VStem: 310 84<763.5 816.5>
LayerCount: 2
Fore
SplineSet
386 434 m 1,0,-1
 58 434 l 1,1,-1
 58 472 l 1,2,3
 126 526 126 526 184 585 c 0,4,5
 310 711 310 711 310 795 c 0,6,7
 310 828 310 828 289 849 c 128,-1,8
 268 870 268 870 229 870 c 0,9,10
 190 870 190 870 142 843 c 0,11,12
 121 832 121 832 105 817 c 1,13,-1
 73 864 l 1,14,15
 92 882 92 882 119 896 c 0,16,17
 181 928 181 928 251.5 928 c 0,18,19
 322 928 322 928 358 890.5 c 128,-1,20
 394 853 394 853 394 801 c 0,21,22
 394 707 394 707 282 595 c 0,23,24
 232.5 545.5 232.5 545.5 171 502 c 1,25,-1
 405 502 l 1,26,-1
 386 434 l 1,0,-1
EndSplineSet
EndChar

StartChar: uni00B3
Encoding: 179 179 116
Width: 457
GlyphClass: 2
Flags: HMW
HStem: 423 51<63 73> 679 249<214 226> 870 58<214 246.5>
VStem: 295 77<809 838.5> 314 58 314 80<578 638>
LayerCount: 2
Fore
SplineSet
200 679 m 1,0,-1
 175 678 l 2,1,2
 172 677 172 677 165 677 c 1,3,-1
 157 724 l 1,4,5
 295 752 295 752 295 823 c 0,6,7
 295 870 295 870 230.5 870 c 128,-1,8
 166 870 166 870 99 820 c 1,9,-1
 67 866 l 1,10,11
 101 893 101 893 150 910.5 c 128,-1,12
 199 928 199 928 248 928 c 128,-1,13
 297 928 297 928 334.5 907 c 128,-1,14
 372 886 372 886 372 842 c 128,-1,15
 372 798 372 798 344 770 c 128,-1,16
 316 742 316 742 277 728 c 1,17,18
 327 722 327 722 360.5 692 c 128,-1,19
 394 662 394 662 394 614 c 0,20,21
 394 562.909090909 394 562.909090909 356 518 c 0,22,23
 310.140972795 463.802967848 310.140972795 463.802967848 206.5 439 c 0,24,25
 148 425 148 425 73 423 c 1,26,-1
 63 474 l 1,27,28
 184 480 184 480 249 515.5 c 128,-1,29
 314 551 314 551 314 606 c 0,30,31
 314 679 314 679 200 679 c 1,0,-1
EndSplineSet
EndChar

StartChar: acute
Encoding: 180 180 117
Width: 281
GlyphClass: 2
Flags: HMW
HStem: 571 21G<31 109 31 31> 703 20G<127 249 249 249>
LayerCount: 2
Fore
SplineSet
109 571 m 1,0,-1
 31 571 l 1,1,-1
 127 723 l 1,2,-1
 249 723 l 1,3,-1
 109 571 l 1,0,-1
EndSplineSet
EndChar

StartChar: mu
Encoding: 181 181 118
AltUni2: 0003bc.ffffffff.0
Width: 555
GlyphClass: 2
Flags: HMW
HStem: -187 248<81 270 81 270> -13 74<221 258> -9 21G<434.5 471> 477 20G<68 163 163 163 370 465 465 465>
VStem: 81 85<-187 1 -187 438> 383 82<127 438 438 439>
LayerCount: 2
Fore
SplineSet
81 438 m 1,0,-1
 68 497 l 1,1,-1
 163 497 l 1,2,-1
 163 191 l 2,3,4
 163 97.8 163 97.8 201.5 72.5 c 0,5,6
 219 61 219 61 249.5 61 c 128,-1,7
 280 61 280 61 318 80.5 c 128,-1,8
 356 100 356 100 383 127 c 1,9,-1
 383 438 l 1,10,-1
 370 497 l 1,11,-1
 465 497 l 1,12,-1
 465 97 l 2,13,14
 465 77 465 77 469.5 68 c 128,-1,15
 474 59 474 59 487 59 c 0,16,17
 487.5 59 487.5 59 489.75 59.75 c 128,-1,18
 492 60.5 492 60.5 494 61 c 2,19,-1
 510 66 l 1,20,-1
 525 70 l 2,21,22
 532.5 71.5 532.5 71.5 534 73 c 1,23,-1
 551 21 l 1,24,25
 481 -9 481 -9 455 -9 c 0,26,27
 397 -9 397 -9 385 59 c 1,28,29
 356 30 356 30 312.5 8.5 c 128,-1,30
 269 -13 269 -13 234.5 -13 c 128,-1,31
 200 -13 200 -13 166 1 c 1,32,-1
 166 -187 l 1,33,-1
 81 -187 l 1,34,-1
 81 438 l 1,0,-1
EndSplineSet
EndChar

StartChar: paragraph
Encoding: 182 182 119
Width: 500
GlyphClass: 2
Flags: HMW
HStem: -158 54<157.5 188.5 157.5 194.5> 10 54<157.5 173> 664 54<284 284 284 345 399 455 399 399>
VStem: 40 244<466 588> 62 54<-62.5 -31.5 -62.5 -17> 229 55<-47 332 332 332> 345 54<10 664>
LayerCount: 2
Fore
SplineSet
40 520 m 0,0,1
 40 618 40 618 101.5 668 c 128,-1,2
 163 718 163 718 263 718 c 2,3,-1
 455 718 l 1,4,-1
 455 664 l 1,5,-1
 399 664 l 1,6,-1
 399 10 l 2,7,8
 399 -35 399 -35 366 -68 c 128,-1,9
 333 -101 333 -101 288 -101 c 0,10,11
 285 -101 285 -101 271 -99 c 1,12,13
 239 -158 239 -158 173 -158 c 0,14,15
 128 -158 128 -158 95 -125 c 128,-1,16
 62 -92 62 -92 62 -47 c 128,-1,17
 62 -2 62 -2 95 31 c 128,-1,18
 128 64 128 64 173 64 c 1,19,-1
 173 10 l 1,20,21
 150 10 150 10 133 -7 c 128,-1,22
 116 -24 116 -24 116 -47 c 128,-1,23
 116 -70 116 -70 133 -87 c 128,-1,24
 150 -104 150 -104 173 -104 c 128,-1,25
 196 -104 196 -104 212.5 -87 c 128,-1,26
 229 -70 229 -70 229 -47 c 2,27,-1
 229 332 l 1,28,29
 150 332 150 332 95 386 c 128,-1,30
 40 440 40 440 40 520 c 0,0,1
284 664 m 1,31,-1
 284 -47 l 1,32,-1
 288 -47 l 2,33,34
 311 -47 311 -47 328 -30 c 128,-1,35
 345 -13 345 -13 345 10 c 2,36,-1
 345 664 l 1,37,-1
 284 664 l 1,31,-1
EndSplineSet
EndChar

StartChar: middot
Encoding: 183 183 120
Width: 293
GlyphClass: 2
Flags: HMW
HStem: 195 132<129 165>
VStem: 81 132<242 278 242 278.5>
LayerCount: 2
Fore
SplineSet
100.5 214 m 128,-1,1
 81 233 81 233 81 260.5 c 128,-1,2
 81 288 81 288 100 307.5 c 128,-1,3
 119 327 119 327 146.5 327 c 128,-1,4
 174 327 174 327 193.5 307 c 128,-1,5
 213 287 213 287 213 260 c 128,-1,6
 213 233 213 233 193.5 214 c 128,-1,7
 174 195 174 195 147 195 c 128,-1,0
 120 195 120 195 100.5 214 c 128,-1,1
EndSplineSet
EndChar

StartChar: cedilla
Encoding: 184 184 121
Width: 280
GlyphClass: 2
Flags: HMW
HStem: -220 51<110.5 131.5 110.5 146.5> -95 49<79 143> -11 20G<114 161 161 161>
VStem: 164 83<-141.5 -118.5>
LayerCount: 2
Fore
SplineSet
32 -192 m 1,0,-1
 56 -146 l 1,1,2
 100 -169 100 -169 119 -169 c 128,-1,3
 138 -169 138 -169 151 -158 c 128,-1,4
 164 -147 164 -147 164 -130 c 0,5,6
 164 -95 164 -95 126 -95 c 2,7,-1
 79 -95 l 2,8,9
 66 -95 66 -95 66 -77 c 1,10,-1
 114 9 l 1,11,-1
 161 9 l 1,12,-1
 132 -46 l 1,13,-1
 143 -46 l 2,14,15
 184 -46 184 -46 215.5 -66 c 128,-1,16
 247 -86 247 -86 247 -127 c 0,17,18
 247 -220 247 -220 117 -220 c 0,19,20
 76 -220 76 -220 32 -192 c 1,0,-1
EndSplineSet
EndChar

StartChar: uni00B9
Encoding: 185 185 122
Width: 457
GlyphClass: 2
Flags: HMW
HStem: 434 59<91 215 295 395 91 215> 898 20G<245 295 295 295>
VStem: 215 80<493 838 838 838>
LayerCount: 2
Fore
SplineSet
86 828 m 1,0,-1
 76 852 l 1,1,2
 162 881 162 881 245 918 c 1,3,-1
 295 918 l 1,4,-1
 295 493 l 1,5,-1
 395 493 l 1,6,-1
 395 434 l 1,7,-1
 91 434 l 1,8,-1
 91 493 l 1,9,-1
 215 493 l 1,10,-1
 215 838 l 1,11,-1
 94 803 l 1,12,-1
 86 828 l 1,0,-1
EndSplineSet
EndChar

StartChar: ordmasculine
Encoding: 186 186 123
Width: 332
GlyphClass: 2
Flags: HMW
HStem: 279 50<57 276 57 276> 395 52<136.5 196.5 136.5 215.5> 685 52<134.5 196.5>
VStem: 13 69<541.5 592 541.5 611.5> 249 70<540.5 591.5>
LayerCount: 2
Fore
SplineSet
54 444.5 m 128,-1,1
 13 494 13 494 13 565.5 c 128,-1,2
 13 637 13 637 54.5 687 c 128,-1,3
 96 737 96 737 166.5 737 c 128,-1,4
 237 737 237 737 278 687.5 c 128,-1,5
 319 638 319 638 319 566 c 128,-1,6
 319 494 319 494 278 444.5 c 128,-1,7
 237 395 237 395 166 395 c 128,-1,0
 95 395 95 395 54 444.5 c 128,-1,1
276 279 m 1,8,-1
 57 279 l 1,9,-1
 57 329 l 1,10,-1
 276 329 l 1,11,-1
 276 279 l 1,8,-1
102.5 648.5 m 128,-1,13
 82 612 82 612 82 567.5 c 128,-1,14
 82 523 82 523 104 485 c 128,-1,15
 126 447 126 447 167 447 c 128,-1,16
 208 447 208 447 228.5 484 c 128,-1,17
 249 521 249 521 249 566 c 128,-1,18
 249 611 249 611 228.5 648 c 128,-1,19
 208 685 208 685 165.5 685 c 128,-1,12
 123 685 123 685 102.5 648.5 c 128,-1,13
EndSplineSet
EndChar

StartChar: guillemotright
Encoding: 187 187 124
Width: 466
GlyphClass: 2
Flags: HMW
HStem: 171 21G<114 114 263 263> 477 20G<118 118 267 267>
LayerCount: 2
Fore
SplineSet
114 171 m 1,0,-1
 55 179 l 1,1,-1
 173 334 l 1,2,-1
 57 485 l 1,3,-1
 118 497 l 1,4,-1
 263 334 l 1,5,-1
 114 171 l 1,0,-1
263 171 m 1,6,-1
 203 179 l 1,7,-1
 322 334 l 1,8,-1
 206 485 l 1,9,-1
 267 497 l 1,10,-1
 411 334 l 1,11,-1
 263 171 l 1,6,-1
EndSplineSet
EndChar

StartChar: onequarter
Encoding: 188 188 125
Width: 1094
GlyphClass: 2
Flags: HMW
HStem: -22 21G<359 421 359 359> 0 21G<828 908 828 828> 110 59<684 828 684 828 908 966> 248 59<91 215 295 395 91 215> 712 20G<245 295 295 295> 733 20G<667 730 730 730>
VStem: 215 80<307 652 652 652> 828 80<0 110 0 110 169 289 289 316 316 316>
LayerCount: 2
Fore
SplineSet
86 642 m 1,0,-1
 76 666 l 1,1,2
 162 695 162 695 245 732 c 1,3,-1
 295 732 l 1,4,-1
 295 307 l 1,5,-1
 395 307 l 1,6,-1
 395 248 l 1,7,-1
 91 248 l 1,8,-1
 91 307 l 1,9,-1
 215 307 l 1,10,-1
 215 652 l 1,11,-1
 94 617 l 1,12,-1
 86 642 l 1,0,-1
421 -22 m 1,13,-1
 359 -22 l 1,14,-1
 667 753 l 1,15,-1
 730 753 l 1,16,-1
 421 -22 l 1,13,-1
828 110 m 1,17,-1
 599 110 l 1,18,-1
 599 150 l 1,19,-1
 828 483 l 1,20,-1
 908 483 l 1,21,-1
 908 169 l 1,22,-1
 983 169 l 1,23,-1
 966 110 l 1,24,-1
 908 110 l 1,25,-1
 908 0 l 1,26,-1
 828 0 l 1,27,-1
 828 110 l 1,17,-1
764 286 m 1,28,-1
 684 169 l 1,29,-1
 828 169 l 1,30,-1
 828 316 l 1,31,-1
 830 346 l 1,32,-1
 830 375 l 1,33,34
 831 384 831 384 831 398 c 1,35,36
 815 368 815 368 800 344 c 2,37,-1
 764 286 l 1,28,-1
EndSplineSet
EndChar

StartChar: onehalf
Encoding: 189 189 126
Width: 1113
GlyphClass: 2
Flags: HMW
HStem: -22 21G<359 421 359 359> 0 72<797 1003> 248 59<91 215 295 395 91 215> 431 63<831.5 872.5> 712 20G<245 295 295 295> 733 20G<667 730 730 730>
VStem: 215 80<307 652 652 652> 927 87<317.5 379.5>
LayerCount: 2
Fore
SplineSet
86 642 m 1,0,-1
 76 666 l 1,1,2
 162 695 162 695 245 732 c 1,3,-1
 295 732 l 1,4,-1
 295 307 l 1,5,-1
 395 307 l 1,6,-1
 395 248 l 1,7,-1
 91 248 l 1,8,-1
 91 307 l 1,9,-1
 215 307 l 1,10,-1
 215 652 l 1,11,-1
 94 617 l 1,12,-1
 86 642 l 1,0,-1
421 -22 m 1,13,-1
 359 -22 l 1,14,-1
 667 753 l 1,15,-1
 730 753 l 1,16,-1
 421 -22 l 1,13,-1
1003 0 m 1,17,-1
 675 0 l 1,18,-1
 675 38 l 1,19,20
 676 38 676 38 695 54 c 2,21,-1
 736 90 l 2,22,23
 810 154 810 154 868.5 228.5 c 128,-1,24
 927 303 927 303 927 358 c 0,25,26
 927 391 927 391 905.5 411 c 128,-1,27
 884 431 884 431 847 431 c 128,-1,28
 810 431 810 431 773.5 413 c 128,-1,29
 737 395 737 395 723 381 c 1,30,-1
 691 429 l 1,31,-1
 714 446 l 1,32,33
 785 494 785 494 863 494 c 128,-1,34
 941 494 941 494 977.5 457 c 128,-1,35
 1014 420 1014 420 1014 370 c 128,-1,36
 1014 320 1014 320 985.5 268.5 c 128,-1,37
 957 217 957 217 915.5 175.5 c 0,38,39
 844.5 104.5 844.5 104.5 797 72 c 1,40,-1
 1022 72 l 1,41,42
 1018 60 1018 60 1012 36 c 2,43,-1
 1003 0 l 1,17,-1
EndSplineSet
EndChar

StartChar: threequarters
Encoding: 190 190 127
Width: 1076
GlyphClass: 2
Flags: HMW
HStem: -22 21G<332 394 332 332> 0 21G<802 882 802 802> 110 59<657 802 657 802 882 940> 236 51<63 73> 492 249<214 225> 683 58<214 245.5> 733 20G<640 702 702 702>
VStem: 292 80<622 652.5> 313 81<391 451> 802 80<0 110 0 110 169 289 289 316 316 316>
LayerCount: 2
Fore
SplineSet
199 492 m 1,0,-1
 175 491 l 2,1,2
 172 490 172 490 165 490 c 1,3,-1
 157 537 l 1,4,5
 292 564 292 564 292 637 c 0,6,7
 292 683 292 683 225 683 c 0,8,9
 195 683 195 683 159 668 c 128,-1,10
 123 653 123 653 99 633 c 1,11,-1
 67 679 l 1,12,13
 101 706 101 706 150 723.5 c 128,-1,14
 199 741 199 741 248 741 c 128,-1,15
 297 741 297 741 334.5 720 c 128,-1,16
 372 699 372 699 372 655 c 128,-1,17
 372 611 372 611 343.5 583 c 128,-1,18
 315 555 315 555 276 541 c 1,19,20
 327 535 327 535 360.5 505 c 128,-1,21
 394 475 394 475 394 427 c 0,22,23
 394 375.909090909 394 375.909090909 356 331 c 0,24,25
 310.140972795 276.802967848 310.140972795 276.802967848 206.5 252 c 0,26,27
 148 238 148 238 73 236 c 1,28,-1
 63 287 l 1,29,30
 183 293 183 293 248 328.5 c 128,-1,31
 313 364 313 364 313 419 c 0,32,33
 313 492 313 492 199 492 c 1,0,-1
394 -22 m 1,34,-1
 332 -22 l 1,35,-1
 640 753 l 1,36,-1
 702 753 l 1,37,-1
 394 -22 l 1,34,-1
802 110 m 1,38,-1
 573 110 l 1,39,-1
 573 150 l 1,40,-1
 801 483 l 1,41,-1
 882 483 l 1,42,-1
 882 169 l 1,43,-1
 957 169 l 1,44,-1
 948 140 l 1,45,-1
 940 110 l 1,46,-1
 882 110 l 1,47,-1
 882 0 l 1,48,-1
 802 0 l 1,49,-1
 802 110 l 1,38,-1
738 287 m 1,50,-1
 657 169 l 1,51,-1
 802 169 l 1,52,-1
 802 316 l 1,53,-1
 804 346 l 1,54,-1
 804 375 l 1,55,56
 805 384 805 384 805 398 c 1,57,58
 783 355 783 355 738 287 c 1,50,-1
EndSplineSet
EndChar

StartChar: questiondown
Encoding: 191 191 128
Width: 431
GlyphClass: 2
Flags: HMW
HStem: -126 61<227.5 270.5> 478 132<231 267 231 267.5>
VStem: 48 88<13.5 84> 183 132<526 562> 213 65<257 380 185 380>
LayerCount: 2
Fore
SplineSet
48 43 m 0,0,1
 48 103 48 103 89 155.5 c 128,-1,2
 130 208 130 208 189 226 c 0,3,4
 206 232 206 232 209.5 236.5 c 128,-1,5
 213 241 213 241 213 257 c 2,6,-1
 213 380 l 1,7,-1
 278 380 l 1,8,-1
 278 185 l 1,9,10
 219 174 219 174 177.5 139.5 c 128,-1,11
 136 105 136 105 136 51 c 0,12,13
 136 -3 136 -3 172.5 -34 c 128,-1,14
 209 -65 209 -65 266 -65 c 0,15,16
 323 -65 323 -65 357 -37 c 1,17,-1
 384 -94 l 1,18,19
 341 -126 341 -126 255.5 -126 c 0,20,21
 170 -126 170 -126 109 -81.5 c 128,-1,22
 48 -37 48 -37 48 43 c 0,0,1
183 544 m 128,-1,24
 183 571 183 571 202.5 590.5 c 128,-1,25
 222 610 222 610 249 610 c 128,-1,26
 276 610 276 610 295.5 590.5 c 128,-1,27
 315 571 315 571 315 543.5 c 0,28,29
 315 516 315 516 296 497 c 128,-1,30
 277 478 277 478 249.5 478 c 0,31,32
 222 478 222 478 202.5 497.5 c 128,-1,23
 183 517 183 517 183 544 c 128,-1,24
EndSplineSet
EndChar

StartChar: Agrave
Encoding: 192 192 129
Width: 631
GlyphClass: 2
Flags: HMW
HStem: 0 21G<18 102 18 18 511 511 511 614> 227 68<212 404 212 429 186 404> 853 20G<155 278 278 278>
LayerCount: 2
Fore
SplineSet
102 0 m 1,0,-1
 18 0 l 1,1,-1
 271 670 l 1,2,-1
 362 670 l 1,3,-1
 614 0 l 1,4,-1
 511 0 l 1,5,-1
 429 227 l 1,6,-1
 186 227 l 1,7,-1
 102 0 l 1,0,-1
295 721 m 1,8,-1
 155 873 l 1,9,-1
 278 873 l 1,10,-1
 373 721 l 1,11,-1
 295 721 l 1,8,-1
308 555 m 1,12,-1
 212 295 l 1,13,-1
 404 295 l 1,14,-1
 308 555 l 1,12,-1
EndSplineSet
EndChar

StartChar: Aacute
Encoding: 193 193 130
Width: 631
GlyphClass: 2
Flags: HMW
HStem: 0 21G<23 107 23 23 516 516 516 619> 227 68<217 409 217 434 191 409> 847 20G<372 494 494 494>
LayerCount: 2
Fore
SplineSet
107 0 m 1,0,-1
 23 0 l 1,1,-1
 276 670 l 1,2,-1
 367 670 l 1,3,-1
 619 0 l 1,4,-1
 516 0 l 1,5,-1
 434 227 l 1,6,-1
 191 227 l 1,7,-1
 107 0 l 1,0,-1
313 555 m 1,8,-1
 217 295 l 1,9,-1
 409 295 l 1,10,-1
 313 555 l 1,8,-1
354 716 m 1,11,-1
 276 716 l 1,12,-1
 372 867 l 1,13,-1
 494 867 l 1,14,-1
 354 716 l 1,11,-1
EndSplineSet
EndChar

StartChar: Acircumflex
Encoding: 194 194 131
Width: 631
GlyphClass: 2
Flags: HMW
HStem: 0 21G<18 102 18 18 511 511 511 614> 227 68<212 404 212 429 186 404> 831 20G<273 356 356 356>
LayerCount: 2
Fore
SplineSet
102 0 m 1,0,-1
 18 0 l 1,1,-1
 271 670 l 1,2,-1
 362 670 l 1,3,-1
 614 0 l 1,4,-1
 511 0 l 1,5,-1
 429 227 l 1,6,-1
 186 227 l 1,7,-1
 102 0 l 1,0,-1
238 696 m 1,8,-1
 171 696 l 1,9,-1
 273 851 l 1,10,-1
 356 851 l 1,11,-1
 462 696 l 1,12,-1
 392 696 l 1,13,-1
 314 778 l 1,14,-1
 238 696 l 1,8,-1
308 555 m 1,15,-1
 212 295 l 1,16,-1
 404 295 l 1,17,-1
 308 555 l 1,15,-1
EndSplineSet
EndChar

StartChar: Atilde
Encoding: 195 195 132
Width: 631
GlyphClass: 2
Flags: HMW
HStem: 0 21G<18 102 18 18 511 511 511 614> 227 68<212 404 212 429 186 404> 740 34 740 73<240.5 273.5>
LayerCount: 2
Fore
SplineSet
102 0 m 1,0,-1
 18 0 l 1,1,-1
 271 670 l 1,2,-1
 362 670 l 1,3,-1
 614 0 l 1,4,-1
 511 0 l 1,5,-1
 429 227 l 1,6,-1
 186 227 l 1,7,-1
 102 0 l 1,0,-1
215 713 m 1,8,-1
 165 713 l 1,9,10
 172 754 172 754 196.5 783.5 c 128,-1,11
 221 813 221 813 254.5 813 c 128,-1,12
 288 813 288 813 335 793.5 c 128,-1,13
 382 774 382 774 404 774 c 128,-1,14
 426 774 426 774 435 800 c 1,15,-1
 483 800 l 1,16,17
 479 761 479 761 457 731 c 128,-1,18
 435 701 435 701 402 701 c 128,-1,19
 369 701 369 701 321 720.5 c 128,-1,20
 273 740 273 740 255 740 c 0,21,22
 222.363636364 740 222.363636364 740 215 713 c 1,8,-1
308 555 m 1,23,-1
 212 295 l 1,24,-1
 404 295 l 1,25,-1
 308 555 l 1,23,-1
EndSplineSet
EndChar

StartChar: Adieresis
Encoding: 196 196 133
Width: 631
GlyphClass: 2
Flags: HMW
HStem: 0 21G<18 102 18 18 511 511 511 614> 227 68<212 404 212 429 186 404> 717 114<221.5 252.5 384.5 415.5>
VStem: 180 114<758.5 789.5> 343 114<758.5 789.5>
LayerCount: 2
Fore
SplineSet
102 0 m 1,0,-1
 18 0 l 1,1,-1
 271 670 l 1,2,-1
 362 670 l 1,3,-1
 614 0 l 1,4,-1
 511 0 l 1,5,-1
 429 227 l 1,6,-1
 186 227 l 1,7,-1
 102 0 l 1,0,-1
180 774 m 128,-1,9
 180 797 180 797 197 814 c 128,-1,10
 214 831 214 831 237 831 c 128,-1,11
 260 831 260 831 277 814 c 128,-1,12
 294 797 294 797 294 774 c 128,-1,13
 294 751 294 751 277 734 c 128,-1,14
 260 717 260 717 237 717 c 128,-1,15
 214 717 214 717 197 734 c 128,-1,8
 180 751 180 751 180 774 c 128,-1,9
308 555 m 1,16,-1
 212 295 l 1,17,-1
 404 295 l 1,18,-1
 308 555 l 1,16,-1
343 774 m 128,-1,20
 343 797 343 797 360 814 c 128,-1,21
 377 831 377 831 400 831 c 128,-1,22
 423 831 423 831 440 814 c 128,-1,23
 457 797 457 797 457 774 c 128,-1,24
 457 751 457 751 440 734 c 128,-1,25
 423 717 423 717 400 717 c 128,-1,26
 377 717 377 717 360 734 c 128,-1,19
 343 751 343 751 343 774 c 128,-1,20
EndSplineSet
EndChar

StartChar: Aring
Encoding: 197 197 134
Width: 631
GlyphClass: 2
Flags: HMW
HStem: 0 21G<18 102 18 18 511 511 511 614> 226 68<212 404 212 429 186 404> 783 51<299.5 326.5>
VStem: 215 50<721.5 748.5 721.5 763> 361 50<721.5 748.5>
LayerCount: 2
Fore
SplineSet
102 0 m 1,0,-1
 18 0 l 1,1,-1
 263 650 l 1,2,3
 215 676 215 676 215 735 c 0,4,5
 215 777 215 777 243.5 805.5 c 128,-1,6
 272 834 272 834 314 834 c 128,-1,7
 356 834 356 834 383.5 805.5 c 128,-1,8
 411 777 411 777 411 735 c 0,9,10
 411 679 411 679 368 653 c 1,11,-1
 614 0 l 1,12,-1
 511 0 l 1,13,-1
 429 226 l 1,14,-1
 186 226 l 1,15,-1
 102 0 l 1,0,-1
308 554 m 1,16,-1
 212 294 l 1,17,-1
 404 294 l 1,18,-1
 308 554 l 1,16,-1
265 735 m 128,-1,20
 265 715 265 715 279 701 c 128,-1,21
 293 687 293 687 313 687 c 128,-1,22
 333 687 333 687 347 701 c 128,-1,23
 361 715 361 715 361 735 c 128,-1,24
 361 755 361 755 347 769 c 128,-1,25
 333 783 333 783 313 783 c 128,-1,26
 293 783 293 783 279 769 c 128,-1,19
 265 755 265 755 265 735 c 128,-1,20
EndSplineSet
EndChar

StartChar: AE
Encoding: 198 198 135
Width: 794
GlyphClass: 2
Flags: HMW
HStem: 0 71<482 747 482 747> 248 72<243 390 243 390 211 390> 338 72<482 716 482 716> 660 68<482 747 482 482>
VStem: 390 92<71 248 248 248 320 338 410 641 641 641>
LayerCount: 2
Fore
SplineSet
97 0 m 1,0,-1
 12 0 l 1,1,-1
 313 663 l 1,2,-1
 299 728 l 1,3,-1
 747 728 l 1,4,-1
 747 660 l 1,5,-1
 482 660 l 1,6,-1
 482 410 l 1,7,-1
 716 410 l 1,8,-1
 716 338 l 1,9,-1
 482 338 l 1,10,-1
 482 71 l 1,11,-1
 747 71 l 1,12,-1
 747 0 l 1,13,-1
 390 0 l 1,14,-1
 390 248 l 1,15,-1
 211 248 l 1,16,-1
 97 0 l 1,0,-1
390 641 m 1,17,-1
 243 320 l 1,18,-1
 390 320 l 1,19,-1
 390 641 l 1,17,-1
EndSplineSet
EndChar

StartChar: Ccedilla
Encoding: 199 199 136
Width: 624
GlyphClass: 2
Flags: HMW
HStem: -220 51<344.5 365.5 344.5 380.5> -95 49<312 377> -12 75<383 416.5 301 418.5> 668 70<299 413.5>
VStem: 46 102<282.5 434.5 282.5 470.5> 398 83<-141.5 -118.5>
LayerCount: 2
Fore
SplineSet
297 -83 m 1,0,-1
 299 -77 l 1,1,-1
 337 -9 l 1,2,3
 246 3 246 3 179 57 c 0,4,5
 46 164.194029851 46 164.194029851 46 366 c 0,6,7
 46 528 46 528 137 633 c 128,-1,8
 228 738 228 738 387 738 c 0,9,10
 446 738 446 738 509 717.5 c 128,-1,11
 572 697 572 697 605 659 c 1,12,-1
 553 601 l 1,13,14
 524 632 524 632 477 650 c 128,-1,15
 430 668 430 668 376.5 668 c 128,-1,16
 323 668 323 668 276 641.5 c 128,-1,17
 229 615 229 615 202 569.5 c 0,18,19
 148 478.5 148 478.5 148 360 c 0,20,21
 148 237.727272727 148 237.727272727 202.5 153.5 c 0,22,23
 230 111 230 111 277.5 87 c 128,-1,24
 325 63 325 63 379 63 c 128,-1,25
 433 63 433 63 482 79.5 c 128,-1,26
 531 96 531 96 564 125 c 1,27,-1
 607 58 l 1,28,29
 568 25 568 25 504.5 6.5 c 128,-1,30
 441 -12 441 -12 383 -12 c 1,31,-1
 365 -46 l 1,32,-1
 377 -46 l 2,33,34
 418 -46 418 -46 449.5 -66 c 128,-1,35
 481 -86 481 -86 481 -127 c 0,36,37
 481 -220 481 -220 351 -220 c 0,38,39
 309 -220 309 -220 265 -192 c 1,40,-1
 290 -146 l 1,41,42
 330 -169 330 -169 351 -169 c 128,-1,43
 372 -169 372 -169 385 -158 c 128,-1,44
 398 -147 398 -147 398 -130 c 0,45,46
 398 -95 398 -95 360 -95 c 2,47,-1
 312 -95 l 2,48,49
 297 -95 297 -95 297 -83 c 1,0,-1
EndSplineSet
EndChar

StartChar: Egrave
Encoding: 200 200 137
Width: 549
GlyphClass: 2
Flags: HMW
HStem: 0 69<180 509 180 509> 306 70<180 435 180 435> 600 68<180 509 180 180> 853 20G<130 252 252 252>
VStem: 86 94<69 306 376 600>
LayerCount: 2
Fore
SplineSet
86 603 m 1,0,1
 84 609 84 609 84 614 c 2,2,-1
 80 634 l 1,3,-1
 74 656 l 2,4,5
 73.4342585459 659.960190179 73.4342585459 659.960190179 72.717129273 663.762965816 c 128,-1,6
 72 667.565741454 72 667.565741454 72 668 c 2,7,-1
 509 668 l 1,8,-1
 509 600 l 1,9,-1
 180 600 l 1,10,-1
 180 376 l 1,11,-1
 435 376 l 1,12,-1
 435 306 l 1,13,-1
 180 306 l 1,14,-1
 180 69 l 1,15,-1
 509 69 l 1,16,-1
 509 0 l 1,17,-1
 86 0 l 1,18,-1
 86 603 l 1,0,1
270 721 m 1,19,-1
 130 873 l 1,20,-1
 252 873 l 1,21,-1
 347 721 l 1,22,-1
 270 721 l 1,19,-1
EndSplineSet
EndChar

StartChar: Eacute
Encoding: 201 201 138
Width: 549
GlyphClass: 2
Flags: HMW
HStem: 0 69<180 509 180 509> 306 70<180 435 180 435> 600 68<180 509 180 180> 849 20G<354 477 477 477>
VStem: 86 94<69 306 376 600>
LayerCount: 2
Fore
SplineSet
86 603 m 1,0,1
 84 609 84 609 84 614 c 2,2,-1
 80 634 l 1,3,-1
 74 656 l 2,4,5
 73.4342585459 659.960190179 73.4342585459 659.960190179 72.717129273 663.762965816 c 128,-1,6
 72 667.565741454 72 667.565741454 72 668 c 2,7,-1
 509 668 l 1,8,-1
 509 600 l 1,9,-1
 180 600 l 1,10,-1
 180 376 l 1,11,-1
 435 376 l 1,12,-1
 435 306 l 1,13,-1
 180 306 l 1,14,-1
 180 69 l 1,15,-1
 509 69 l 1,16,-1
 509 0 l 1,17,-1
 86 0 l 1,18,-1
 86 603 l 1,0,1
337 717 m 1,19,-1
 259 717 l 1,20,-1
 354 869 l 1,21,-1
 477 869 l 1,22,-1
 337 717 l 1,19,-1
EndSplineSet
EndChar

StartChar: Ecircumflex
Encoding: 202 202 139
Width: 549
GlyphClass: 2
Flags: HMW
HStem: 0 69<180 509 180 509> 307 70<180 435 180 435> 601 68<180 509 180 180> 601 250<256 340 256 509 180 340>
VStem: 86 94<69 307 377 601>
LayerCount: 2
Fore
SplineSet
74 656 m 1,0,1
 74 661 74 661 72 669 c 1,2,-1
 509 669 l 1,3,-1
 509 601 l 1,4,-1
 180 601 l 1,5,-1
 180 377 l 1,6,-1
 435 377 l 1,7,-1
 435 307 l 1,8,-1
 180 307 l 1,9,-1
 180 69 l 1,10,-1
 509 69 l 1,11,-1
 509 0 l 1,12,-1
 86 0 l 1,13,-1
 86 604 l 1,14,15
 84 610 84 610 84 614 c 2,16,-1
 80 635 l 1,17,-1
 74 656 l 1,0,1
221 696 m 1,18,-1
 154 696 l 1,19,-1
 256 851 l 1,20,-1
 340 851 l 1,21,-1
 446 696 l 1,22,-1
 376 696 l 1,23,-1
 298 778 l 1,24,-1
 221 696 l 1,18,-1
EndSplineSet
EndChar

StartChar: Edieresis
Encoding: 203 203 140
Width: 549
GlyphClass: 2
Flags: HMW
HStem: 0 69<178 507 178 507> 307 70<178 433 178 433> 601 68<178 507 178 178> 721 114<206.5 237.5 206.5 237.5 369.5 400.5>
VStem: 84 94<69 307 377 601> 165 113<762.5 793.5 762.5 793.5> 328 114<762.5 793.5 762.5 793.5>
LayerCount: 2
Fore
SplineSet
72 656 m 1,0,1
 72 661 72 661 70 669 c 1,2,-1
 507 669 l 1,3,-1
 507 601 l 1,4,-1
 178 601 l 1,5,-1
 178 377 l 1,6,-1
 433 377 l 1,7,-1
 433 307 l 1,8,-1
 178 307 l 1,9,-1
 178 69 l 1,10,-1
 507 69 l 1,11,-1
 507 0 l 1,12,-1
 84 0 l 1,13,-1
 84 604 l 1,14,15
 82 610 82 610 82 614 c 2,16,-1
 78 635 l 1,17,-1
 72 656 l 1,0,1
181.5 737.5 m 128,-1,19
 165 754 165 754 165 777.5 c 128,-1,20
 165 801 165 801 182 818 c 128,-1,21
 199 835 199 835 222 835 c 128,-1,22
 245 835 245 835 261.5 818 c 128,-1,23
 278 801 278 801 278 778 c 128,-1,24
 278 755 278 755 261.5 738 c 128,-1,25
 245 721 245 721 221.5 721 c 128,-1,18
 198 721 198 721 181.5 737.5 c 128,-1,19
344.5 737.5 m 128,-1,27
 328 754 328 754 328 777.5 c 128,-1,28
 328 801 328 801 345 818 c 128,-1,29
 362 835 362 835 385 835 c 128,-1,30
 408 835 408 835 425 818 c 128,-1,31
 442 801 442 801 442 778 c 128,-1,32
 442 755 442 755 425 738 c 128,-1,33
 408 721 408 721 384.5 721 c 128,-1,26
 361 721 361 721 344.5 737.5 c 128,-1,27
EndSplineSet
EndChar

StartChar: Igrave
Encoding: 204 204 141
Width: 268
GlyphClass: 2
Flags: HMW
HStem: 0 21G<86 181 86 86> 851 20G<-36 86 86 86>
VStem: 86 95<0 602 602 602.5>
LayerCount: 2
Fore
SplineSet
104 719 m 1,0,-1
 -36 871 l 1,1,-1
 86 871 l 1,2,-1
 181 719 l 1,3,-1
 104 719 l 1,0,-1
86 602 m 1,4,5
 84 608 84 608 84 612 c 2,6,-1
 80 634 l 1,7,-1
 74 656 l 2,8,9
 73.4342585459 659.960190179 73.4342585459 659.960190179 72.717129273 663.762965816 c 128,-1,10
 72 667.565741454 72 667.565741454 72 668 c 2,11,-1
 181 668 l 1,12,-1
 181 0 l 1,13,-1
 86 0 l 1,14,-1
 86 602 l 1,4,5
EndSplineSet
EndChar

StartChar: Iacute
Encoding: 205 205 142
Width: 270
GlyphClass: 2
Flags: HMW
HStem: 0 21G<86 180 86 86> 847 20G<165 288 288 288>
VStem: 86 94<0 603 603 603>
LayerCount: 2
Fore
SplineSet
148 716 m 1,0,-1
 70 716 l 1,1,-1
 165 867 l 1,2,-1
 288 867 l 1,3,-1
 148 716 l 1,0,-1
86 603 m 1,4,-1
 71 669 l 1,5,-1
 180 669 l 1,6,-1
 180 0 l 1,7,-1
 86 0 l 1,8,-1
 86 603 l 1,4,-1
EndSplineSet
EndChar

StartChar: Icircumflex
Encoding: 206 206 143
Width: 270
GlyphClass: 2
Flags: HMW
HStem: 0 21G<86 181 86 86> 831 20G<87 171 171 171>
VStem: 86 95<0 602 602 602>
LayerCount: 2
Fore
SplineSet
53 696 m 1,0,-1
 -15 696 l 1,1,-1
 87 851 l 1,2,-1
 171 851 l 1,3,-1
 277 696 l 1,4,-1
 207 696 l 1,5,-1
 129 778 l 1,6,-1
 53 696 l 1,0,-1
86 602 m 1,7,-1
 71 668 l 1,8,-1
 181 668 l 1,9,-1
 181 0 l 1,10,-1
 86 0 l 1,11,-1
 86 602 l 1,7,-1
EndSplineSet
EndChar

StartChar: Idieresis
Encoding: 207 207 144
Width: 270
GlyphClass: 2
Flags: HMW
HStem: 0 21G<85 180 85 85> 721 114<34.5 65.5 197.5 228.5>
VStem: -7 114<762.5 793.5> 85 95<0 602 602 602.5> 156 114<762.5 793.5>
LayerCount: 2
Fore
SplineSet
-7 778 m 128,-1,1
 -7 801 -7 801 10 818 c 128,-1,2
 27 835 27 835 50 835 c 128,-1,3
 73 835 73 835 90 818 c 128,-1,4
 107 801 107 801 107 778 c 128,-1,5
 107 755 107 755 90 738 c 128,-1,6
 73 721 73 721 50 721 c 128,-1,7
 27 721 27 721 10 738 c 128,-1,0
 -7 755 -7 755 -7 778 c 128,-1,1
85 602 m 1,8,9
 83 608 83 608 83 612 c 2,10,-1
 78 634 l 1,11,-1
 74 656 l 1,12,13
 71 666.5 71 666.5 71 668 c 1,14,-1
 180 668 l 1,15,-1
 180 0 l 1,16,-1
 85 0 l 1,17,-1
 85 602 l 1,8,9
156 778 m 128,-1,19
 156 801 156 801 173 818 c 128,-1,20
 190 835 190 835 213 835 c 128,-1,21
 236 835 236 835 253 818 c 128,-1,22
 270 801 270 801 270 777.5 c 128,-1,23
 270 754 270 754 253.5 737.5 c 128,-1,24
 237 721 237 721 213.5 721 c 128,-1,25
 190 721 190 721 173 738 c 128,-1,18
 156 755 156 755 156 778 c 128,-1,19
EndSplineSet
EndChar

StartChar: Eth
Encoding: 208 208 145
Width: 714
GlyphClass: 2
Flags: HMW
HStem: 0 69<182 314 314 326> 331 64<8 89 8 89 182 337> 659 69<182 255 182 182>
VStem: 89 93<69 331 69 331 69 331 395 659> 559 97<283 469.5>
LayerCount: 2
Fore
SplineSet
89 662 m 1,0,1
 87 668 87 668 87 672 c 2,2,-1
 82 694 l 1,3,-1
 78 716 l 1,4,5
 75 726.5 75 726.5 75 728 c 1,6,-1
 262 728 l 2,7,8
 656 728 656 728 656 362 c 0,9,10
 656 197 656 197 572.5 98.5 c 128,-1,11
 489 0 489 0 326 0 c 2,12,-1
 89 0 l 1,13,-1
 89 331 l 1,14,-1
 8 331 l 1,15,-1
 8 395 l 1,16,-1
 89 395 l 1,17,-1
 89 662 l 1,0,1
182 331 m 1,18,-1
 182 69 l 1,19,-1
 314 69 l 2,20,21
 442 69 442 69 500.5 150 c 128,-1,22
 559 231 559 231 559 364 c 0,23,24
 559 519 559 519 483.5 589 c 128,-1,25
 408 659 408 659 255 659 c 2,26,-1
 182 659 l 1,27,-1
 182 395 l 1,28,-1
 337 395 l 1,29,-1
 337 331 l 1,30,-1
 182 331 l 1,18,-1
EndSplineSet
EndChar

StartChar: Ntilde
Encoding: 209 209 146
Width: 714
GlyphClass: 2
Flags: HMW
HStem: -6 21G<568 627 568 568> 0 21G<87 164 87 87> 700 73<425 453 425 469.5> 739 34 739 74<286.5 319>
VStem: 87 77<0 557 0 602 0 602.5> 551 76<180 668 -6 668>
LayerCount: 2
Fore
SplineSet
87 602 m 1,0,1
 85 608 85 608 85 612 c 2,2,-1
 80 634 l 1,3,-1
 76 656 l 1,4,5
 73 666.5 73 666.5 73 668 c 1,6,-1
 197 668 l 1,7,-1
 551 180 l 1,8,-1
 551 668 l 1,9,-1
 627 668 l 1,10,-1
 627 -6 l 1,11,-1
 568 -6 l 1,12,-1
 164 557 l 1,13,-1
 164 0 l 1,14,-1
 87 0 l 1,15,-1
 87 602 l 1,0,1
260 713 m 1,16,-1
 211 713 l 1,17,18
 215 753 215 753 240.5 783 c 128,-1,19
 266 813 266 813 299.5 813 c 128,-1,20
 333 813 333 813 380 793 c 128,-1,21
 427 773 427 773 449.5 773 c 128,-1,22
 472 773 472 773 481 799 c 1,23,-1
 528 799 l 1,24,25
 524 760 524 760 502 730 c 128,-1,26
 480 700 480 700 447 700 c 128,-1,27
 414 700 414 700 366 719.5 c 128,-1,28
 318 739 318 739 293.5 739 c 128,-1,29
 269 739 269 739 260 713 c 1,16,-1
EndSplineSet
EndChar

StartChar: Ograve
Encoding: 210 210 147
Width: 737
GlyphClass: 2
Flags: HMW
HStem: -13 68<294.5 443.5 294.5 465> 610 68<295 443.5> 852 20G<193 316 316 316>
VStem: 47 98<267 399 267 424.5> 593 98<266.5 399.5>
LayerCount: 2
Fore
SplineSet
138 88.5 m 128,-1,1
 47 190 47 190 47 332.5 c 128,-1,2
 47 475 47 475 137.5 576.5 c 128,-1,3
 228 678 228 678 369 678 c 128,-1,4
 510 678 510 678 600.5 576.5 c 128,-1,5
 691 475 691 475 691 332.5 c 128,-1,6
 691 190 691 190 600.5 88.5 c 128,-1,7
 510 -13 510 -13 369.5 -13 c 128,-1,0
 229 -13 229 -13 138 88.5 c 128,-1,1
145 333 m 0,8,9
 145 264 145 264 169 202 c 128,-1,10
 193 140 193 140 245.5 97.5 c 128,-1,11
 298 55 298 55 369 55 c 0,12,13
 474 55 474 55 533.5 139.5 c 128,-1,14
 593 224 593 224 593 333 c 128,-1,15
 593 442 593 442 533.5 526 c 128,-1,16
 474 610 474 610 369.5 610 c 128,-1,17
 265 610 265 610 205 526 c 128,-1,18
 145 442 145 442 145 333 c 0,8,9
333 720 m 1,19,-1
 193 872 l 1,20,-1
 316 872 l 1,21,-1
 411 720 l 1,22,-1
 333 720 l 1,19,-1
EndSplineSet
EndChar

StartChar: Oacute
Encoding: 211 211 148
Width: 737
GlyphClass: 2
Flags: HMW
HStem: -12 68<295 443.5 295 465> 611 68<294.5 443.5> 850 20G<404 527 527 527>
VStem: 47 98<267 399 267 425.5> 593 98<266.5 399.5>
LayerCount: 2
Fore
SplineSet
137.5 89.5 m 128,-1,1
 47 191 47 191 47 333.5 c 128,-1,2
 47 476 47 476 137.5 577.5 c 128,-1,3
 228 679 228 679 369 679 c 128,-1,4
 510 679 510 679 600.5 577.5 c 128,-1,5
 691 476 691 476 691 333.5 c 128,-1,6
 691 191 691 191 600.5 89.5 c 128,-1,7
 510 -12 510 -12 369 -12 c 128,-1,0
 228 -12 228 -12 137.5 89.5 c 128,-1,1
145 333 m 0,8,9
 145 224 145 224 205 140 c 128,-1,10
 265 56 265 56 369.5 56 c 128,-1,11
 474 56 474 56 533.5 140 c 128,-1,12
 593 224 593 224 593 333 c 128,-1,13
 593 442 593 442 533.5 526.5 c 128,-1,14
 474 611 474 611 369 611 c 0,15,16
 298 611 298 611 245.5 568.5 c 128,-1,17
 193 526 193 526 169 464 c 128,-1,18
 145 402 145 402 145 333 c 0,8,9
387 718 m 1,19,-1
 309 718 l 1,20,-1
 404 870 l 1,21,-1
 527 870 l 1,22,-1
 387 718 l 1,19,-1
EndSplineSet
EndChar

StartChar: Ocircumflex
Encoding: 212 212 149
Width: 737
GlyphClass: 2
Flags: HMW
HStem: -13 68<294.5 443.5 294.5 465> 610 68<295 443.5> 610 239<323 406 323 443.5>
VStem: 47 98<267 399 267 424.5> 593 98<266.5 399.5>
LayerCount: 2
Fore
SplineSet
138 88.5 m 128,-1,1
 47 190 47 190 47 332.5 c 128,-1,2
 47 475 47 475 137.5 576.5 c 128,-1,3
 228 678 228 678 369 678 c 128,-1,4
 510 678 510 678 600.5 576.5 c 128,-1,5
 691 475 691 475 691 332.5 c 128,-1,6
 691 190 691 190 600.5 88.5 c 128,-1,7
 510 -13 510 -13 369.5 -13 c 128,-1,0
 229 -13 229 -13 138 88.5 c 128,-1,1
145 333 m 0,8,9
 145 264 145 264 169 202 c 128,-1,10
 193 140 193 140 245.5 97.5 c 128,-1,11
 298 55 298 55 369 55 c 0,12,13
 474 55 474 55 533.5 139.5 c 128,-1,14
 593 224 593 224 593 333 c 128,-1,15
 593 442 593 442 533.5 526 c 128,-1,16
 474 610 474 610 369.5 610 c 128,-1,17
 265 610 265 610 205 526 c 128,-1,18
 145 442 145 442 145 333 c 0,8,9
288 694 m 1,19,-1
 221 694 l 1,20,-1
 323 849 l 1,21,-1
 406 849 l 1,22,-1
 512 694 l 1,23,-1
 443 694 l 1,24,-1
 364 776 l 1,25,-1
 288 694 l 1,19,-1
EndSplineSet
EndChar

StartChar: Otilde
Encoding: 213 213 150
Width: 736
GlyphClass: 2
Flags: HMW
HStem: -12 68<294 442.5 294 464> 611 68<293.5 442.5> 702 73<431 458 431 474> 741 34 741 73<290.5 324>
VStem: 46 98<267 399 267 425.5> 592 98<266.5 399.5>
LayerCount: 2
Fore
SplineSet
136.5 89.5 m 128,-1,1
 46 191 46 191 46 333.5 c 128,-1,2
 46 476 46 476 136.5 577.5 c 128,-1,3
 227 679 227 679 368 679 c 128,-1,4
 509 679 509 679 599.5 577.5 c 128,-1,5
 690 476 690 476 690 333.5 c 128,-1,6
 690 191 690 191 599.5 89.5 c 128,-1,7
 509 -12 509 -12 368 -12 c 128,-1,0
 227 -12 227 -12 136.5 89.5 c 128,-1,1
144 333 m 0,8,9
 144 224 144 224 204 140 c 128,-1,10
 264 56 264 56 368.5 56 c 128,-1,11
 473 56 473 56 532.5 140 c 128,-1,12
 592 224 592 224 592 333 c 128,-1,13
 592 442 592 442 532.5 526.5 c 128,-1,14
 473 611 473 611 368 611 c 0,15,16
 297 611 297 611 244.5 568.5 c 128,-1,17
 192 526 192 526 168 464 c 128,-1,18
 144 402 144 402 144 333 c 0,8,9
265 714 m 1,19,-1
 216 714 l 1,20,21
 220 754 220 754 246 784 c 128,-1,22
 272 814 272 814 305 814 c 128,-1,23
 338 814 338 814 385.5 794.5 c 128,-1,24
 433 775 433 775 450 775 c 0,25,26
 477 775 477 775 486 801 c 1,27,-1
 534 801 l 1,28,29
 530 763 530 763 507 732.5 c 128,-1,30
 484 702 484 702 451.5 702 c 128,-1,31
 419 702 419 702 371 721.5 c 128,-1,32
 323 741 323 741 300.5 741 c 128,-1,33
 278 741 278 741 265 714 c 1,19,-1
EndSplineSet
EndChar

StartChar: Odieresis
Encoding: 214 214 151
Width: 737
GlyphClass: 2
Flags: HMW
HStem: -12 68<295 443.5 295 465> 611 68<294.5 443.5> 717 114<269.5 300.5 432.5 463.5>
VStem: 47 98<267 399 267 425.5> 228 114<758.5 789.5> 391 114<758.5 789.5> 593 98<266.5 399.5>
LayerCount: 2
Fore
SplineSet
137.5 89.5 m 128,-1,1
 47 191 47 191 47 333.5 c 128,-1,2
 47 476 47 476 137.5 577.5 c 128,-1,3
 228 679 228 679 369 679 c 128,-1,4
 510 679 510 679 600.5 577.5 c 128,-1,5
 691 476 691 476 691 333.5 c 128,-1,6
 691 191 691 191 600.5 89.5 c 128,-1,7
 510 -12 510 -12 369 -12 c 128,-1,0
 228 -12 228 -12 137.5 89.5 c 128,-1,1
145 333 m 0,8,9
 145 224 145 224 205 140 c 128,-1,10
 265 56 265 56 369.5 56 c 128,-1,11
 474 56 474 56 533.5 140 c 128,-1,12
 593 224 593 224 593 333 c 128,-1,13
 593 442 593 442 533.5 526.5 c 128,-1,14
 474 611 474 611 369 611 c 0,15,16
 298 611 298 611 245.5 568.5 c 128,-1,17
 193 526 193 526 169 464 c 128,-1,18
 145 402 145 402 145 333 c 0,8,9
228 774 m 128,-1,20
 228 797 228 797 245 814 c 128,-1,21
 262 831 262 831 285 831 c 128,-1,22
 308 831 308 831 325 814 c 128,-1,23
 342 797 342 797 342 774 c 128,-1,24
 342 751 342 751 325 734 c 128,-1,25
 308 717 308 717 285 717 c 128,-1,26
 262 717 262 717 245 734 c 128,-1,19
 228 751 228 751 228 774 c 128,-1,20
391 774 m 128,-1,28
 391 797 391 797 408 814 c 128,-1,29
 425 831 425 831 448 831 c 128,-1,30
 471 831 471 831 488 814 c 128,-1,31
 505 797 505 797 505 774 c 128,-1,32
 505 751 505 751 488 734 c 128,-1,33
 471 717 471 717 448 717 c 128,-1,34
 425 717 425 717 408 734 c 128,-1,27
 391 751 391 751 391 774 c 128,-1,28
EndSplineSet
EndChar

StartChar: multiply
Encoding: 215 215 152
Width: 534
GlyphClass: 2
Flags: HMW
HStem: 50 21G<115 115 419 419> 422 20G<115 115 419 419>
LayerCount: 2
Fore
SplineSet
115 50 m 1,0,-1
 71 94 l 1,1,-1
 224 246 l 1,2,-1
 71 398 l 1,3,-1
 115 442 l 1,4,-1
 267 290 l 1,5,-1
 419 442 l 1,6,-1
 463 398 l 1,7,-1
 310 246 l 1,8,-1
 463 94 l 1,9,-1
 419 50 l 1,10,-1
 267 202 l 1,11,-1
 115 50 l 1,0,-1
EndSplineSet
EndChar

StartChar: Oslash
Encoding: 216 216 153
Width: 736
GlyphClass: 2
Flags: HMW
HStem: -57 21G<126 126> -13 68<344 454 344 473> 668 68<284 391.5> 747 20G<589 589>
VStem: 46 98<330 437.5 330 465> 592 98<284.5 393>
LayerCount: 2
Fore
SplineSet
142 78 m 1,0,1
 46 181 46 181 46 353 c 128,-1,2
 46 525 46 525 130 630.5 c 128,-1,3
 214 736 214 736 371 736 c 0,4,5
 466 736 466 736 539 690 c 1,6,-1
 589 767 l 1,7,-1
 643 736 l 1,8,-1
 588 652 l 1,9,10
 690 546 690 546 690 361 c 0,11,12
 690 141.7 690 141.7 544 39.5 c 0,13,14
 469 -13 469 -13 366.5 -13 c 128,-1,15
 264 -13 264 -13 189 39 c 1,16,-1
 126 -57 l 1,17,-1
 74 -24 l 1,18,-1
 142 78 l 1,0,1
192 158 m 1,19,-1
 344 390 l 1,20,-1
 495 624 l 1,21,22
 445 668 445 668 376.5 668 c 128,-1,23
 308 668 308 668 262.5 641.5 c 128,-1,24
 217 615 217 615 192.5 570 c 0,25,26
 144 480.918367347 144 480.918367347 144 360.459183673 c 128,-1,27
 144 240 144 240 192 158 c 1,19,-1
539 575 m 1,28,-1
 232 107 l 1,29,30
 288 55 288 55 370 55 c 0,31,32
 430 55 430 55 475 81.5 c 128,-1,33
 520 108 520 108 544.5 152.5 c 0,34,35
 592 238.775510204 592 238.775510204 592 365.387755102 c 128,-1,36
 592 492 592 492 539 575 c 1,28,-1
EndSplineSet
EndChar

StartChar: Ugrave
Encoding: 217 217 154
Width: 707
GlyphClass: 2
Flags: HMW
HStem: -13 69<295 416.5 295 437> 852 20G<187 309 309 309>
VStem: 86 95<243 603 603 603.5> 543 77<257 668>
LayerCount: 2
Fore
SplineSet
71 668 m 1,0,-1
 181 668 l 1,1,-1
 181 243 l 2,2,3
 181 154 181 154 224 105 c 128,-1,4
 267 56 267 56 356 56 c 0,5,6
 445 56 445 56 494 111.5 c 128,-1,7
 543 167 543 167 543 257 c 2,8,-1
 543 668 l 1,9,-1
 620 668 l 1,10,-1
 620 257 l 2,11,12
 620 128 620 128 550 57.5 c 128,-1,13
 480 -13 480 -13 352 -13 c 0,14,15
 224 -13 224 -13 155 52 c 128,-1,16
 86 117 86 117 86 243 c 2,17,-1
 86 603 l 2,18,19
 86 608 86 608 79 634 c 1,20,-1
 74 656 l 2,21,22
 71 666.5 71 666.5 71 668 c 1,0,-1
327 721 m 1,23,-1
 187 872 l 1,24,-1
 309 872 l 1,25,-1
 404 721 l 1,26,-1
 327 721 l 1,23,-1
EndSplineSet
EndChar

StartChar: Uacute
Encoding: 218 218 155
Width: 707
GlyphClass: 2
Flags: HMW
HStem: -12 69<295 416.5 295 437> 848 20G<410 532 532 532>
VStem: 86 95<244 604 604 604.5> 543 77<258 669>
LayerCount: 2
Fore
SplineSet
71 669 m 1,0,-1
 181 669 l 1,1,-1
 181 244 l 2,2,3
 181 155 181 155 224 106 c 128,-1,4
 267 57 267 57 356 57 c 0,5,6
 445 57 445 57 494 112.5 c 128,-1,7
 543 168 543 168 543 258 c 2,8,-1
 543 669 l 1,9,-1
 620 669 l 1,10,-1
 620 258 l 2,11,12
 620 129 620 129 550 58.5 c 128,-1,13
 480 -12 480 -12 352 -12 c 0,14,15
 224 -12 224 -12 155 53 c 128,-1,16
 86 118 86 118 86 244 c 2,17,-1
 86 604 l 2,18,19
 86 608 86 608 79 636 c 2,20,-1
 74 657 l 2,21,22
 71 667.5 71 667.5 71 669 c 1,0,-1
392 717 m 1,23,-1
 315 717 l 1,24,-1
 410 868 l 1,25,-1
 532 868 l 1,26,-1
 392 717 l 1,23,-1
EndSplineSet
EndChar

StartChar: Ucircumflex
Encoding: 219 219 156
Width: 707
GlyphClass: 2
Flags: HMW
HStem: -12 69<295 416.5 295 437> 830 20G<316 400 400 400>
VStem: 86 95<244 604 604 604.5> 543 77<258 669>
LayerCount: 2
Fore
SplineSet
71 669 m 1,0,-1
 181 669 l 1,1,-1
 181 244 l 2,2,3
 181 155 181 155 224 106 c 128,-1,4
 267 57 267 57 356 57 c 0,5,6
 445 57 445 57 494 112.5 c 128,-1,7
 543 168 543 168 543 258 c 2,8,-1
 543 669 l 1,9,-1
 620 669 l 1,10,-1
 620 258 l 2,11,12
 620 129 620 129 550 58.5 c 128,-1,13
 480 -12 480 -12 352 -12 c 0,14,15
 224 -12 224 -12 155 53 c 128,-1,16
 86 118 86 118 86 244 c 2,17,-1
 86 604 l 2,18,19
 86 608 86 608 79 636 c 2,20,-1
 74 657 l 2,21,22
 71 667.5 71 667.5 71 669 c 1,0,-1
282 696 m 1,23,-1
 214 696 l 1,24,-1
 316 850 l 1,25,-1
 400 850 l 1,26,-1
 504 696 l 1,27,-1
 436 696 l 1,28,-1
 358 777 l 1,29,-1
 282 696 l 1,23,-1
EndSplineSet
EndChar

StartChar: Udieresis
Encoding: 220 220 157
Width: 707
GlyphClass: 2
Flags: HMW
HStem: -12 69<295 416.5 295 437> 717 114<266.5 297.5 430.5 461.5>
VStem: 86 95<244 604 604 604.5> 226 113<758.5 789.5> 389 113<758.5 789.5> 543 77<258 669>
LayerCount: 2
Fore
SplineSet
71 669 m 1,0,-1
 181 669 l 1,1,-1
 181 244 l 2,2,3
 181 155 181 155 224 106 c 128,-1,4
 267 57 267 57 356 57 c 0,5,6
 445 57 445 57 494 112.5 c 128,-1,7
 543 168 543 168 543 258 c 2,8,-1
 543 669 l 1,9,-1
 620 669 l 1,10,-1
 620 258 l 2,11,12
 620 129 620 129 550 58.5 c 128,-1,13
 480 -12 480 -12 351.5 -12 c 0,14,15
 223 -12 223 -12 154.5 52.5 c 128,-1,16
 86 117 86 117 86 244 c 2,17,-1
 86 604 l 2,18,19
 86 608 86 608 79 636 c 2,20,-1
 74 657 l 2,21,22
 71 667.5 71 667.5 71 669 c 1,0,-1
226 774 m 128,-1,24
 226 797 226 797 242.5 814 c 128,-1,25
 259 831 259 831 282 831 c 128,-1,26
 305 831 305 831 322 814 c 128,-1,27
 339 797 339 797 339 774 c 128,-1,28
 339 751 339 751 322 734 c 128,-1,29
 305 717 305 717 282 717 c 128,-1,30
 259 717 259 717 242.5 734 c 128,-1,23
 226 751 226 751 226 774 c 128,-1,24
389 774 m 128,-1,32
 389 797 389 797 406 814 c 128,-1,33
 423 831 423 831 446 831 c 128,-1,34
 469 831 469 831 485.5 814 c 128,-1,35
 502 797 502 797 502 774 c 128,-1,36
 502 751 502 751 485.5 734 c 128,-1,37
 469 717 469 717 446 717 c 128,-1,38
 423 717 423 717 406 734 c 128,-1,31
 389 751 389 751 389 774 c 128,-1,32
EndSplineSet
EndChar

StartChar: Yacute
Encoding: 221 221 158
Width: 584
GlyphClass: 2
Flags: HMW
HStem: 0 21G<248 343 248 248> 848 20G<362 484 484 484>
VStem: 248 95<0 300 0 300>
LayerCount: 2
Fore
SplineSet
248 300 m 1,0,-1
 32 669 l 1,1,-1
 139 669 l 1,2,-1
 308 385 l 1,3,-1
 465 669 l 1,4,-1
 553 669 l 1,5,-1
 343 300 l 1,6,-1
 343 0 l 1,7,-1
 248 0 l 1,8,-1
 248 300 l 1,0,-1
344 717 m 1,9,-1
 267 717 l 1,10,-1
 362 868 l 1,11,-1
 484 868 l 1,12,-1
 344 717 l 1,9,-1
EndSplineSet
EndChar

StartChar: Thorn
Encoding: 222 222 159
Width: 575
GlyphClass: 2
Flags: HMW
HStem: 1 21G<89 182 89 89> 183 68<182 283 182 289> 542 69<182 282 183 282 282 290> 708 20G<74 183 183 183>
VStem: 89 93<1 183 1 251 251 542> 435 98<356 444>
LayerCount: 2
Fore
SplineSet
89 662 m 1,0,-1
 74 728 l 1,1,-1
 183 728 l 1,2,-1
 183 611 l 1,3,-1
 282 611 l 2,4,5
 397 611 397 611 465 560.5 c 128,-1,6
 533 510 533 510 533 402 c 0,7,8
 533 294 533 294 462 238.5 c 128,-1,9
 391 183 391 183 283 183 c 2,10,-1
 182 183 l 1,11,-1
 182 1 l 1,12,-1
 89 1 l 1,13,-1
 89 662 l 1,0,-1
182 542 m 1,14,-1
 182 251 l 1,15,-1
 289 251 l 2,16,17
 356 251 356 251 395.5 292 c 128,-1,18
 435 333 435 333 435 400 c 128,-1,19
 435 467 435 467 398 504.5 c 128,-1,20
 361 542 361 542 290 542 c 2,21,-1
 182 542 l 1,14,-1
EndSplineSet
EndChar

StartChar: germandbls
Encoding: 223 223 160
Width: 552
GlyphClass: 2
Flags: HMW
HStem: -12 65<324.5 361 321.5 400> 0 21G<102 185 102 102> 434 55<28 59.5 28 102 28 59.5> 671 70<255.5 334>
VStem: 102 83<0 434 434 434> 249 225<352 635> 386 88<533.5 609.5> 447 88<133 224 124.5 237>
LayerCount: 2
Fore
SplineSet
102 434 m 1,0,-1
 28 434 l 1,1,-1
 28 489 l 1,2,3
 73 489 73 489 89 505 c 128,-1,4
 105 521 105 521 115 568 c 0,5,6
 134 651 134 651 179 696 c 128,-1,7
 224 741 224 741 304.5 741 c 128,-1,8
 385 741 385 741 429.5 700.5 c 128,-1,9
 474 660 474 660 474 583 c 0,10,11
 474 516.7 474 516.7 436 482.5 c 0,12,13
 413.945205479 462.650684932 413.945205479 462.650684932 386.97260274 447.325342466 c 0,14,15
 322 410.409090909 322 410.409090909 322 404 c 0,16,17
 322 395 322 395 367 373 c 2,18,-1
 428 342 l 1,19,20
 535 284 535 284 535 184 c 0,21,22
 535 95 535 95 482 41.5 c 128,-1,23
 429 -12 429 -12 341 -12 c 0,24,25
 288 -12 288 -12 236 8 c 1,26,-1
 264 66 l 1,27,28
 307 53 307 53 333 53 c 0,29,30
 378 53 378 53 412.5 85 c 128,-1,31
 447 117 447 117 447 162 c 128,-1,32
 447 207 447 207 426.5 235.5 c 128,-1,33
 406 264 406 264 377 282 c 128,-1,34
 348 300 348 300 319 316 c 0,35,36
 249 354.620689655 249 354.620689655 249 400 c 0,37,38
 249 437.705882353 249 437.705882353 317.5 478 c 0,39,40
 343 493 343 493 364.5 520.5 c 128,-1,41
 386 548 386 548 386 582 c 0,42,43
 386 671 386 671 306 671 c 0,44,45
 270 671 270 671 244.5 652 c 128,-1,46
 219 633 219 633 207 601.5 c 0,47,48
 185 543.75 185 543.75 185 474 c 2,49,-1
 185 0 l 1,50,-1
 102 0 l 1,51,-1
 102 434 l 1,0,-1
EndSplineSet
EndChar

StartChar: agrave
Encoding: 224 224 161
Width: 491
GlyphClass: 2
Flags: HMW
HStem: -11 70<184.5 209.5> -9 21G<381.5 418> 226 65<293 329> 444 65<221.5 278> 708 20G<76 199 199 199>
VStem: 44 85<101 173 101 195.5> 329 83<194 226 226 226 291 344 344 345>
LayerCount: 2
Fore
SplineSet
498 21 m 1,0,1
 428 -9 428 -9 402 -9 c 0,2,3
 343 -9 343 -9 331 59 c 1,4,5
 264 -11 264 -11 181 -11 c 0,6,7
 120 -11 120 -11 82 24 c 128,-1,8
 44 59 44 59 44 120 c 0,9,10
 44 291 44 291 329 291 c 1,11,-1
 329 344 l 2,12,13
 329 444 329 444 246 444 c 0,14,15
 207 444 207 444 167 428.5 c 128,-1,16
 127 413 127 413 103 385 c 1,17,-1
 62 444 l 1,18,19
 145 509 145 509 253 509 c 0,20,21
 331 509 331 509 371.5 466.5 c 128,-1,22
 412 424 412 424 412 345 c 2,23,-1
 412 97 l 2,24,25
 412 77 412 77 416.5 68 c 128,-1,26
 421 59 421 59 434 59 c 1,27,28
 438 61 438 61 442 61 c 1,29,-1
 456 66 l 1,30,-1
 472 70 l 2,31,32
 479.5 71.5 479.5 71.5 481 73 c 1,33,-1
 498 21 l 1,0,1
216 576 m 1,34,-1
 76 728 l 1,35,-1
 199 728 l 1,36,-1
 294 576 l 1,37,-1
 216 576 l 1,34,-1
129 123 m 0,38,39
 129 59 129 59 208 59 c 0,40,41
 259 59 259 59 294 100.5 c 128,-1,42
 329 142 329 142 329 194 c 2,43,-1
 329 226 l 1,44,45
 221.142857143 226 221.142857143 226 177.5 202.5 c 0,46,47
 158 192 158 192 143.5 172 c 128,-1,48
 129 152 129 152 129 123 c 0,38,39
EndSplineSet
EndChar

StartChar: aacute
Encoding: 225 225 162
Width: 494
GlyphClass: 2
Flags: HMW
HStem: -11 70<184.5 209.5> -9 21G<381.5 418> 226 65<293 329> 444 65<221.5 278> 709 20G<301 423 423 423>
VStem: 44 85<101 173 101 195.5> 329 83<194 226 226 226 291 344 344 345>
LayerCount: 2
Fore
SplineSet
498 21 m 1,0,1
 428 -9 428 -9 402 -9 c 0,2,3
 343 -9 343 -9 331 59 c 1,4,5
 264 -11 264 -11 181 -11 c 0,6,7
 120 -11 120 -11 82 24 c 128,-1,8
 44 59 44 59 44 120 c 0,9,10
 44 291 44 291 329 291 c 1,11,-1
 329 344 l 2,12,13
 329 444 329 444 246 444 c 0,14,15
 207 444 207 444 167 428.5 c 128,-1,16
 127 413 127 413 103 385 c 1,17,-1
 62 444 l 1,18,19
 145 509 145 509 253 509 c 0,20,21
 331 509 331 509 371.5 466.5 c 128,-1,22
 412 424 412 424 412 345 c 2,23,-1
 412 97 l 2,24,25
 412 77 412 77 416.5 68 c 128,-1,26
 421 59 421 59 434 59 c 1,27,28
 438 61 438 61 442 61 c 1,29,-1
 456 66 l 1,30,-1
 472 70 l 2,31,32
 479.5 71.5 479.5 71.5 481 73 c 1,33,-1
 498 21 l 1,0,1
129 123 m 0,34,35
 129 59 129 59 208 59 c 0,36,37
 259 59 259 59 294 100.5 c 128,-1,38
 329 142 329 142 329 194 c 2,39,-1
 329 226 l 1,40,41
 221.142857143 226 221.142857143 226 177.5 202.5 c 0,42,43
 158 192 158 192 143.5 172 c 128,-1,44
 129 152 129 152 129 123 c 0,34,35
283 577 m 1,45,-1
 205 577 l 1,46,-1
 301 729 l 1,47,-1
 423 729 l 1,48,-1
 283 577 l 1,45,-1
EndSplineSet
EndChar

StartChar: acircumflex
Encoding: 226 226 163
Width: 494
GlyphClass: 2
Flags: HMW
HStem: -11 70<184.5 209.5> -9 21G<381.5 418> 226 65<293 329> 444 65<221.5 278> 709 20G<201 284 284 284>
VStem: 44 85<101 173 101 195.5> 329 83<194 226 226 226 291 344 344 345>
LayerCount: 2
Fore
SplineSet
498 21 m 1,0,1
 428 -9 428 -9 402 -9 c 0,2,3
 343 -9 343 -9 331 59 c 1,4,5
 264 -11 264 -11 181 -11 c 0,6,7
 120 -11 120 -11 82 24 c 128,-1,8
 44 59 44 59 44 120 c 0,9,10
 44 291 44 291 329 291 c 1,11,-1
 329 344 l 2,12,13
 329 444 329 444 246 444 c 0,14,15
 207 444 207 444 167 428.5 c 128,-1,16
 127 413 127 413 103 385 c 1,17,-1
 62 444 l 1,18,19
 145 509 145 509 253 509 c 0,20,21
 331 509 331 509 371.5 466.5 c 128,-1,22
 412 424 412 424 412 345 c 2,23,-1
 412 97 l 2,24,25
 412 77 412 77 416.5 68 c 128,-1,26
 421 59 421 59 434 59 c 1,27,28
 438 61 438 61 442 61 c 1,29,-1
 456 66 l 1,30,-1
 472 70 l 2,31,32
 479.5 71.5 479.5 71.5 481 73 c 1,33,-1
 498 21 l 1,0,1
166 575 m 1,34,-1
 99 575 l 1,35,-1
 201 729 l 1,36,-1
 284 729 l 1,37,-1
 390 574 l 1,38,-1
 321 574 l 1,39,-1
 242 656 l 1,40,-1
 166 575 l 1,34,-1
129 123 m 0,41,42
 129 59 129 59 208 59 c 0,43,44
 259 59 259 59 294 100.5 c 128,-1,45
 329 142 329 142 329 194 c 2,46,-1
 329 226 l 1,47,48
 221.142857143 226 221.142857143 226 177.5 202.5 c 0,49,50
 158 192 158 192 143.5 172 c 128,-1,51
 129 152 129 152 129 123 c 0,41,42
EndSplineSet
EndChar

StartChar: atilde
Encoding: 227 227 164
Width: 494
GlyphClass: 2
Flags: HMW
HStem: -11 70<184.5 209.5> -9 21G<381.5 418> 226 65<293 329> 444 65<221.5 278> 573 73<308.5 337 308.5 353.5> 612 34 612 73<169.5 203>
VStem: 44 85<101 173 101 195.5> 329 83<194 226 226 226 291 344 344 345>
LayerCount: 2
Fore
SplineSet
498 21 m 1,0,1
 428 -9 428 -9 402 -9 c 0,2,3
 343 -9 343 -9 331 59 c 1,4,5
 264 -11 264 -11 181 -11 c 0,6,7
 120 -11 120 -11 82 24 c 128,-1,8
 44 59 44 59 44 120 c 0,9,10
 44 291 44 291 329 291 c 1,11,-1
 329 344 l 2,12,13
 329 444 329 444 246 444 c 0,14,15
 207 444 207 444 167 428.5 c 128,-1,16
 127 413 127 413 103 385 c 1,17,-1
 62 444 l 1,18,19
 145 509 145 509 253 509 c 0,20,21
 331 509 331 509 371.5 466.5 c 128,-1,22
 412 424 412 424 412 345 c 2,23,-1
 412 97 l 2,24,25
 412 77 412 77 416.5 68 c 128,-1,26
 421 59 421 59 434 59 c 1,27,28
 438 61 438 61 442 61 c 1,29,-1
 456 66 l 1,30,-1
 472 70 l 2,31,32
 479.5 71.5 479.5 71.5 481 73 c 1,33,-1
 498 21 l 1,0,1
144 585 m 1,34,-1
 95 585 l 1,35,36
 99 625 99 625 125 655 c 128,-1,37
 151 685 151 685 184 685 c 128,-1,38
 217 685 217 685 263.5 665.5 c 128,-1,39
 310 646 310 646 333 646 c 128,-1,40
 356 646 356 646 365 672 c 1,41,-1
 412 672 l 1,42,43
 408 633 408 633 386 603 c 128,-1,44
 364 573 364 573 331 573 c 128,-1,45
 298 573 298 573 250 592.5 c 128,-1,46
 202 612 202 612 179.5 612 c 128,-1,47
 157 612 157 612 144 585 c 1,34,-1
129 123 m 0,48,49
 129 59 129 59 208 59 c 0,50,51
 259 59 259 59 294 100.5 c 128,-1,52
 329 142 329 142 329 194 c 2,53,-1
 329 226 l 1,54,55
 221.142857143 226 221.142857143 226 177.5 202.5 c 0,56,57
 158 192 158 192 143.5 172 c 128,-1,58
 129 152 129 152 129 123 c 0,48,49
EndSplineSet
EndChar

StartChar: adieresis
Encoding: 228 228 165
Width: 494
GlyphClass: 2
Flags: HMW
HStem: -11 70<184.5 209.5> -9 21G<381.5 418> 226 65<293 329> 444 65<221.5 278> 567 114<153.5 184.5 316.5 347.5>
VStem: 44 85<101 173 101 195.5> 113 113<608.5 639.5> 276 113<608.5 639.5> 329 83<194 226 226 226 291 344 344 345>
LayerCount: 2
Fore
SplineSet
498 21 m 1,0,1
 428 -9 428 -9 402 -9 c 0,2,3
 343 -9 343 -9 331 59 c 1,4,5
 264 -11 264 -11 181 -11 c 0,6,7
 120 -11 120 -11 82 24 c 128,-1,8
 44 59 44 59 44 120 c 0,9,10
 44 291 44 291 329 291 c 1,11,-1
 329 344 l 2,12,13
 329 444 329 444 246 444 c 0,14,15
 207 444 207 444 167 428.5 c 128,-1,16
 127 413 127 413 103 385 c 1,17,-1
 62 444 l 1,18,19
 145 509 145 509 253 509 c 0,20,21
 331 509 331 509 371.5 466.5 c 128,-1,22
 412 424 412 424 412 345 c 2,23,-1
 412 97 l 2,24,25
 412 77 412 77 416.5 68 c 128,-1,26
 421 59 421 59 434 59 c 1,27,28
 438 61 438 61 442 61 c 1,29,-1
 456 66 l 1,30,-1
 472 70 l 2,31,32
 479.5 71.5 479.5 71.5 481 73 c 1,33,-1
 498 21 l 1,0,1
113 624 m 128,-1,35
 113 647 113 647 129.5 664 c 128,-1,36
 146 681 146 681 169.5 681 c 128,-1,37
 193 681 193 681 209.5 664.5 c 128,-1,38
 226 648 226 648 226 624.5 c 128,-1,39
 226 601 226 601 209 584 c 128,-1,40
 192 567 192 567 169 567 c 128,-1,41
 146 567 146 567 129.5 584 c 128,-1,34
 113 601 113 601 113 624 c 128,-1,35
129 123 m 0,42,43
 129 59 129 59 208 59 c 0,44,45
 259 59 259 59 294 100.5 c 128,-1,46
 329 142 329 142 329 194 c 2,47,-1
 329 226 l 1,48,49
 221.142857143 226 221.142857143 226 177.5 202.5 c 0,50,51
 158 192 158 192 143.5 172 c 128,-1,52
 129 152 129 152 129 123 c 0,42,43
276 624 m 128,-1,54
 276 647 276 647 292.5 664 c 128,-1,55
 309 681 309 681 332.5 681 c 128,-1,56
 356 681 356 681 372.5 664.5 c 128,-1,57
 389 648 389 648 389 624.5 c 128,-1,58
 389 601 389 601 372 584 c 128,-1,59
 355 567 355 567 332 567 c 128,-1,60
 309 567 309 567 292.5 584 c 128,-1,53
 276 601 276 601 276 624 c 128,-1,54
EndSplineSet
EndChar

StartChar: aring
Encoding: 229 229 166
Width: 504
GlyphClass: 2
Flags: HMW
HStem: -11 70<184.5 209.5> -9 21G<381.5 418> 226 65<293 329> 444 65<221.5 278> 551 51<239.5 266.5 239.5 279.5> 698 52<239.5 266.5>
VStem: 44 85<101 173 101 195.5> 154 51<636.5 663.5 636.5 677> 301 51<636.5 663.5> 329 83<194 226 226 226 291 344 344 345>
LayerCount: 2
Fore
SplineSet
498 21 m 1,0,1
 428 -9 428 -9 402 -9 c 0,2,3
 343 -9 343 -9 331 59 c 1,4,5
 264 -11 264 -11 181 -11 c 0,6,7
 120 -11 120 -11 82 24 c 128,-1,8
 44 59 44 59 44 120 c 0,9,10
 44 291 44 291 329 291 c 1,11,-1
 329 344 l 2,12,13
 329 444 329 444 246 444 c 0,14,15
 207 444 207 444 167 428.5 c 128,-1,16
 127 413 127 413 103 385 c 1,17,-1
 62 444 l 1,18,19
 145 509 145 509 253 509 c 0,20,21
 331 509 331 509 371.5 466.5 c 128,-1,22
 412 424 412 424 412 345 c 2,23,-1
 412 97 l 2,24,25
 412 77 412 77 416.5 68 c 128,-1,26
 421 59 421 59 434 59 c 1,27,28
 438 61 438 61 442 61 c 1,29,-1
 456 66 l 1,30,-1
 472 70 l 2,31,32
 479.5 71.5 479.5 71.5 481 73 c 1,33,-1
 498 21 l 1,0,1
129 123 m 0,34,35
 129 59 129 59 208 59 c 0,36,37
 259 59 259 59 294 100.5 c 128,-1,38
 329 142 329 142 329 194 c 2,39,-1
 329 226 l 1,40,41
 221.142857143 226 221.142857143 226 177.5 202.5 c 0,42,43
 158 192 158 192 143.5 172 c 128,-1,44
 129 152 129 152 129 123 c 0,34,35
154 650 m 128,-1,46
 154 690 154 690 183.5 720 c 128,-1,47
 213 750 213 750 254 750 c 128,-1,48
 295 750 295 750 323.5 721 c 128,-1,49
 352 692 352 692 352 651 c 128,-1,50
 352 610 352 610 322.5 580.5 c 128,-1,51
 293 551 293 551 253 551 c 128,-1,52
 213 551 213 551 183.5 580.5 c 128,-1,45
 154 610 154 610 154 650 c 128,-1,46
205 650 m 128,-1,54
 205 630 205 630 219 616 c 128,-1,55
 233 602 233 602 253 602 c 128,-1,56
 273 602 273 602 287 616 c 128,-1,57
 301 630 301 630 301 650 c 128,-1,58
 301 670 301 670 287 684 c 128,-1,59
 273 698 273 698 253 698 c 128,-1,60
 233 698 233 698 219 684 c 128,-1,53
 205 670 205 670 205 650 c 128,-1,54
EndSplineSet
EndChar

StartChar: ae
Encoding: 230 230 167
Width: 750
GlyphClass: 2
Flags: HMW
HStem: -13 21G<511 579> -12 69 241 62<411 615 615 623.5> 444 65<221 274.5 221 278>
VStem: 41 86<104.5 173.5 104.5 198> 328 77 639 81<315.5 356>
LayerCount: 2
Fore
SplineSet
41 122 m 0,0,1
 41 166 41 166 59.5 199 c 128,-1,2
 78 232 78 232 106.5 251.5 c 128,-1,3
 135 271 135 271 174.5 283 c 0,4,5
 240.333333333 303 240.333333333 303 327 303 c 1,6,7
 328 307 328 307 328 315 c 2,8,-1
 328 327 l 2,9,10
 328 444 328 444 244 444 c 0,11,12
 205 444 205 444 165 428.5 c 128,-1,13
 125 413 125 413 100 385 c 1,14,-1
 59 443 l 1,15,16
 85 473 85 473 143.5 491 c 128,-1,17
 202 509 202 509 248 509 c 0,18,19
 346 509 346 509 386 444 c 1,20,21
 413 474 413 474 453 491.5 c 128,-1,22
 493 509 493 509 533 509 c 0,23,24
 625 509 625 509 672.5 459 c 128,-1,25
 720 409 720 409 720 317 c 0,26,27
 720 280 720 280 707 260.5 c 128,-1,28
 694 241 694 241 659 241 c 2,29,-1
 405 241 l 1,30,-1
 405 224 l 2,31,32
 405 161 405 161 445 109 c 128,-1,33
 485 57 485 57 547 57 c 0,34,35
 581 57 581 57 617.5 69 c 128,-1,36
 654 81 654 81 677 102 c 1,37,-1
 717 41 l 1,38,39
 648 -13 648 -13 551 -13 c 0,40,41
 431 -13 431 -13 359 85 c 1,42,43
 323 33 323 33 282 10.5 c 128,-1,44
 241 -12 241 -12 178.5 -12 c 128,-1,45
 116 -12 116 -12 78.5 23.5 c 128,-1,46
 41 59 41 59 41 122 c 0,0,1
145.5 183.5 m 128,-1,48
 127 160 127 160 127 127 c 128,-1,49
 127 94 127 94 149 76.5 c 128,-1,50
 171 59 171 59 205 59 c 0,51,52
 261 59 261 59 293.5 102.5 c 128,-1,53
 326 146 326 146 326 204 c 2,54,-1
 326 239 l 1,55,-1
 312 239 l 2,56,57
 249.818181818 239 249.818181818 239 193.5 218 c 0,58,47
 164 207 164 207 145.5 183.5 c 128,-1,48
411 303 m 1,59,-1
 615 303 l 2,60,61
 629 303 629 303 634 307 c 128,-1,62
 639 311 639 311 639 325 c 0,63,64
 639 377 639 377 616 411.5 c 128,-1,65
 593 446 593 446 540.5 446 c 128,-1,66
 488 446 488 446 454 403.5 c 128,-1,67
 420 361 420 361 411 303 c 1,59,-1
EndSplineSet
EndChar

StartChar: ccedilla
Encoding: 231 231 168
Width: 450
GlyphClass: 2
Flags: HMW
HStem: -220 51<229.5 250.5 229.5 268.5> -95 49<198 262> -13 69<268 299.5 224 303.5> 444 65<221.5 293.5>
VStem: 44 89<215 296.5 215 320.5> 283 83<-141.5 -118.5>
LayerCount: 2
Fore
SplineSet
44 248 m 0,0,1
 44 361 44 361 107.5 435 c 128,-1,2
 171 509 171 509 282 509 c 0,3,4
 357 509 357 509 426 458 c 1,5,-1
 381 400 l 1,6,7
 352 425 352 425 328.5 434.5 c 128,-1,8
 305 444 305 444 269 444 c 0,9,10
 204 444 204 444 168.5 385 c 128,-1,11
 133 326 133 326 133 268.5 c 0,12,13
 133 211 133 211 146.5 167 c 128,-1,14
 160 123 160 123 193.5 89.5 c 128,-1,15
 227 56 227 56 268.5 56 c 0,16,17
 310 56 310 56 335 66 c 128,-1,18
 360 76 360 76 395 100 c 1,19,-1
 433 37 l 1,20,21
 387 8 387 8 353.5 -2.5 c 128,-1,22
 320 -13 320 -13 268 -13 c 1,23,-1
 250 -46 l 1,24,-1
 262 -46 l 2,25,26
 303 -46 303 -46 334.5 -66 c 128,-1,27
 366 -86 366 -86 366 -127 c 0,28,29
 366 -220 366 -220 239 -220 c 0,30,31
 195 -220 195 -220 151 -192 c 1,32,-1
 175 -146 l 1,33,34
 219 -169 219 -169 238 -169 c 0,35,36
 257 -169 257 -169 270 -158 c 128,-1,37
 283 -147 283 -147 283 -130 c 0,38,39
 283 -95 283 -95 245 -95 c 2,40,-1
 198 -95 l 2,41,42
 182 -95 182 -95 182 -83 c 1,43,-1
 184 -77 l 1,44,-1
 223 -8 l 1,45,46
 142 9 142 9 93 84 c 128,-1,47
 44 159 44 159 44 248 c 0,0,1
EndSplineSet
EndChar

StartChar: egrave
Encoding: 232 232 169
Width: 494
GlyphClass: 2
Flags: HMW
HStem: -13 70<228 298.5 228 305> 256 62<138 347 347 355 138 402 132 347> 446 63<234.5 298.5> 708 20G<91 214 214 214>
VStem: 44 88<203.5 246 246 256 203.5 308> 364 89<331.5 367.5>
LayerCount: 2
Fore
SplineSet
105.5 59.5 m 128,-1,1
 44 132 44 132 44 241 c 128,-1,2
 44 350 44 350 100.5 429.5 c 128,-1,3
 157 509 157 509 260 509 c 0,4,5
 347 509 347 509 400 457.5 c 128,-1,6
 453 406 453 406 453 320 c 0,7,8
 453 256 453 256 402 256 c 2,9,-1
 132 256 l 1,10,-1
 132 246 l 2,11,12
 132 174 132 174 170.5 115.5 c 128,-1,13
 209 57 209 57 277 57 c 0,14,15
 310 57 310 57 346 69.5 c 128,-1,16
 382 82 382 82 406 103 c 1,17,-1
 443 43 l 1,18,19
 376 -13 376 -13 271.5 -13 c 128,-1,0
 167 -13 167 -13 105.5 59.5 c 128,-1,1
231 576 m 1,20,-1
 91 728 l 1,21,-1
 214 728 l 1,22,-1
 309 576 l 1,23,-1
 231 576 l 1,20,-1
138 318 m 1,24,-1
 347 318 l 2,25,26
 358 318 358 318 361 322.5 c 128,-1,27
 364 327 364 327 364 339 c 0,28,29
 364 384 364 384 338 415 c 128,-1,30
 312 446 312 446 266 446 c 128,-1,31
 220 446 220 446 183.5 406.5 c 128,-1,32
 147 367 147 367 138 318 c 1,24,-1
EndSplineSet
EndChar

StartChar: eacute
Encoding: 233 233 170
Width: 494
GlyphClass: 2
Flags: HMW
HStem: -13 70<228 298.5 228 305> 256 62<138 347 347 355 138 402 132 347> 446 63<234.5 298.5> 708 20G<315 437 437 437>
VStem: 44 88<203.5 246 246 256 203.5 308> 364 89<331.5 367.5>
LayerCount: 2
Fore
SplineSet
105.5 59.5 m 128,-1,1
 44 132 44 132 44 241 c 128,-1,2
 44 350 44 350 100.5 429.5 c 128,-1,3
 157 509 157 509 260 509 c 0,4,5
 347 509 347 509 400 457.5 c 128,-1,6
 453 406 453 406 453 320 c 0,7,8
 453 256 453 256 402 256 c 2,9,-1
 132 256 l 1,10,-1
 132 246 l 2,11,12
 132 174 132 174 170.5 115.5 c 128,-1,13
 209 57 209 57 277 57 c 0,14,15
 310 57 310 57 346 69.5 c 128,-1,16
 382 82 382 82 406 103 c 1,17,-1
 443 43 l 1,18,19
 376 -13 376 -13 271.5 -13 c 128,-1,0
 167 -13 167 -13 105.5 59.5 c 128,-1,1
138 318 m 1,20,-1
 347 318 l 2,21,22
 358 318 358 318 361 322.5 c 128,-1,23
 364 327 364 327 364 339 c 0,24,25
 364 384 364 384 338 415 c 128,-1,26
 312 446 312 446 266 446 c 128,-1,27
 220 446 220 446 183.5 406.5 c 128,-1,28
 147 367 147 367 138 318 c 1,20,-1
297 576 m 1,29,-1
 219 576 l 1,30,-1
 315 728 l 1,31,-1
 437 728 l 1,32,-1
 297 576 l 1,29,-1
EndSplineSet
EndChar

StartChar: ecircumflex
Encoding: 234 234 171
Width: 494
GlyphClass: 2
Flags: HMW
HStem: -13 70<228 298.5 228 305> 256 62<138 347 347 355 138 402 132 347> 446 63<234.5 298.5> 708 20G<217 300 300 300>
VStem: 44 88<203.5 246 246 256 203.5 308> 364 89<331.5 367.5>
LayerCount: 2
Fore
SplineSet
105.5 59.5 m 128,-1,1
 44 132 44 132 44 241 c 128,-1,2
 44 350 44 350 100.5 429.5 c 128,-1,3
 157 509 157 509 260 509 c 0,4,5
 347 509 347 509 400 457.5 c 128,-1,6
 453 406 453 406 453 320 c 0,7,8
 453 256 453 256 402 256 c 2,9,-1
 132 256 l 1,10,-1
 132 246 l 2,11,12
 132 174 132 174 170.5 115.5 c 128,-1,13
 209 57 209 57 277 57 c 0,14,15
 310 57 310 57 346 69.5 c 128,-1,16
 382 82 382 82 406 103 c 1,17,-1
 443 43 l 1,18,19
 376 -13 376 -13 271.5 -13 c 128,-1,0
 167 -13 167 -13 105.5 59.5 c 128,-1,1
182 574 m 1,20,-1
 115 574 l 1,21,-1
 217 728 l 1,22,-1
 300 728 l 1,23,-1
 406 573 l 1,24,-1
 337 573 l 1,25,-1
 258 655 l 1,26,-1
 182 574 l 1,20,-1
138 318 m 1,27,-1
 347 318 l 2,28,29
 358 318 358 318 361 322.5 c 128,-1,30
 364 327 364 327 364 339 c 0,31,32
 364 384 364 384 338 415 c 128,-1,33
 312 446 312 446 266 446 c 128,-1,34
 220 446 220 446 183.5 406.5 c 128,-1,35
 147 367 147 367 138 318 c 1,27,-1
EndSplineSet
EndChar

StartChar: edieresis
Encoding: 235 235 172
Width: 494
GlyphClass: 2
Flags: HMW
HStem: -13 70<228 298.5 228 305> 256 62<138 347 347 355 138 402 132 347> 446 63<234.5 298.5> 567 114<168.5 199.5 331.5 362.5>
VStem: 44 88<203.5 246 246 256 203.5 308> 128 113<608.5 639.5> 291 113<608.5 639.5> 364 89<331.5 367.5>
LayerCount: 2
Fore
SplineSet
105.5 59.5 m 128,-1,1
 44 132 44 132 44 241 c 128,-1,2
 44 350 44 350 100.5 429.5 c 128,-1,3
 157 509 157 509 260 509 c 0,4,5
 347 509 347 509 400 457.5 c 128,-1,6
 453 406 453 406 453 320 c 0,7,8
 453 256 453 256 402 256 c 2,9,-1
 132 256 l 1,10,-1
 132 246 l 2,11,12
 132 174 132 174 170.5 115.5 c 128,-1,13
 209 57 209 57 277 57 c 0,14,15
 310 57 310 57 346 69.5 c 128,-1,16
 382 82 382 82 406 103 c 1,17,-1
 443 43 l 1,18,19
 376 -13 376 -13 271.5 -13 c 128,-1,0
 167 -13 167 -13 105.5 59.5 c 128,-1,1
128 624 m 128,-1,21
 128 647 128 647 144.5 664 c 128,-1,22
 161 681 161 681 184.5 681 c 128,-1,23
 208 681 208 681 224.5 664.5 c 128,-1,24
 241 648 241 648 241 624.5 c 128,-1,25
 241 601 241 601 224 584 c 128,-1,26
 207 567 207 567 184 567 c 128,-1,27
 161 567 161 567 144.5 584 c 128,-1,20
 128 601 128 601 128 624 c 128,-1,21
138 318 m 1,28,-1
 347 318 l 2,29,30
 358 318 358 318 361 322.5 c 128,-1,31
 364 327 364 327 364 339 c 0,32,33
 364 384 364 384 338 415 c 128,-1,34
 312 446 312 446 266 446 c 128,-1,35
 220 446 220 446 183.5 406.5 c 128,-1,36
 147 367 147 367 138 318 c 1,28,-1
291 624 m 128,-1,38
 291 647 291 647 307.5 664 c 128,-1,39
 324 681 324 681 347.5 681 c 128,-1,40
 371 681 371 681 387.5 664.5 c 128,-1,41
 404 648 404 648 404 624.5 c 128,-1,42
 404 601 404 601 387 584 c 128,-1,43
 370 567 370 567 347 567 c 128,-1,44
 324 567 324 567 307.5 584 c 128,-1,37
 291 601 291 601 291 624 c 128,-1,38
EndSplineSet
EndChar

StartChar: igrave
Encoding: 236 236 173
Width: 250
GlyphClass: 2
Flags: HMW
HStem: 0 21G<84 167 84 84> 477 20G<72 167 167 167> 708 20G<-48 75 75 75>
VStem: 84 83<0 438 438 439.5>
LayerCount: 2
Fore
SplineSet
92 576 m 1,0,-1
 -48 728 l 1,1,-1
 75 728 l 1,2,-1
 170 576 l 1,3,-1
 92 576 l 1,0,-1
84 438 m 1,4,-1
 72 497 l 1,5,-1
 167 497 l 1,6,-1
 167 0 l 1,7,-1
 84 0 l 1,8,-1
 84 438 l 1,4,-1
EndSplineSet
EndChar

StartChar: iacute
Encoding: 237 237 174
Width: 250
GlyphClass: 2
Flags: HMW
HStem: 0 21G<84 167 84 84> 477 20G<72 167 167 167> 708 20G<164 286 286 286>
VStem: 84 83<0 438 438 439.5>
LayerCount: 2
Fore
SplineSet
146 576 m 1,0,-1
 68 576 l 1,1,-1
 164 728 l 1,2,-1
 286 728 l 1,3,-1
 146 576 l 1,0,-1
84 438 m 1,4,-1
 72 497 l 1,5,-1
 167 497 l 1,6,-1
 167 0 l 1,7,-1
 84 0 l 1,8,-1
 84 438 l 1,4,-1
EndSplineSet
EndChar

StartChar: icircumflex
Encoding: 238 238 175
Width: 250
GlyphClass: 2
Flags: HMW
HStem: 0 21G<84 167 84 84> 477 20G<72 167 167 167> 709 20G<81 164 164 164>
VStem: 84 83<0 438 438 439.5>
LayerCount: 2
Fore
SplineSet
46 575 m 1,0,-1
 -21 575 l 1,1,-1
 81 729 l 1,2,-1
 164 729 l 1,3,-1
 270 574 l 1,4,-1
 201 574 l 1,5,-1
 122 656 l 1,6,-1
 46 575 l 1,0,-1
84 438 m 1,7,-1
 72 497 l 1,8,-1
 167 497 l 1,9,-1
 167 0 l 1,10,-1
 84 0 l 1,11,-1
 84 438 l 1,7,-1
EndSplineSet
EndChar

StartChar: idieresis
Encoding: 239 239 176
Width: 250
GlyphClass: 2
Flags: HMW
HStem: 0 21G<84 167 84 84> 477 20G<72 167 167 167> 567 114<28.5 59.5 191.5 222.5>
VStem: -12 113<608.5 639.5> 84 83<0 438 438 439.5> 151 113<608.5 639.5>
LayerCount: 2
Fore
SplineSet
-12 624 m 128,-1,1
 -12 647 -12 647 4.5 664 c 128,-1,2
 21 681 21 681 44.5 681 c 128,-1,3
 68 681 68 681 84.5 664.5 c 128,-1,4
 101 648 101 648 101 624.5 c 128,-1,5
 101 601 101 601 84 584 c 128,-1,6
 67 567 67 567 44 567 c 128,-1,7
 21 567 21 567 4.5 584 c 128,-1,0
 -12 601 -12 601 -12 624 c 128,-1,1
84 438 m 1,8,-1
 72 497 l 1,9,-1
 167 497 l 1,10,-1
 167 0 l 1,11,-1
 84 0 l 1,12,-1
 84 438 l 1,8,-1
151 624 m 128,-1,14
 151 647 151 647 167.5 664 c 128,-1,15
 184 681 184 681 207.5 681 c 128,-1,16
 231 681 231 681 247.5 664.5 c 128,-1,17
 264 648 264 648 264 624.5 c 128,-1,18
 264 601 264 601 247 584 c 128,-1,19
 230 567 230 567 207 567 c 128,-1,20
 184 567 184 567 167.5 584 c 128,-1,13
 151 601 151 601 151 624 c 128,-1,14
EndSplineSet
EndChar

StartChar: eth
Encoding: 240 240 177
Width: 536
GlyphClass: 2
Flags: HMW
HStem: -10 60<216 320 216 340> 445 60<216 280.5 197.5 320> 752 20G<205 205>
VStem: 45 88<207 286.5 207 315.5> 403 88<206.5 287.5>
LayerCount: 2
Fore
SplineSet
45 247 m 128,-1,1
 45 355 45 355 105.5 430 c 128,-1,2
 166 505 166 505 268 505 c 0,3,4
 302 505 302 505 335 492 c 1,5,6
 294 572 294 572 239 640 c 1,7,-1
 134 582 l 1,8,-1
 103 622 l 1,9,-1
 207 680 l 1,10,-1
 178 712 l 1,11,-1
 150 739 l 1,12,-1
 205 772 l 1,13,-1
 232 746 l 2,14,15
 250 729 250 729 265 712 c 1,16,-1
 372 771 l 1,17,-1
 400 729 l 1,18,-1
 299 673 l 1,19,20
 491 443 491 443 491 247 c 0,21,22
 491 139 491 139 431.5 64.5 c 128,-1,23
 372 -10 372 -10 268 -10 c 128,-1,24
 164 -10 164 -10 104.5 64.5 c 128,-1,0
 45 139 45 139 45 247 c 128,-1,1
144 334 m 128,-1,26
 133 292 133 292 133 246.5 c 128,-1,27
 133 201 133 201 144 159.5 c 128,-1,28
 155 118 155 118 187.5 84 c 128,-1,29
 220 50 220 50 268 50 c 128,-1,30
 316 50 316 50 348.5 83.5 c 128,-1,31
 381 117 381 117 392 159 c 128,-1,32
 403 201 403 201 403 247 c 128,-1,33
 403 293 403 293 392 335 c 128,-1,34
 381 377 381 377 348.5 411 c 128,-1,35
 316 445 316 445 268 445 c 128,-1,36
 220 445 220 445 187.5 410.5 c 128,-1,25
 155 376 155 376 144 334 c 128,-1,26
EndSplineSet
EndChar

StartChar: ntilde
Encoding: 241 241 178
Width: 547
GlyphClass: 2
Flags: HMW
HStem: 0 21G<80 162 80 80 382 464 382 382> 435 74<282.5 338> 573 73<332 361.5 332 376.5> 612 34 612 73<193.5 226>
VStem: 80 82<0 352 352 369 0 372> 382 82<0 305 305 332 0 336>
LayerCount: 2
Fore
SplineSet
47 493 m 1,0,-1
 138 505 l 1,1,2
 153 467 153 467 157 434 c 1,3,4
 232 509 232 509 311 509 c 128,-1,5
 390 509 390 509 427 461.5 c 128,-1,6
 464 414 464 414 464 332 c 2,7,-1
 464 0 l 1,8,-1
 382 0 l 1,9,-1
 382 305 l 2,10,11
 382 381.117647059 382 381.117647059 362.5 407.5 c 0,12,13
 342.173913043 435 342.173913043 435 298 435 c 0,14,15
 232 435 232 435 162 369 c 1,16,-1
 162 0 l 1,17,-1
 80 0 l 1,18,-1
 80 352 l 2,19,20
 80 445 80 445 47 493 c 1,0,-1
167 585 m 1,21,-1
 117 585 l 1,22,23
 124 626 124 626 148.5 655.5 c 128,-1,24
 173 685 173 685 206.5 685 c 128,-1,25
 240 685 240 685 287 665.5 c 128,-1,26
 334 646 334 646 354 646 c 128,-1,27
 374 646 374 646 388 672 c 1,28,-1
 435 672 l 1,29,30
 431 633 431 633 409 603 c 128,-1,31
 387 573 387 573 354 573 c 128,-1,32
 321 573 321 573 273 592.5 c 128,-1,33
 225 612 225 612 207.5 612 c 0,34,35
 174.363636364 612 174.363636364 612 167 585 c 1,21,-1
EndSplineSet
EndChar

StartChar: ograve
Encoding: 242 242 179
Width: 536
GlyphClass: 2
Flags: HMW
HStem: -13 63<219.5 320 219.5 342> 446 63<216.5 319> 707 20G<96 218 218 218>
VStem: 44 88<208.5 290.5 208.5 314.5> 405 88<205.5 290>
LayerCount: 2
Fore
SplineSet
103.5 63.5 m 128,-1,1
 44 140 44 140 44 247 c 128,-1,2
 44 354 44 354 104 431.5 c 128,-1,3
 164 509 164 509 269 509 c 128,-1,4
 374 509 374 509 433.5 433 c 128,-1,5
 493 357 493 357 493 248 c 128,-1,6
 493 139 493 139 433.5 63 c 128,-1,7
 374 -13 374 -13 268.5 -13 c 128,-1,0
 163 -13 163 -13 103.5 63.5 c 128,-1,1
236 575 m 1,8,-1
 96 727 l 1,9,-1
 218 727 l 1,10,-1
 314 575 l 1,11,-1
 236 575 l 1,8,-1
143.5 337.5 m 128,-1,13
 132 295 132 295 132 249.5 c 128,-1,14
 132 204 132 204 145 161 c 128,-1,15
 158 118 158 118 190.5 84 c 128,-1,16
 223 50 223 50 270 50 c 128,-1,17
 317 50 317 50 349.5 83 c 128,-1,18
 382 116 382 116 393.5 158.5 c 128,-1,19
 405 201 405 201 405 248 c 128,-1,20
 405 295 405 295 393 337.5 c 128,-1,21
 381 380 381 380 348.5 413 c 128,-1,22
 316 446 316 446 268 446 c 128,-1,23
 220 446 220 446 187.5 413 c 128,-1,12
 155 380 155 380 143.5 337.5 c 128,-1,13
EndSplineSet
EndChar

StartChar: oacute
Encoding: 243 243 180
Width: 536
GlyphClass: 2
Flags: HMW
HStem: -13 63<219.5 320 219.5 342> 446 63<216.5 319> 707 20G<324 447 447 447>
VStem: 44 88<208.5 290.5 208.5 314.5> 405 88<205.5 290>
LayerCount: 2
Fore
SplineSet
103.5 63.5 m 128,-1,1
 44 140 44 140 44 247 c 128,-1,2
 44 354 44 354 104 431.5 c 128,-1,3
 164 509 164 509 269 509 c 128,-1,4
 374 509 374 509 433.5 433 c 128,-1,5
 493 357 493 357 493 248 c 128,-1,6
 493 139 493 139 433.5 63 c 128,-1,7
 374 -13 374 -13 268.5 -13 c 128,-1,0
 163 -13 163 -13 103.5 63.5 c 128,-1,1
143.5 337.5 m 128,-1,9
 132 295 132 295 132 249.5 c 128,-1,10
 132 204 132 204 145 161 c 128,-1,11
 158 118 158 118 190.5 84 c 128,-1,12
 223 50 223 50 270 50 c 128,-1,13
 317 50 317 50 349.5 83 c 128,-1,14
 382 116 382 116 393.5 158.5 c 128,-1,15
 405 201 405 201 405 248 c 128,-1,16
 405 295 405 295 393 337.5 c 128,-1,17
 381 380 381 380 348.5 413 c 128,-1,18
 316 446 316 446 268 446 c 128,-1,19
 220 446 220 446 187.5 413 c 128,-1,8
 155 380 155 380 143.5 337.5 c 128,-1,9
307 575 m 1,20,-1
 229 575 l 1,21,-1
 324 727 l 1,22,-1
 447 727 l 1,23,-1
 307 575 l 1,20,-1
EndSplineSet
EndChar

StartChar: ocircumflex
Encoding: 244 244 181
Width: 536
GlyphClass: 2
Flags: HMW
HStem: -13 63<219.5 320 219.5 342> 446 63<216.5 319> 707 20G<226 309 309 309>
VStem: 44 88<208.5 290.5 208.5 314.5> 405 88<205.5 290>
LayerCount: 2
Fore
SplineSet
103.5 63.5 m 128,-1,1
 44 140 44 140 44 247 c 128,-1,2
 44 354 44 354 104 431.5 c 128,-1,3
 164 509 164 509 269 509 c 128,-1,4
 374 509 374 509 433.5 433 c 128,-1,5
 493 357 493 357 493 248 c 128,-1,6
 493 139 493 139 433.5 63 c 128,-1,7
 374 -13 374 -13 268.5 -13 c 128,-1,0
 163 -13 163 -13 103.5 63.5 c 128,-1,1
191 573 m 1,8,-1
 124 573 l 1,9,-1
 226 727 l 1,10,-1
 309 727 l 1,11,-1
 415 572 l 1,12,-1
 346 572 l 1,13,-1
 267 654 l 1,14,-1
 191 573 l 1,8,-1
143.5 337.5 m 128,-1,16
 132 295 132 295 132 249.5 c 128,-1,17
 132 204 132 204 145 161 c 128,-1,18
 158 118 158 118 190.5 84 c 128,-1,19
 223 50 223 50 270 50 c 128,-1,20
 317 50 317 50 349.5 83 c 128,-1,21
 382 116 382 116 393.5 158.5 c 128,-1,22
 405 201 405 201 405 248 c 128,-1,23
 405 295 405 295 393 337.5 c 128,-1,24
 381 380 381 380 348.5 413 c 128,-1,25
 316 446 316 446 268 446 c 128,-1,26
 220 446 220 446 187.5 413 c 128,-1,15
 155 380 155 380 143.5 337.5 c 128,-1,16
EndSplineSet
EndChar

StartChar: otilde
Encoding: 245 245 182
Width: 536
GlyphClass: 2
Flags: HMW
HStem: -13 63<219.5 320 219.5 342> 446 63<216.5 319> 573 73<334.5 363 334.5 379.5> 612 34 612 73<195.5 229>
VStem: 44 88<208.5 290.5 208.5 314.5> 405 88<205.5 290>
LayerCount: 2
Fore
SplineSet
103.5 63.5 m 128,-1,1
 44 140 44 140 44 247 c 128,-1,2
 44 354 44 354 104 431.5 c 128,-1,3
 164 509 164 509 269 509 c 128,-1,4
 374 509 374 509 433.5 433 c 128,-1,5
 493 357 493 357 493 248 c 128,-1,6
 493 139 493 139 433.5 63 c 128,-1,7
 374 -13 374 -13 268.5 -13 c 128,-1,0
 163 -13 163 -13 103.5 63.5 c 128,-1,1
170 585 m 1,8,-1
 121 585 l 1,9,10
 125 625 125 625 151 655 c 128,-1,11
 177 685 177 685 210 685 c 128,-1,12
 243 685 243 685 289.5 665.5 c 128,-1,13
 336 646 336 646 359 646 c 128,-1,14
 382 646 382 646 391 672 c 1,15,-1
 438 672 l 1,16,17
 434 633 434 633 412 603 c 128,-1,18
 390 573 390 573 357 573 c 128,-1,19
 324 573 324 573 276 592.5 c 128,-1,20
 228 612 228 612 205.5 612 c 128,-1,21
 183 612 183 612 170 585 c 1,8,-1
143.5 337.5 m 128,-1,23
 132 295 132 295 132 249.5 c 128,-1,24
 132 204 132 204 145 161 c 128,-1,25
 158 118 158 118 190.5 84 c 128,-1,26
 223 50 223 50 270 50 c 128,-1,27
 317 50 317 50 349.5 83 c 128,-1,28
 382 116 382 116 393.5 158.5 c 128,-1,29
 405 201 405 201 405 248 c 128,-1,30
 405 295 405 295 393 337.5 c 128,-1,31
 381 380 381 380 348.5 413 c 128,-1,32
 316 446 316 446 268 446 c 128,-1,33
 220 446 220 446 187.5 413 c 128,-1,22
 155 380 155 380 143.5 337.5 c 128,-1,23
EndSplineSet
EndChar

StartChar: odieresis
Encoding: 246 246 183
Width: 536
GlyphClass: 2
Flags: HMW
HStem: -13 63<219.5 320 219.5 342> 446 63<216.5 319> 567 114<174.5 205.5 337.5 368.5>
VStem: 44 88<208.5 290.5 208.5 314.5> 133 113<608.5 639.5> 296 114<608.5 639.5> 405 88<205.5 290>
LayerCount: 2
Fore
SplineSet
103.5 63.5 m 128,-1,1
 44 140 44 140 44 247 c 128,-1,2
 44 354 44 354 104 431.5 c 128,-1,3
 164 509 164 509 269 509 c 128,-1,4
 374 509 374 509 433.5 433 c 128,-1,5
 493 357 493 357 493 248 c 128,-1,6
 493 139 493 139 433.5 63 c 128,-1,7
 374 -13 374 -13 268.5 -13 c 128,-1,0
 163 -13 163 -13 103.5 63.5 c 128,-1,1
143.5 337.5 m 128,-1,9
 132 295 132 295 132 249.5 c 128,-1,10
 132 204 132 204 145 161 c 128,-1,11
 158 118 158 118 190.5 84 c 128,-1,12
 223 50 223 50 270 50 c 128,-1,13
 317 50 317 50 349.5 83 c 128,-1,14
 382 116 382 116 393.5 158.5 c 128,-1,15
 405 201 405 201 405 248 c 128,-1,16
 405 295 405 295 393 337.5 c 128,-1,17
 381 380 381 380 348.5 413 c 128,-1,18
 316 446 316 446 268 446 c 128,-1,19
 220 446 220 446 187.5 413 c 128,-1,8
 155 380 155 380 143.5 337.5 c 128,-1,9
133 624 m 128,-1,21
 133 647 133 647 150 664 c 128,-1,22
 167 681 167 681 190 681 c 128,-1,23
 213 681 213 681 229.5 664 c 128,-1,24
 246 647 246 647 246 624 c 128,-1,25
 246 601 246 601 229.5 584 c 128,-1,26
 213 567 213 567 190 567 c 128,-1,27
 167 567 167 567 150 584 c 128,-1,20
 133 601 133 601 133 624 c 128,-1,21
296 624 m 128,-1,29
 296 647 296 647 313 664 c 128,-1,30
 330 681 330 681 353 681 c 128,-1,31
 376 681 376 681 393 664 c 128,-1,32
 410 647 410 647 410 624 c 128,-1,33
 410 601 410 601 393 584 c 128,-1,34
 376 567 376 567 353 567 c 128,-1,35
 330 567 330 567 313 584 c 128,-1,28
 296 601 296 601 296 624 c 128,-1,29
EndSplineSet
EndChar

StartChar: divide
Encoding: 247 247 184
Width: 630
GlyphClass: 2
Flags: HMW
HStem: 20 120<299.5 332.5> 211 70<68 567 68 567> 353 121<299.5 332.5>
VStem: 255 121<63.5 96.5 396.5 429.5>
LayerCount: 2
Fore
SplineSet
567 211 m 1,0,-1
 68 211 l 1,1,-1
 68 281 l 1,2,-1
 567 281 l 1,3,-1
 567 211 l 1,0,-1
255 80 m 128,-1,5
 255 105 255 105 273 122.5 c 128,-1,6
 291 140 291 140 316 140 c 128,-1,7
 341 140 341 140 358.5 122.5 c 128,-1,8
 376 105 376 105 376 80 c 128,-1,9
 376 55 376 55 358.5 37.5 c 128,-1,10
 341 20 341 20 316 20 c 128,-1,11
 291 20 291 20 273 37.5 c 128,-1,4
 255 55 255 55 255 80 c 128,-1,5
255 413 m 128,-1,13
 255 438 255 438 273 456 c 128,-1,14
 291 474 291 474 316 474 c 128,-1,15
 341 474 341 474 358.5 456 c 128,-1,16
 376 438 376 438 376 413 c 128,-1,17
 376 388 376 388 358.5 370.5 c 128,-1,18
 341 353 341 353 316 353 c 128,-1,19
 291 353 291 353 273 370.5 c 128,-1,12
 255 388 255 388 255 413 c 128,-1,13
EndSplineSet
EndChar

StartChar: oslash
Encoding: 248 248 185
Width: 537
GlyphClass: 2
Flags: HMW
HStem: -69 21G<101 101> -13 63<254 320 254 342> 446 63<216 281> 533 20G<420 420>
VStem: 44 85<228.5 290.5 228.5 314.5> 407 86<205.5 269.5>
LayerCount: 2
Fore
SplineSet
113 53 m 1,0,1
 44 126 44 126 44 240 c 128,-1,2
 44 354 44 354 104 431.5 c 128,-1,3
 164 509 164 509 268 509 c 0,4,5
 325 509 325 509 376 482 c 1,6,-1
 420 553 l 1,7,-1
 470 526 l 1,8,-1
 421 446 l 1,9,10
 493 373 493 373 493 256 c 128,-1,11
 493 139 493 139 433.5 63 c 128,-1,12
 374 -13 374 -13 268 -13 c 0,13,14
 206 -13 206 -13 157 17 c 1,15,-1
 101 -69 l 1,16,-1
 54 -38 l 1,17,-1
 113 53 l 1,0,1
141.5 337.5 m 128,-1,19
 129 295 129 295 129 236.5 c 128,-1,20
 129 178 129 178 158 127 c 1,21,-1
 339 422 l 1,22,23
 307 446 307 446 263 446 c 128,-1,24
 219 446 219 446 186.5 413 c 128,-1,18
 154 380 154 380 141.5 337.5 c 128,-1,19
378 375 m 1,25,-1
 194 79 l 1,26,27
 226 50 226 50 271.5 50 c 128,-1,28
 317 50 317 50 349.5 83 c 0,29,30
 407 141.384615385 407 141.384615385 407 248 c 0,31,32
 407 321 407 321 378 375 c 1,25,-1
EndSplineSet
EndChar

StartChar: ugrave
Encoding: 249 249 186
Width: 553
GlyphClass: 2
Flags: HMW
HStem: -13 74<208 260.5> -9 21G<434.5 471> 477 20G<67 163 163 163 369 465 465 465> 707 20G<95 218 218 218>
VStem: 80 83<164 191 191 438 438 439> 382 83<188 438 438 439>
LayerCount: 2
Fore
SplineSet
80 438 m 1,0,-1
 67 497 l 1,1,-1
 163 497 l 1,2,-1
 163 191 l 2,3,4
 163 96.7777777778 163 96.7777777778 201 72.5 c 0,5,6
 219 61 219 61 246 61 c 0,7,8
 302 61 302 61 342 96.5 c 128,-1,9
 382 132 382 132 382 188 c 2,10,-1
 382 438 l 1,11,12
 369 497 l 1,13,-1
 465 497 l 1,14,-1
 465 97 l 2,15,16
 465 77 465 77 469.5 68 c 128,-1,17
 474 59 474 59 487 59 c 0,18,19
 487.5 59 487.5 59 489.75 59.75 c 128,-1,20
 492 60.5 492 60.5 494 61 c 2,21,-1
 510 66 l 1,22,-1
 525 70 l 2,23,24
 532.5 71.5 532.5 71.5 534 73 c 1,25,-1
 551 21 l 1,26,27
 481 -9 481 -9 455 -9 c 0,28,29
 397 -9 397 -9 385 59 c 1,30,31
 315 -13 315 -13 234.5 -13 c 128,-1,32
 154 -13 154 -13 117 34.5 c 128,-1,33
 80 82 80 82 80 164 c 2,34,-1
 80 438 l 1,0,-1
235 575 m 1,35,-1
 95 727 l 1,36,-1
 218 727 l 1,37,-1
 313 575 l 1,38,-1
 235 575 l 1,35,-1
EndSplineSet
EndChar

StartChar: uacute
Encoding: 250 250 187
Width: 553
GlyphClass: 2
Flags: HMW
HStem: -13 74<208 260.5> -9 21G<434.5 471> 477 20G<67 163 163 163 369 465 465 465> 707 20G<322 444 444 444>
VStem: 80 83<164 191 191 438 438 439> 382 83<188 438 438 439>
LayerCount: 2
Fore
SplineSet
80 438 m 1,0,-1
 67 497 l 1,1,-1
 163 497 l 1,2,-1
 163 191 l 2,3,4
 163 96.7777777778 163 96.7777777778 201 72.5 c 0,5,6
 219 61 219 61 246 61 c 0,7,8
 302 61 302 61 342 96.5 c 128,-1,9
 382 132 382 132 382 188 c 2,10,-1
 382 438 l 1,11,12
 369 497 l 1,13,-1
 465 497 l 1,14,-1
 465 97 l 2,15,16
 465 77 465 77 469.5 68 c 128,-1,17
 474 59 474 59 487 59 c 0,18,19
 487.5 59 487.5 59 489.75 59.75 c 128,-1,20
 492 60.5 492 60.5 494 61 c 2,21,-1
 510 66 l 1,22,-1
 525 70 l 2,23,24
 532.5 71.5 532.5 71.5 534 73 c 1,25,-1
 551 21 l 1,26,27
 481 -9 481 -9 455 -9 c 0,28,29
 397 -9 397 -9 385 59 c 1,30,31
 315 -13 315 -13 234.5 -13 c 128,-1,32
 154 -13 154 -13 117 34.5 c 128,-1,33
 80 82 80 82 80 164 c 2,34,-1
 80 438 l 1,0,-1
304 575 m 1,35,-1
 227 575 l 1,36,-1
 322 727 l 1,37,-1
 444 727 l 1,38,-1
 304 575 l 1,35,-1
EndSplineSet
EndChar

StartChar: ucircumflex
Encoding: 251 251 188
Width: 553
GlyphClass: 2
Flags: HMW
HStem: -13 74<208 260.5> -9 21G<434.5 471> 477 20G<67 163 163 163 369 465 465 465> 700 20G<222 306 306 306>
VStem: 80 83<164 191 191 438 438 439> 382 83<188 438 438 439>
LayerCount: 2
Fore
SplineSet
80 438 m 1,0,-1
 67 497 l 1,1,-1
 163 497 l 1,2,-1
 163 191 l 2,3,4
 163 96.7777777778 163 96.7777777778 201 72.5 c 0,5,6
 219 61 219 61 246 61 c 0,7,8
 302 61 302 61 342 96.5 c 128,-1,9
 382 132 382 132 382 188 c 2,10,-1
 382 438 l 1,11,12
 369 497 l 1,13,-1
 465 497 l 1,14,-1
 465 97 l 2,15,16
 465 77 465 77 469.5 68 c 128,-1,17
 474 59 474 59 487 59 c 0,18,19
 487.5 59 487.5 59 489.75 59.75 c 128,-1,20
 492 60.5 492 60.5 494 61 c 2,21,-1
 510 66 l 1,22,-1
 525 70 l 2,23,24
 532.5 71.5 532.5 71.5 534 73 c 1,25,-1
 551 21 l 1,26,27
 481 -9 481 -9 455 -9 c 0,28,29
 397 -9 397 -9 385 59 c 1,30,31
 315 -13 315 -13 234.5 -13 c 128,-1,32
 154 -13 154 -13 117 34.5 c 128,-1,33
 80 82 80 82 80 164 c 2,34,-1
 80 438 l 1,0,-1
188 566 m 1,35,-1
 120 566 l 1,36,-1
 222 720 l 1,37,-1
 306 720 l 1,38,-1
 412 565 l 1,39,-1
 342 565 l 1,40,-1
 264 647 l 1,41,-1
 188 566 l 1,35,-1
EndSplineSet
EndChar

StartChar: udieresis
Encoding: 252 252 189
Width: 553
GlyphClass: 2
Flags: HMW
HStem: -13 74<208 260.5> -9 21G<434.5 471> 477 20G<67 163 163 163 369 465 465 465> 567 114<170.5 201.5 333.5 364.5>
VStem: 80 83<164 191 191 438 438 439> 129 113<608.5 639.5 608.5 640> 292 114<608.5 639.5 608.5 640> 382 83<188 438 438 439>
LayerCount: 2
Fore
SplineSet
80 438 m 1,0,-1
 67 497 l 1,1,-1
 163 497 l 1,2,-1
 163 191 l 2,3,4
 163 96.7777777778 163 96.7777777778 201 72.5 c 0,5,6
 219 61 219 61 246 61 c 0,7,8
 302 61 302 61 342 96.5 c 128,-1,9
 382 132 382 132 382 188 c 2,10,-1
 382 438 l 1,11,12
 369 497 l 1,13,-1
 465 497 l 1,14,-1
 465 97 l 2,15,16
 465 77 465 77 469.5 68 c 128,-1,17
 474 59 474 59 487 59 c 0,18,19
 487.5 59 487.5 59 489.75 59.75 c 128,-1,20
 492 60.5 492 60.5 494 61 c 2,21,-1
 510 66 l 1,22,-1
 525 70 l 2,23,24
 532.5 71.5 532.5 71.5 534 73 c 1,25,-1
 551 21 l 1,26,27
 481 -9 481 -9 455 -9 c 0,28,29
 397 -9 397 -9 385 59 c 1,30,31
 315 -13 315 -13 234.5 -13 c 128,-1,32
 154 -13 154 -13 117 34.5 c 128,-1,33
 80 82 80 82 80 164 c 2,34,-1
 80 438 l 1,0,-1
146 584 m 128,-1,36
 129 601 129 601 129 624.5 c 128,-1,37
 129 648 129 648 145.5 664.5 c 128,-1,38
 162 681 162 681 185.5 681 c 128,-1,39
 209 681 209 681 225.5 664 c 128,-1,40
 242 647 242 647 242 624 c 128,-1,41
 242 601 242 601 225.5 584 c 128,-1,42
 209 567 209 567 186 567 c 128,-1,35
 163 567 163 567 146 584 c 128,-1,36
309 584 m 128,-1,44
 292 601 292 601 292 624.5 c 128,-1,45
 292 648 292 648 308.5 664.5 c 128,-1,46
 325 681 325 681 348.5 681 c 128,-1,47
 372 681 372 681 389 664 c 128,-1,48
 406 647 406 647 406 624 c 128,-1,49
 406 601 406 601 389 584 c 128,-1,50
 372 567 372 567 349 567 c 128,-1,43
 326 567 326 567 309 584 c 128,-1,44
EndSplineSet
EndChar

StartChar: yacute
Encoding: 253 253 190
Width: 456
GlyphClass: 2
Flags: HMW
HStem: -217 67<38 49 49 76 38 49> 477 20G<12 102 102 102 366 444 444 444> 703 20G<295 417 417 417>
LayerCount: 2
Fore
SplineSet
194 4 m 1,0,-1
 12 497 l 1,1,-1
 102 497 l 1,2,-1
 234 119 l 1,3,-1
 366 497 l 1,4,-1
 444 497 l 1,5,-1
 268 -2 l 1,6,7
 195 -217 195 -217 76 -217 c 2,8,-1
 38 -217 l 1,9,-1
 38 -150 l 1,10,-1
 49 -150 l 2,11,12
 107.784313725 -150 107.784313725 -150 144.5 -96.5 c 0,13,14
 173.154580153 -54.7461832061 173.154580153 -54.7461832061 194 4 c 1,0,-1
277 571 m 1,15,-1
 199 571 l 1,16,-1
 295 723 l 1,17,-1
 417 723 l 1,18,-1
 277 571 l 1,15,-1
EndSplineSet
EndChar

StartChar: thorn
Encoding: 254 254 191
Width: 557
GlyphClass: 2
Flags: HMW
HStem: -212 21G<84 166 84 84> -11 60<268.5 341.5 250.5 363> 438 66<288.5 341> 742 20G<70 166 166 166>
VStem: 84 82<-212 43 162 204 204 372 438 704 704 704.5> 423 88<209 290.5>
LayerCount: 2
Fore
SplineSet
84 704 m 1,0,1
 82 710 82 710 82 714 c 2,2,-1
 78 732 l 1,3,4
 70 758 70 758 70 762 c 1,5,-1
 166 762 l 1,6,-1
 166 438 l 1,7,8
 232 504 232 504 320.5 504 c 128,-1,9
 409 504 409 504 460 428.5 c 128,-1,10
 511 353 511 353 511 248 c 128,-1,11
 511 143 511 143 452.5 66 c 128,-1,12
 394 -11 394 -11 294 -11 c 0,13,14
 217 -11 217 -11 166 43 c 1,15,-1
 166 -212 l 1,16,-1
 84 -212 l 1,17,-1
 84 704 l 1,0,1
166 372 m 1,18,-1
 166 204 l 2,19,20
 166 138 166 138 199.5 93.5 c 128,-1,21
 233 49 233 49 285.5 49 c 128,-1,22
 338 49 338 49 369.5 83.5 c 0,23,24
 423 142.095238095 423 142.095238095 423 249 c 0,25,26
 423 323 423 323 391 380.5 c 128,-1,27
 359 438 359 438 291 438 c 128,-1,28
 223 438 223 438 166 372 c 1,18,-1
EndSplineSet
EndChar

StartChar: ydieresis
Encoding: 255 255 192
Width: 456
GlyphClass: 2
Flags: HMW
HStem: -217 67<38 49 49 76 38 49> 477 20G<12 102 102 102 366 444 444 444> 571 114<139.5 170.5 302.5 333.5>
VStem: 98 114<612.5 643.5> 262 113<612.5 643.5>
LayerCount: 2
Fore
SplineSet
194 4 m 1,0,-1
 12 497 l 1,1,-1
 102 497 l 1,2,-1
 234 119 l 1,3,-1
 366 497 l 1,4,-1
 444 497 l 1,5,-1
 268 -2 l 1,6,7
 195 -217 195 -217 76 -217 c 2,8,-1
 38 -217 l 1,9,-1
 38 -150 l 1,10,-1
 49 -150 l 2,11,12
 107.784313725 -150 107.784313725 -150 144.5 -96.5 c 0,13,14
 173.154580153 -54.7461832061 173.154580153 -54.7461832061 194 4 c 1,0,-1
98 628 m 128,-1,16
 98 651 98 651 115 668 c 128,-1,17
 132 685 132 685 155.5 685 c 128,-1,18
 179 685 179 685 195.5 668.5 c 128,-1,19
 212 652 212 652 212 628.5 c 128,-1,20
 212 605 212 605 195 588 c 128,-1,21
 178 571 178 571 155 571 c 128,-1,22
 132 571 132 571 115 588 c 128,-1,15
 98 605 98 605 98 628 c 128,-1,16
262 628 m 128,-1,24
 262 651 262 651 278.5 668 c 128,-1,25
 295 685 295 685 318.5 685 c 128,-1,26
 342 685 342 685 358.5 668.5 c 128,-1,27
 375 652 375 652 375 628.5 c 128,-1,28
 375 605 375 605 358 588 c 128,-1,29
 341 571 341 571 318 571 c 128,-1,30
 295 571 295 571 278.5 588 c 128,-1,23
 262 605 262 605 262 628 c 128,-1,24
EndSplineSet
EndChar

StartChar: dotlessi
Encoding: 305 305 193
Width: 252
GlyphClass: 2
Flags: HMW
HStem: 0 21G<84 167 84 84> 477 20G<72 167 167 167>
VStem: 84 83<0 438 438 439.5>
LayerCount: 2
Fore
SplineSet
84 438 m 1,0,-1
 72 497 l 1,1,-1
 167 497 l 1,2,-1
 167 0 l 1,3,-1
 84 0 l 1,4,-1
 84 438 l 1,0,-1
EndSplineSet
EndChar

StartChar: Lslash
Encoding: 321 321 194
Width: 493
GlyphClass: 2
Flags: HMW
HStem: 0 69<179 485 179 485> 708 20G<72 179 179 179>
VStem: 8 171<241 310 310 310> 86 93<69 277 277 277 389 662 662 662.5>
LayerCount: 2
Fore
SplineSet
86 662 m 1,0,1
 84 668 84 668 84 672 c 2,2,-1
 80 694 l 1,3,-1
 74 716 l 2,4,5
 73.4342585459 719.960190179 73.4342585459 719.960190179 72.717129273 723.762965816 c 128,-1,6
 72 727.565741454 72 727.565741454 72 728 c 2,7,-1
 179 728 l 1,8,-1
 179 389 l 1,9,-1
 385 485 l 1,10,-1
 385 416 l 1,11,-1
 179 320 l 1,12,-1
 179 69 l 1,13,-1
 485 69 l 1,14,-1
 485 0 l 1,15,-1
 86 0 l 1,16,-1
 86 277 l 1,17,-1
 8 241 l 1,18,-1
 8 310 l 1,19,-1
 86 346 l 1,20,-1
 86 662 l 1,0,1
EndSplineSet
EndChar

StartChar: lslash
Encoding: 322 322 195
Width: 247
GlyphClass: 2
Flags: HMW
HStem: 0 21G<82 165 82 82> 741 20G<69 165 165 165>
VStem: 11 154<265 334 334 334> 82 83<0 298 298 298 406 703 703 704.5> 82 154<0 439 298 439 370 439 370 703>
LayerCount: 2
Fore
SplineSet
82 703 m 1,0,-1
 69 761 l 1,1,-1
 165 761 l 1,2,-1
 165 406 l 1,3,-1
 236 439 l 1,4,-1
 236 370 l 1,5,-1
 165 337 l 1,6,-1
 165 0 l 1,7,-1
 82 0 l 1,8,-1
 82 298 l 1,9,-1
 11 265 l 1,10,-1
 11 334 l 1,11,-1
 82 367 l 1,12,-1
 82 703 l 1,0,-1
EndSplineSet
EndChar

StartChar: OE
Encoding: 338 338 196
Width: 1048
GlyphClass: 2
Flags: HMW
HStem: -12 70<288.5 414> 0 58 0 71<692 1021 692 1021> 338 72<692 947 692 947> 669 59 717 20G<266.5 419.5>
VStem: 51 98<291.5 435 291.5 466> 598 94<71 94 94 94 292 338 410 436>
LayerCount: 2
Fore
SplineSet
133 96.5 m 128,-1,1
 51 205 51 205 51 365.5 c 128,-1,2
 51 526 51 526 135 631.5 c 128,-1,3
 219 737 219 737 368.5 737 c 128,-1,4
 518 737 518 737 599 633 c 1,5,-1
 599 728 l 1,6,-1
 1021 728 l 1,7,-1
 1021 658 l 1,8,-1
 692 658 l 1,9,-1
 692 410 l 1,10,-1
 947 410 l 1,11,-1
 947 338 l 1,12,-1
 692 338 l 1,13,-1
 692 71 l 1,14,-1
 1021 71 l 1,15,-1
 1021 0 l 1,16,-1
 598 0 l 1,17,-1
 598 94 l 1,18,19
 512 -12 512 -12 363.5 -12 c 128,-1,0
 215 -12 215 -12 133 96.5 c 128,-1,1
160.5 472.5 m 128,-1,21
 149 421 149 421 149 363.5 c 128,-1,22
 149 306 149 306 160.5 254.5 c 128,-1,23
 172 203 172 203 197 157.5 c 128,-1,24
 222 112 222 112 267 85 c 128,-1,25
 312 58 312 58 373 58 c 128,-1,26
 434 58 434 58 479.5 85 c 128,-1,27
 525 112 525 112 550 157.5 c 0,28,29
 598 244.86 598 244.86 598 364 c 0,30,31
 598 481.8 598 481.8 549 570 c 0,32,33
 524 615 524 615 479 642 c 128,-1,34
 434 669 434 669 373 669 c 128,-1,35
 312 669 312 669 267 642 c 128,-1,36
 222 615 222 615 197 569.5 c 128,-1,20
 172 524 172 524 160.5 472.5 c 128,-1,21
EndSplineSet
EndChar

StartChar: oe
Encoding: 339 339 197
Width: 842
GlyphClass: 2
Flags: HMW
HStem: -13 70<599 667.5 591.5 668.5> 256 62<501 703 703 710.5 501 761 494 703> 446 63<217 307 197 320 595 661>
VStem: 44 86<207.5 290.5 207.5 314.5> 407 87<208 256 208 290> 727 81<326.5 366>
LayerCount: 2
Fore
SplineSet
104 63.5 m 128,-1,1
 44 140 44 140 44 247 c 128,-1,2
 44 354 44 354 105 431.5 c 128,-1,3
 166 509 166 509 269 509 c 0,4,5
 388 509 388 509 450 410 c 1,6,7
 478 456 478 456 523 482.5 c 128,-1,8
 568 509 568 509 621 509 c 0,9,10
 705 509 705 509 756.5 456.5 c 128,-1,11
 808 404 808 404 808 320 c 0,12,13
 808 256 808 256 761 256 c 2,14,-1
 494 256 l 1,15,16
 494 175 494 175 532 116 c 128,-1,17
 570 57 570 57 647 57 c 0,18,19
 677 57 677 57 711 70.5 c 128,-1,20
 745 84 745 84 769 104 c 1,21,-1
 804 43 l 1,22,23
 740 -13 740 -13 637 -13 c 0,24,25
 579 -13 579 -13 529 12 c 128,-1,26
 479 37 479 37 449 84 c 1,27,28
 388 -13 388 -13 269 -13 c 0,29,0
 164 -13 164 -13 104 63.5 c 128,-1,1
142.5 337.5 m 128,-1,31
 130 295 130 295 130 249.5 c 128,-1,32
 130 204 130 204 143.5 160.5 c 128,-1,33
 157 117 157 117 190 83.5 c 128,-1,34
 223 50 223 50 270.5 50 c 128,-1,35
 318 50 318 50 350.5 83 c 0,36,37
 407 140.369230769 407 140.369230769 407 248 c 0,38,39
 407 354.615384615 407 354.615384615 349.5 413 c 0,40,41
 317 446 317 446 268.5 446 c 128,-1,42
 220 446 220 446 187.5 413 c 128,-1,30
 155 380 155 380 142.5 337.5 c 128,-1,31
501 318 m 1,43,-1
 703 318 l 2,44,45
 719.125 318 719.125 318 723.0625 322.5 c 128,-1,46
 727 327 727 327 727 336 c 0,47,48
 727 383 727 383 701 414.5 c 128,-1,49
 675 446 675 446 628 446 c 128,-1,50
 581 446 581 446 545.5 407 c 128,-1,51
 510 368 510 368 501 318 c 1,43,-1
EndSplineSet
EndChar

StartChar: Scaron
Encoding: 352 352 198
Width: 516
GlyphClass: 2
Flags: HMW
HStem: -12 72<208.5 271.5 208.5 301> 608 71<243.5 305> 853 20G<118 187 187 187 341 409 409 409>
VStem: 52 100<438 542 438 558> 385 100<135.5 262.5>
LayerCount: 2
Fore
SplineSet
32 42 m 1,0,-1
 68 124 l 1,1,2
 101 95 101 95 147.5 77.5 c 128,-1,3
 194 60 194 60 244.5 60 c 0,4,5
 295 60 295 60 340 90 c 128,-1,6
 385 120 385 120 385 172 c 0,7,8
 385 224 385 224 350.5 255.5 c 128,-1,9
 316 287 316 287 267 305.5 c 128,-1,10
 218 324 218 324 169.5 344.5 c 128,-1,11
 121 365 121 365 86.5 403.5 c 128,-1,12
 52 442 52 442 52 500 c 0,13,14
 52 582 52 582 120.5 630.5 c 128,-1,15
 189 679 189 679 284.5 679 c 0,16,17
 380 679 380 679 468 625 c 1,18,-1
 422 558 l 1,19,20
 353 608 353 608 288 608 c 0,21,22
 223 608 223 608 187.5 582.5 c 128,-1,23
 152 557 152 557 152 508 c 0,24,25
 152 476 152 476 176.5 450.5 c 128,-1,26
 201 425 201 425 238 410.5 c 128,-1,27
 275 396 275 396 318.5 376 c 128,-1,28
 362 356 362 356 399 335.5 c 128,-1,29
 436 315 436 315 460.5 277.5 c 128,-1,30
 485 240 485 240 485 190 c 0,31,32
 485 91 485 91 413.5 39.5 c 128,-1,33
 342 -12 342 -12 239.5 -12 c 0,34,35
 137 -12 137 -12 32 42 c 1,0,-1
222 697 m 1,36,-1
 118 873 l 1,37,-1
 187 873 l 1,38,-1
 264 770 l 1,39,-1
 341 873 l 1,40,-1
 409 873 l 1,41,-1
 306 697 l 1,42,-1
 222 697 l 1,36,-1
EndSplineSet
EndChar

StartChar: scaron
Encoding: 353 353 199
Width: 430
GlyphClass: 2
Flags: HMW
HStem: -13 63<174.5 214.5 174.5 246.5> 446 63<222.5 258.5 191 259.5> 708 20G<69 138 138 138 292 360 360 360>
VStem: 60 85<322.5 404.5 322.5 414> 293 86<92 176>
LayerCount: 2
Fore
SplineSet
51 29 m 1,0,-1
 86 90 l 1,1,2
 144 50 144 50 188.5 50 c 0,3,4
 233 50 233 50 263 66 c 128,-1,5
 293 82 293 82 293 116.5 c 0,6,7
 293 151 293 151 269 173.5 c 128,-1,8
 245 196 245 196 210.5 211.5 c 128,-1,9
 176 227 176 227 142 244 c 128,-1,10
 108 261 108 261 84 291.5 c 128,-1,11
 60 322 60 322 60 364 c 0,12,13
 60 434 60 434 111.5 471.5 c 128,-1,14
 163 509 163 509 237 509 c 0,15,16
 311 509 311 509 368 474 c 1,17,-1
 339 410 l 1,18,19
 292 446 292 446 248.5 446 c 0,20,21
 205 446 205 446 175 430 c 128,-1,22
 145 414 145 414 145 381 c 0,23,24
 145 348 145 348 169 325.5 c 128,-1,25
 193 303 193 303 227.5 287.5 c 128,-1,26
 262 272 262 272 296.5 254.5 c 128,-1,27
 331 237 331 237 355 206 c 128,-1,28
 379 175 379 175 379 132 c 0,29,30
 379 57 379 57 328 22 c 128,-1,31
 277 -13 277 -13 203.5 -13 c 0,32,33
 130 -13 130 -13 51 29 c 1,0,-1
173 552 m 1,34,-1
 69 728 l 1,35,-1
 138 728 l 1,36,-1
 215 625 l 1,37,-1
 292 728 l 1,38,-1
 360 728 l 1,39,-1
 257 552 l 1,40,-1
 173 552 l 1,34,-1
EndSplineSet
EndChar

StartChar: Ydieresis
Encoding: 376 376 200
Width: 584
GlyphClass: 2
Flags: HMW
HStem: 0 21G<248 343 248 248> 717 114<204 236 367.5 399>
VStem: 163 114<758 790> 248 95<0 300 0 300> 326 114<758.5 789.5>
LayerCount: 2
Fore
SplineSet
248 300 m 1,0,-1
 32 669 l 1,1,-1
 139 669 l 1,2,-1
 308 385 l 1,3,-1
 465 669 l 1,4,-1
 553 669 l 1,5,-1
 343 300 l 1,6,-1
 343 0 l 1,7,-1
 248 0 l 1,8,-1
 248 300 l 1,0,-1
163 774 m 128,-1,10
 163 798 163 798 179.5 814.5 c 128,-1,11
 196 831 196 831 220 831 c 128,-1,12
 244 831 244 831 260.5 814.5 c 128,-1,13
 277 798 277 798 277 774 c 128,-1,14
 277 750 277 750 260.5 733.5 c 128,-1,15
 244 717 244 717 220 717 c 128,-1,16
 196 717 196 717 179.5 733.5 c 128,-1,9
 163 750 163 750 163 774 c 128,-1,10
326 774 m 128,-1,18
 326 797 326 797 343 814 c 128,-1,19
 360 831 360 831 383.5 831 c 0,20,21
 407 831 407 831 423.5 814.5 c 128,-1,22
 440 798 440 798 440 774 c 128,-1,23
 440 750 440 750 423.5 733.5 c 128,-1,24
 407 717 407 717 383.5 717 c 0,25,26
 360 717 360 717 343 734 c 128,-1,17
 326 751 326 751 326 774 c 128,-1,18
EndSplineSet
EndChar

StartChar: Zcaron
Encoding: 381 381 201
Width: 571
GlyphClass: 2
Flags: HMW
HStem: 0 69<146 529> 599 69<57 413 57 524> 853 20G<153 222 222 222 376 444 444 444>
LayerCount: 2
Fore
SplineSet
529 0 m 1,0,-1
 35 0 l 1,1,-1
 35 67 l 1,2,-1
 413 599 l 1,3,-1
 57 599 l 1,4,-1
 57 668 l 1,5,-1
 524 668 l 1,6,-1
 524 601 l 1,7,-1
 146 69 l 1,8,-1
 537 69 l 1,9,-1
 529 0 l 1,0,-1
257 697 m 1,10,-1
 153 873 l 1,11,-1
 222 873 l 1,12,-1
 299 770 l 1,13,-1
 376 873 l 1,14,-1
 444 873 l 1,15,-1
 341 697 l 1,16,-1
 257 697 l 1,10,-1
EndSplineSet
EndChar

StartChar: zcaron
Encoding: 382 382 202
Width: 445
GlyphClass: 2
Flags: HMW
HStem: 0 63<143 402> 433 64<55 289 55 401> 707 20G<82 151 151 151 305 373 373 373>
LayerCount: 2
Fore
SplineSet
402 0 m 1,0,-1
 32 0 l 1,1,-1
 32 47 l 1,2,-1
 289 433 l 1,3,-1
 55 433 l 1,4,-1
 55 497 l 1,5,-1
 401 497 l 1,6,-1
 401 449 l 1,7,-1
 143 63 l 1,8,-1
 413 63 l 1,9,-1
 402 0 l 1,0,-1
186 551 m 1,10,-1
 82 727 l 1,11,-1
 151 727 l 1,12,-1
 228 624 l 1,13,-1
 305 727 l 1,14,-1
 373 727 l 1,15,-1
 270 551 l 1,16,-1
 186 551 l 1,10,-1
EndSplineSet
EndChar

StartChar: florin
Encoding: 402 402 203
Width: 297
GlyphClass: 2
Flags: HMW
HStem: -219 62<-87.5 -75 -81 -75 -75 -72> 434 63<184 335 193 317> 674 64<260 306>
LayerCount: 2
Fore
SplineSet
-98 -217 m 1,0,-1
 -81 -157 l 1,1,-1
 -75 -157 l 2,2,3
 -40 -157 -40 -157 -17.5 -129 c 128,-1,4
 5 -101 5 -101 12 -63 c 2,5,-1
 98 434 l 1,6,-1
 20 434 l 1,7,-1
 20 487 l 1,8,9
 75 490 75 490 81 491 c 0,10,11
 98 494 98 494 109.5 521 c 128,-1,12
 121 548 121 548 132 583.5 c 128,-1,13
 143 619 143 619 160.5 654 c 128,-1,14
 178 689 178 689 216.5 713.5 c 128,-1,15
 255 738 255 738 305 738 c 0,16,17
 355 738 355 738 394 711 c 1,18,-1
 374 641 l 1,19,20
 347 674 347 674 292 674 c 0,21,22
 225 674 225 674 193 497 c 1,23,-1
 335 497 l 1,24,-1
 317 434 l 1,25,-1
 184 434 l 1,26,-1
 148 201 l 2,27,28
 129 82 129 82 109.5 -15.5 c 0,29,30
 90 -113 90 -113 46.5 -166 c 128,-1,31
 3 -219 3 -219 -72 -219 c 2,32,-1
 -85 -219 l 2,33,34
 -90 -219 -90 -219 -98 -217 c 1,0,-1
EndSplineSet
EndChar

StartChar: circumflex
Encoding: 710 710 204
Width: 275
GlyphClass: 2
Flags: HMW
HStem: 565 21G<214 283 214 214> 566 21G<-8 59 -8 -8> 700 20G<94 177 177 177>
LayerCount: 2
Fore
SplineSet
59 566 m 1,0,-1
 -8 566 l 1,1,-1
 94 720 l 1,2,-1
 177 720 l 1,3,-1
 283 565 l 1,4,-1
 214 565 l 1,5,-1
 135 647 l 1,6,-1
 59 566 l 1,0,-1
EndSplineSet
EndChar

StartChar: caron
Encoding: 711 711 205
Width: 275
GlyphClass: 2
Flags: HMW
HStem: 547 21G<96 96 96 180> 703 20G<-8 61 61 61 215 283 283 283>
LayerCount: 2
Fore
SplineSet
96 547 m 1,0,-1
 -8 723 l 1,1,-1
 61 723 l 1,2,-1
 138 620 l 1,3,-1
 215 723 l 1,4,-1
 283 723 l 1,5,-1
 180 547 l 1,6,-1
 96 547 l 1,0,-1
EndSplineSet
EndChar

StartChar: breve
Encoding: 728 728 206
Width: 276
GlyphClass: 2
Flags: HMW
HStem: 562 69<114 162.5 114 183.5> 562 139<-2 183.5>
LayerCount: 2
Fore
SplineSet
-2 701 m 1,0,-1
 48 701 l 1,1,2
 64 631 64 631 138 631 c 128,-1,3
 212 631 212 631 228 701 c 1,4,-1
 277 701 l 1,5,6
 262 562 262 562 138 562 c 0,7,8
 74 562 74 562 39.5 599 c 128,-1,9
 5 636 5 636 -2 701 c 1,0,-1
EndSplineSet
EndChar

StartChar: dotaccent
Encoding: 729 729 207
Width: 285
GlyphClass: 2
Flags: HMW
HStem: 559 132<125 161>
VStem: 77 132<607 643 607 643.5>
LayerCount: 2
Fore
SplineSet
96.5 578.5 m 128,-1,1
 77 598 77 598 77 625.5 c 128,-1,2
 77 653 77 653 96 672 c 128,-1,3
 115 691 115 691 142.5 691 c 128,-1,4
 170 691 170 691 189.5 671.5 c 128,-1,5
 209 652 209 652 209 625 c 128,-1,6
 209 598 209 598 189.5 578.5 c 128,-1,7
 170 559 170 559 143 559 c 128,-1,0
 116 559 116 559 96.5 578.5 c 128,-1,1
EndSplineSet
EndChar

StartChar: ring
Encoding: 730 730 208
Width: 281
GlyphClass: 2
Flags: HMW
HStem: 551 51<126.5 153.5 126.5 166.5> 698 52<126.5 153.5>
VStem: 41 51<636.5 663.5 636.5 677> 188 51<636.5 663.5>
LayerCount: 2
Fore
SplineSet
41 650 m 128,-1,1
 41 690 41 690 70.5 720 c 128,-1,2
 100 750 100 750 141 750 c 0,3,4
 182 750 182 750 210.5 721 c 128,-1,5
 239 692 239 692 239 651 c 0,6,7
 239 610 239 610 209.5 580.5 c 128,-1,8
 180 551 180 551 140 551 c 128,-1,9
 100 551 100 551 70.5 580.5 c 128,-1,0
 41 610 41 610 41 650 c 128,-1,1
92 650 m 128,-1,11
 92 630 92 630 106 616 c 128,-1,12
 120 602 120 602 140 602 c 128,-1,13
 160 602 160 602 174 616 c 128,-1,14
 188 630 188 630 188 650 c 128,-1,15
 188 670 188 670 174 684 c 128,-1,16
 160 698 160 698 140 698 c 128,-1,17
 120 698 120 698 106 684 c 128,-1,10
 92 670 92 670 92 650 c 128,-1,11
EndSplineSet
EndChar

StartChar: ogonek
Encoding: 731 731 209
Width: 279
GlyphClass: 2
Flags: HMW
HStem: -202 55<142.5 145.5> 5 20G<211 211>
VStem: 25 83<-117.5 -80>
LayerCount: 2
Fore
SplineSet
25 -118 m 0,0,1
 25 -67 25 -67 88 -26 c 128,-1,2
 151 15 151 15 211 25 c 1,3,-1
 231 14 l 1,4,5
 225 10 225 10 203.5 -1.5 c 128,-1,6
 182 -13 182 -13 169.5 -21.5 c 128,-1,7
 157 -30 157 -30 140.5 -43 c 0,8,9
 108 -68.6060606061 108 -68.6060606061 108 -102 c 0,10,11
 108 -147 108 -147 157 -147 c 0,12,13
 185 -147 185 -147 237 -115 c 1,14,-1
 254 -152 l 1,15,16
 187 -202 187 -202 121 -202 c 0,17,18
 79 -202 79 -202 52 -180.5 c 128,-1,19
 25 -159 25 -159 25 -118 c 0,0,1
EndSplineSet
EndChar

StartChar: tilde
Encoding: 732 732 210
Width: 353
GlyphClass: 2
Flags: HMW
HStem: 573 73<229.5 258 229.5 274.5> 612 34 612 73<90.5 124>
LayerCount: 2
Fore
SplineSet
65 585 m 1,0,-1
 16 585 l 1,1,2
 20 625 20 625 46 655 c 128,-1,3
 72 685 72 685 105 685 c 0,4,5
 138 685 138 685 184.5 665.5 c 128,-1,6
 231 646 231 646 254 646 c 0,7,8
 277 646 277 646 286 672 c 1,9,-1
 333 672 l 1,10,11
 329 633 329 633 307 603 c 128,-1,12
 285 573 285 573 252 573 c 0,13,14
 219 573 219 573 171 592.5 c 128,-1,15
 123 612 123 612 100.5 612 c 0,16,17
 78 612 78 612 65 585 c 1,0,-1
EndSplineSet
EndChar

StartChar: hungarumlaut
Encoding: 733 733 211
Width: 405
GlyphClass: 2
Flags: HMW
HStem: 557 170<34 233 34 233 176 176 176 233 115 237>
LayerCount: 2
Fore
SplineSet
96 557 m 1,0,-1
 34 557 l 1,1,-1
 115 727 l 1,2,-1
 233 727 l 1,3,-1
 96 557 l 1,0,-1
237 557 m 1,4,-1
 176 557 l 1,5,-1
 257 727 l 1,6,-1
 374 727 l 1,7,-1
 237 557 l 1,4,-1
EndSplineSet
EndChar

StartChar: pi
Encoding: 960 960 212
Width: 669
GlyphClass: 2
Flags: HMW
HStem: -24 21G<114 114> -5 70<502 519.5> 429 68<269 439 269 269> 499 20G<602 602>
VStem: 42 227 180 89<268.5 338 338 393 393 399> 383 84<151 213 151 217>
LayerCount: 2
Fore
SplineSet
42 362 m 1,0,1
 46 423 46 423 89 460 c 128,-1,2
 132 497 132 497 204 497 c 2,3,-1
 504 497 l 2,4,5
 565 497 565 497 602 519 c 1,6,-1
 627 478 l 1,7,8
 593 434 593 434 513 429 c 1,9,10
 467 289 467 289 467 171 c 0,11,12
 467 131 467 131 480.5 98 c 128,-1,13
 494 65 494 65 522.5 65 c 128,-1,14
 551 65 551 65 570 75 c 1,15,-1
 582 51 l 1,16,17
 586 40 586 40 593 28 c 1,18,19
 556 -5 556 -5 507.5 -5 c 128,-1,20
 459 -5 459 -5 431 24 c 0,21,22
 383 73.7142857143 383 73.7142857143 383 171 c 0,23,24
 383 320 383 320 439 429 c 1,25,-1
 269 429 l 1,26,-1
 269 338 l 2,27,28
 269 163.387096774 269 163.387096774 232.5 84.5 c 0,29,30
 217 51 217 51 186.5 21 c 128,-1,31
 156 -9 156 -9 114 -24 c 1,32,-1
 102 -6 l 1,33,34
 96 5 96 5 89 13 c 1,35,36
 133 37 133 37 156.5 81 c 128,-1,37
 180 125 180 125 180 179 c 2,38,-1
 180 393 l 2,39,40
 180 403 180 403 186 429 c 1,41,42
 149 426 149 426 123 405 c 128,-1,43
 97 384 97 384 89 349 c 1,44,-1
 65 355 l 2,45,46
 49 359 49 359 42 362 c 1,0,1
EndSplineSet
EndChar

StartChar: endash
Encoding: 8211 8211 213
Width: 502
GlyphClass: 2
Flags: HMW
HStem: 230 62<8 493 8 493>
LayerCount: 2
Fore
SplineSet
493 230 m 1,0,-1
 8 230 l 1,1,-1
 8 292 l 1,2,-1
 493 292 l 1,3,-1
 493 230 l 1,0,-1
EndSplineSet
EndChar

StartChar: emdash
Encoding: 8212 8212 214
Width: 852
GlyphClass: 2
Flags: HMW
HStem: 230 61<8 843 8 843>
LayerCount: 2
Fore
SplineSet
843 230 m 1,0,-1
 8 230 l 1,1,-1
 8 291 l 1,2,-1
 843 291 l 1,3,-1
 843 230 l 1,0,-1
EndSplineSet
EndChar

StartChar: quoteleft
Encoding: 8216 8216 215
Width: 286
GlyphClass: 2
Flags: HMW
HStem: 482 21G<123 164.5> 713 20G
VStem: 71 137<544.5 554.5 524.5 601.5>
LayerCount: 2
Fore
SplineSet
71 567 m 0,0,1
 71 656 71 656 173 733 c 1,2,3
 191 717 191 717 207 699 c 1,4,5
 173.6 665.6 173.6 665.6 165.8 651.3 c 128,-1,6
 158 637 158 637 158 627.5 c 128,-1,7
 158 618 158 618 166 610 c 2,8,-1
 183 594 l 1,9,10
 208 569 208 569 208 542.5 c 128,-1,11
 208 516 208 516 190.5 499 c 128,-1,12
 173 482 173 482 142.5 482 c 128,-1,13
 112 482 112 482 91.5 507 c 128,-1,14
 71 532 71 532 71 567 c 0,0,1
EndSplineSet
EndChar

StartChar: quoteright
Encoding: 8217 8217 216
Width: 286
GlyphClass: 2
Flags: HMW
HStem: 482 21G 713 20G<119.5 161>
VStem: 75 137<660.5 670.5 613.5 690.5> 125 87<574 670.5>
LayerCount: 2
Fore
SplineSet
100 621 m 2,0,1
 75 646 75 646 75 672.5 c 128,-1,2
 75 699 75 699 93 716 c 128,-1,3
 111 733 111 733 141.5 733 c 128,-1,4
 172 733 172 733 192 708 c 128,-1,5
 212 683 212 683 212 648 c 0,6,7
 212 559 212 559 110 482 c 1,8,9
 92 498 92 498 76 516 c 1,10,11
 109.4 549.4 109.4 549.4 117.2 563.7 c 128,-1,12
 125 578 125 578 125 587 c 128,-1,13
 125 596 125 596 117 604 c 2,14,-1
 100 621 l 2,0,1
EndSplineSet
EndChar

StartChar: quotesinglbase
Encoding: 8218 8218 217
Width: 276
GlyphClass: 2
Flags: HMW
HStem: -127 21G 104 20G<113.5 155>
VStem: 69 137<51.5 61.5 4.5 81.5> 119 87<-35 61.5>
LayerCount: 2
Fore
SplineSet
94 12 m 1,0,1
 69 37 69 37 69 63.5 c 128,-1,2
 69 90 69 90 87 107 c 128,-1,3
 105 124 105 124 135.5 124 c 128,-1,4
 166 124 166 124 186 99 c 128,-1,5
 206 74 206 74 206 39 c 0,6,7
 206 -50 206 -50 104 -127 c 1,8,9
 86 -111 86 -111 70 -93 c 1,10,11
 103.4 -59.6 103.4 -59.6 111.2 -45.3 c 128,-1,12
 119 -31 119 -31 119 -21.5 c 128,-1,13
 119 -12 119 -12 111 -4 c 2,14,-1
 94 12 l 1,0,1
EndSplineSet
EndChar

StartChar: quotedblleft
Encoding: 8220 8220 218
Width: 487
GlyphClass: 2
Flags: HMW
HStem: 482 21G<123 164.5 318 359.5> 713 20G
VStem: 71 87<544.5 641> 71 137<544.5 554.5 524.5 601.5> 266 87<544.5 641> 266 137<544.5 554.5 524.5 601.5>
LayerCount: 2
Fore
SplineSet
71 567 m 0,0,1
 71 656 71 656 173 733 c 1,2,3
 191 717 191 717 207 699 c 1,4,5
 173.6 665.6 173.6 665.6 165.8 651.3 c 128,-1,6
 158 637 158 637 158 627.5 c 128,-1,7
 158 618 158 618 166 610 c 2,8,-1
 183 594 l 1,9,10
 208 569 208 569 208 542.5 c 128,-1,11
 208 516 208 516 190.5 499 c 128,-1,12
 173 482 173 482 142.5 482 c 128,-1,13
 112 482 112 482 91.5 507 c 128,-1,14
 71 532 71 532 71 567 c 0,0,1
266 567 m 0,15,16
 266 656 266 656 368 733 c 1,17,18
 386 717 386 717 402 699 c 1,19,20
 368.6 665.6 368.6 665.6 360.8 651.3 c 128,-1,21
 353 637 353 637 353 627.5 c 128,-1,22
 353 618 353 618 361 610 c 2,23,-1
 378 594 l 1,24,25
 403 569 403 569 403 542.5 c 128,-1,26
 403 516 403 516 385.5 499 c 128,-1,27
 368 482 368 482 337.5 482 c 128,-1,28
 307 482 307 482 286.5 507 c 128,-1,29
 266 532 266 532 266 567 c 0,15,16
EndSplineSet
EndChar

StartChar: quotedblright
Encoding: 8221 8221 219
Width: 487
GlyphClass: 2
Flags: HMW
HStem: 482 21G 713 20G<123.5 165 318.5 360>
VStem: 79 137<660.5 670.5 613.5 690.5> 129 87<574 670.5> 274 137<660.5 670.5 613.5 690.5> 324 87<574 670.5>
LayerCount: 2
Fore
SplineSet
104 621 m 2,0,1
 79 646 79 646 79 672.5 c 128,-1,2
 79 699 79 699 97 716 c 128,-1,3
 115 733 115 733 145.5 733 c 128,-1,4
 176 733 176 733 196 708 c 128,-1,5
 216 683 216 683 216 648 c 0,6,7
 216 559 216 559 114 482 c 1,8,9
 96 498 96 498 80 516 c 1,10,11
 113.4 549.4 113.4 549.4 121.2 563.7 c 128,-1,12
 129 578 129 578 129 587 c 128,-1,13
 129 596 129 596 121 604 c 2,14,-1
 104 621 l 2,0,1
299 621 m 2,15,16
 274 646 274 646 274 672.5 c 128,-1,17
 274 699 274 699 292 716 c 128,-1,18
 310 733 310 733 340.5 733 c 128,-1,19
 371 733 371 733 391 708 c 128,-1,20
 411 683 411 683 411 648 c 0,21,22
 411 559 411 559 309 482 c 1,23,24
 291 498 291 498 275 516 c 1,25,26
 308.4 549.4 308.4 549.4 316.2 563.7 c 128,-1,27
 324 578 324 578 324 587 c 128,-1,28
 324 596 324 596 316 604 c 2,29,-1
 299 621 l 2,15,16
EndSplineSet
EndChar

StartChar: quotedblbase
Encoding: 8222 8222 220
Width: 477
GlyphClass: 2
Flags: HMW
HStem: -127 21G 104 20G<119.5 161 308.5 350>
VStem: 75 137<51.5 61.5 4.5 81.5> 125 87<-35 61.5> 264 137<51.5 61.5 4.5 81.5> 314 87<-35 61.5>
LayerCount: 2
Fore
SplineSet
100 12 m 1,0,1
 75 37 75 37 75 63.5 c 128,-1,2
 75 90 75 90 93 107 c 128,-1,3
 111 124 111 124 141.5 124 c 128,-1,4
 172 124 172 124 192 99 c 128,-1,5
 212 74 212 74 212 39 c 0,6,7
 212 -50 212 -50 110 -127 c 1,8,9
 92 -111 92 -111 76 -93 c 1,10,11
 109.4 -59.6 109.4 -59.6 117.2 -45.3 c 128,-1,12
 125 -31 125 -31 125 -21.5 c 128,-1,13
 125 -12 125 -12 117 -4 c 2,14,-1
 100 12 l 1,0,1
289 12 m 1,15,16
 264 37 264 37 264 63.5 c 128,-1,17
 264 90 264 90 282 107 c 128,-1,18
 300 124 300 124 330.5 124 c 128,-1,19
 361 124 361 124 381 99 c 128,-1,20
 401 74 401 74 401 39 c 0,21,22
 401 -50 401 -50 299 -127 c 1,23,24
 281 -111 281 -111 265 -93 c 1,25,26
 298.4 -59.6 298.4 -59.6 306.2 -45.3 c 128,-1,27
 314 -31 314 -31 314 -21.5 c 128,-1,28
 314 -12 314 -12 306 -4 c 2,29,-1
 289 12 l 1,15,16
EndSplineSet
EndChar

StartChar: dagger
Encoding: 8224 8224 221
Width: 523
GlyphClass: 2
Flags: HMW
HStem: -138 21G<245 291 245 245> 720 20G<264 264>
VStem: 218 81 236 63
LayerCount: 2
Fore
SplineSet
117 440 m 1,0,-1
 51 485 l 1,1,-1
 117 529 l 1,2,-1
 243 504 l 1,3,-1
 217 658 l 1,4,-1
 264 740 l 1,5,-1
 316 658 l 1,6,-1
 289 504 l 1,7,-1
 418 529 l 1,8,-1
 482 481 l 1,9,-1
 418 440 l 1,10,-1
 289 462 l 1,11,-1
 304 383 l 1,12,13
 315 313 315 313 315 297 c 128,-1,14
 315 281 315 281 314 270 c 2,15,-1
 312 234 l 2,16,17
 312 224 312 224 310 200 c 128,-1,18
 308 176 308 176 307 160 c 2,19,-1
 291 -138 l 1,20,-1
 245 -138 l 1,21,-1
 227 160 l 1,22,-1
 224 200 l 1,23,-1
 222 234 l 1,24,25
 218 266 218 266 218 293 c 128,-1,26
 218 320 218 320 228 384 c 1,27,-1
 237 429 l 1,28,-1
 243 462 l 1,29,-1
 117 440 l 1,0,-1
EndSplineSet
EndChar

StartChar: daggerdbl
Encoding: 8225 8225 222
Width: 523
GlyphClass: 2
Flags: HMW
HStem: -139 21G<270 270> 720 20G<264 264>
LayerCount: 2
Fore
SplineSet
117 68 m 1,0,-1
 51 117 l 1,1,-1
 117 155 l 1,2,-1
 244 135 l 1,3,-1
 230 224 l 1,4,5
 218 286 218 286 218 303 c 128,-1,6
 218 320 218 320 228 384 c 1,7,-1
 237 429 l 1,8,-1
 243 462 l 1,9,-1
 117 440 l 1,10,-1
 51 485 l 1,11,-1
 117 529 l 1,12,-1
 243 504 l 1,13,-1
 217 658 l 1,14,-1
 264 740 l 1,15,-1
 316 658 l 1,16,-1
 289 504 l 1,17,-1
 418 529 l 1,18,-1
 482 481 l 1,19,-1
 418 440 l 1,20,-1
 289 462 l 1,21,22
 290 455 290 455 304 382 c 1,23,-1
 312 334 l 2,24,25
 316 315 316 315 316 304.5 c 128,-1,26
 316 294 316 294 306 224 c 2,27,-1
 292 135 l 1,28,-1
 415 155 l 1,29,-1
 482 112 l 1,30,-1
 415 68 l 1,31,-1
 293 93 l 1,32,-1
 316 -61 l 1,33,-1
 270 -139 l 1,34,-1
 217 -61 l 1,35,-1
 243 93 l 1,36,-1
 117 68 l 1,0,-1
EndSplineSet
EndChar

StartChar: bullet
Encoding: 8226 8226 223
Width: 441
GlyphClass: 2
Flags: HMW
HStem: 196 21G<176.5 265.5> 498 20G<176.5 265.5>
LayerCount: 2
Fore
SplineSet
60 357 m 128,-1,1
 60 424 60 424 107 471 c 128,-1,2
 154 518 154 518 221 518 c 128,-1,3
 288 518 288 518 334.5 471 c 128,-1,4
 381 424 381 424 381 357 c 128,-1,5
 381 290 381 290 334.5 243 c 128,-1,6
 288 196 288 196 221 196 c 128,-1,7
 154 196 154 196 107 243 c 128,-1,0
 60 290 60 290 60 357 c 128,-1,1
EndSplineSet
EndChar

StartChar: ellipsis
Encoding: 8230 8230 224
Width: 714
GlyphClass: 2
Flags: HMW
HStem: -13 132<130 166 341 377 552 588>
VStem: 82 132<35 71 35 71.5> 293 132<35 71 35 71.5> 504 132<35 71 35 71.5>
CounterMasks: 1 70
LayerCount: 2
Fore
SplineSet
101.5 6.5 m 128,-1,1
 82 26 82 26 82 53.5 c 128,-1,2
 82 81 82 81 101 100 c 128,-1,3
 120 119 120 119 147.5 119 c 128,-1,4
 175 119 175 119 194.5 99.5 c 128,-1,5
 214 80 214 80 214 53 c 128,-1,6
 214 26 214 26 194.5 6.5 c 128,-1,7
 175 -13 175 -13 148 -13 c 128,-1,0
 121 -13 121 -13 101.5 6.5 c 128,-1,1
312.5 6.5 m 128,-1,9
 293 26 293 26 293 53.5 c 128,-1,10
 293 81 293 81 312 100 c 128,-1,11
 331 119 331 119 358.5 119 c 128,-1,12
 386 119 386 119 405.5 99.5 c 128,-1,13
 425 80 425 80 425 53 c 128,-1,14
 425 26 425 26 405.5 6.5 c 128,-1,15
 386 -13 386 -13 359 -13 c 128,-1,8
 332 -13 332 -13 312.5 6.5 c 128,-1,9
523.5 6.5 m 128,-1,17
 504 26 504 26 504 53.5 c 128,-1,18
 504 81 504 81 523 100 c 128,-1,19
 542 119 542 119 569.5 119 c 128,-1,20
 597 119 597 119 616.5 99.5 c 128,-1,21
 636 80 636 80 636 53 c 128,-1,22
 636 26 636 26 616.5 6.5 c 128,-1,23
 597 -13 597 -13 570 -13 c 128,-1,16
 543 -13 543 -13 523.5 6.5 c 128,-1,17
EndSplineSet
EndChar

StartChar: perthousand
Encoding: 8240 8240 225
Width: 1148
GlyphClass: 2
Flags: HMW
HStem: -13 21G<183 247 183 183> -5 59<559 623 559 643.5 909 973> 324 59<181 245 181 265.5> 657 56<210 243 328 511 328 328>
VStem: 46 75<491 542 491 571> 297 77<495 544.5> 424 75<162 213 162 242.5> 674 77<166 214.5> 774 75<162 214 162 242.5> 1025 77<164.5 214.5>
LayerCount: 2
Fore
SplineSet
92 383 m 128,-1,1
 46 442 46 442 46 522 c 128,-1,2
 46 602 46 602 88.5 657.5 c 128,-1,3
 131 713 131 713 210 713 c 2,4,-1
 602 713 l 1,5,-1
 247 -13 l 1,6,-1
 183 -13 l 1,7,-1
 511 657 l 1,8,-1
 328 657 l 1,9,10
 374 599 374 599 374 522.5 c 128,-1,11
 374 446 374 446 330 385 c 128,-1,12
 286 324 286 324 212 324 c 128,-1,0
 138 324 138 324 92 383 c 128,-1,1
121 517 m 128,-1,14
 121 470 121 470 145 426.5 c 128,-1,15
 169 383 169 383 213 383 c 0,16,17
 243 383 243 383 263 408 c 0,18,19
 297 450.5 297 450.5 297 509.25 c 128,-1,20
 297 568 297 568 275.5 612.5 c 128,-1,21
 254 657 254 657 211 657 c 128,-1,22
 168 657 168 657 144.5 610.5 c 128,-1,13
 121 564 121 564 121 517 c 128,-1,14
470 53.5 m 128,-1,24
 424 112 424 112 424 192.5 c 128,-1,25
 424 273 424 273 466.5 329 c 128,-1,26
 509 385 509 385 586 385 c 128,-1,27
 663 385 663 385 707 327 c 128,-1,28
 751 269 751 269 751 193 c 128,-1,29
 751 117 751 117 707.5 56 c 128,-1,30
 664 -5 664 -5 590 -5 c 128,-1,23
 516 -5 516 -5 470 53.5 c 128,-1,24
499 188 m 128,-1,32
 499 141 499 141 523 97.5 c 128,-1,33
 547 54 547 54 591 54 c 0,34,35
 621 54 621 54 640.5 79 c 128,-1,36
 660 104 660 104 667 133 c 128,-1,37
 674 162 674 162 674 190 c 128,-1,38
 674 218 674 218 666.5 247.5 c 128,-1,39
 659 277 659 277 639 302.5 c 128,-1,40
 619 328 619 328 589 328 c 0,41,42
 546 328 546 328 522.5 281.5 c 128,-1,31
 499 235 499 235 499 188 c 128,-1,32
820 54 m 128,-1,44
 774 113 774 113 774 193 c 128,-1,45
 774 273 774 273 816.5 329 c 128,-1,46
 859 385 859 385 936.5 385 c 128,-1,47
 1014 385 1014 385 1058 327 c 128,-1,48
 1102 269 1102 269 1102 192.5 c 128,-1,49
 1102 116 1102 116 1059 55.5 c 128,-1,50
 1016 -5 1016 -5 941 -5 c 128,-1,43
 866 -5 866 -5 820 54 c 128,-1,44
873 282 m 128,-1,52
 849 236 849 236 849 188.5 c 128,-1,53
 849 141 849 141 873 97.5 c 128,-1,54
 897 54 897 54 940.5 54 c 128,-1,55
 984 54 984 54 1004.5 97.5 c 128,-1,56
 1025 141 1025 141 1025 179.5 c 128,-1,57
 1025 218 1025 218 1017.5 247.5 c 128,-1,58
 1010 277 1010 277 990 302.5 c 128,-1,59
 970 328 970 328 940 328 c 0,60,51
 897 328 897 328 873 282 c 128,-1,52
EndSplineSet
EndChar

StartChar: guilsinglleft
Encoding: 8249 8249 226
Width: 298
GlyphClass: 2
Flags: HMW
HStem: 171 21G<194 194> 477 20G<190 190>
LayerCount: 2
Fore
SplineSet
194 171 m 1,0,-1
 45 333 l 1,1,-1
 190 497 l 1,2,-1
 251 485 l 1,3,-1
 135 333 l 1,4,-1
 253 179 l 1,5,-1
 194 171 l 1,0,-1
EndSplineSet
EndChar

StartChar: guilsinglright
Encoding: 8250 8250 227
Width: 329
GlyphClass: 2
Flags: HMW
HStem: 169 21G<120 120> 475 20G<124 124>
LayerCount: 2
Fore
SplineSet
120 169 m 1,0,-1
 60 177 l 1,1,-1
 179 331 l 1,2,-1
 63 483 l 1,3,-1
 124 495 l 1,4,-1
 268 331 l 1,5,-1
 120 169 l 1,0,-1
EndSplineSet
EndChar

StartChar: fraction
Encoding: 8260 8260 228
Width: 132
GlyphClass: 2
Flags: HMW
HStem: -7 21G<-153 -89 -153 -153> 710 20G<220 286 286 286>
LayerCount: 2
Fore
SplineSet
-89 -7 m 1,0,-1
 -153 -7 l 1,1,-1
 220 730 l 1,2,-1
 286 730 l 1,3,-1
 -89 -7 l 1,0,-1
EndSplineSet
EndChar

StartChar: Euro
Encoding: 8364 8364 229
Width: 524
GlyphClass: 2
Flags: HMW
HStem: -10 64<314 376.5 314 377.5> 177 42<22 101 22 108 13 101 197 197 197 390> 286 42<46 100 37 106 195 414> 456 62<308 371.5>
LayerCount: 2
Fore
SplineSet
108 177 m 1,0,-1
 13 177 l 1,1,-1
 22 219 l 1,2,-1
 101 219 l 1,3,4
 99 231 99 231 99 237 c 2,5,-1
 99 270 l 2,6,7
 99 281 99 281 100 286 c 1,8,-1
 37 286 l 1,9,-1
 46 328 l 1,10,-1
 106 328 l 1,11,12
 126 414 126 414 191 466 c 128,-1,13
 256 518 256 518 356 518 c 0,14,15
 408 518 408 518 462 501 c 1,16,-1
 447 436 l 1,17,18
 411 456 411 456 356 456 c 0,19,20
 227 456 227 456 195 328 c 1,21,-1
 423 328 l 1,22,-1
 414 286 l 1,23,-1
 187 286 l 1,24,25
 186 282 186 282 186 274 c 2,26,-1
 186 254 l 2,27,28
 186 241 186 241 188 219 c 1,29,-1
 399 219 l 1,30,-1
 390 177 l 1,31,-1
 197 177 l 1,32,33
 213 121 213 121 254 87.5 c 128,-1,34
 295 54 295 54 352.5 54 c 128,-1,35
 410 54 410 54 448 73 c 1,36,-1
 470 10 l 1,37,38
 415 -10 415 -10 358 -10 c 0,39,40
 257 -10 257 -10 193 41 c 128,-1,41
 129 92 129 92 108 177 c 1,0,-1
EndSplineSet
EndChar

StartChar: trademark
Encoding: 8482 8482 230
Width: 568
GlyphClass: 2
Flags: HMW
HStem: 493 21G<264 306 264 264 366 366 366 396 455 455 455 504> 494 224<120 170 120 120> 681 37<49 120 49 242 170 170 170 242>
VStem: 120 50<494 681 494 681> 264 42<493 648> 455 49<493 644 644 644>
LayerCount: 2
Fore
SplineSet
120 681 m 1,0,-1
 49 681 l 1,1,-1
 49 718 l 1,2,-1
 242 718 l 1,3,-1
 242 681 l 1,4,-1
 170 681 l 1,5,-1
 170 494 l 1,6,-1
 120 494 l 1,7,-1
 120 681 l 1,0,-1
306 493 m 1,8,-1
 264 493 l 1,9,-1
 264 718 l 1,10,-1
 330 718 l 1,11,-1
 385 573 l 1,12,-1
 440 718 l 1,13,-1
 504 718 l 1,14,-1
 504 493 l 1,15,-1
 455 493 l 1,16,-1
 455 644 l 1,17,-1
 396 493 l 1,18,-1
 366 493 l 1,19,-1
 306 648 l 1,20,-1
 306 493 l 1,8,-1
EndSplineSet
EndChar

StartChar: uni2126
Encoding: 8486 8486 231
Width: 782
GlyphClass: 2
Flags: HMW
HStem: 0 69<56 129 56 314 56 129 653 725> 665 69<307 475>
VStem: 68 98<300.5 421 287.5 463> 616 98<301 421>
LayerCount: 2
Fore
SplineSet
314 0 m 1,0,-1
 56 0 l 1,1,-1
 56 69 l 1,2,-1
 129 69 l 1,3,-1
 196 64 l 1,4,5
 136 108 136 108 102 188.5 c 128,-1,6
 68 269 68 269 68 361 c 0,7,8
 68 522 68 522 153 628 c 128,-1,9
 238 734 238 734 391 734 c 128,-1,10
 544 734 544 734 629 628 c 128,-1,11
 714 522 714 522 714 361 c 0,12,13
 714 270 714 270 679.5 188.5 c 128,-1,14
 645 107 645 107 586 64 c 1,15,-1
 653 69 l 1,16,-1
 725 69 l 1,17,-1
 725 0 l 1,18,-1
 467 0 l 1,19,-1
 467 53 l 1,20,21
 543 83 543 83 579.5 165 c 128,-1,22
 616 247 616 247 616 348 c 0,23,24
 616 467.4 616 467.4 567 560.5 c 0,25,26
 542 608 542 608 496.5 636.5 c 128,-1,27
 451 665 451 665 391 665 c 128,-1,28
 331 665 331 665 285.5 636.5 c 128,-1,29
 240 608 240 608 215 560.5 c 0,30,31
 166 467.4 166 467.4 166 348 c 0,32,33
 166 209.362318841 166 209.362318841 228.5 121.5 c 0,34,35
 263 73 263 73 314 53 c 1,36,-1
 314 0 l 1,0,-1
EndSplineSet
EndChar

StartChar: partialdiff
Encoding: 8706 8706 232
Width: 555
GlyphClass: 2
Flags: HMW
HStem: -10 67<207 289 207 291.5> 340 70<227.5 286.5 213.5 293.5> 661 73<193.5 247.5>
VStem: 47 92<157.5 224 157.5 272> 384 103
LayerCount: 2
Fore
SplineSet
327.5 593 m 128,-1,1
 275 661 275 661 210.944444444 661 c 128,-1,2
 146.888888889 661 146.888888889 661 105 632 c 1,3,-1
 98 642 l 1,4,-1
 89 658 l 1,5,-1
 72 683 l 1,6,7
 89 699 89 699 108 708 c 1,8,9
 156 734 156 734 219 734 c 0,10,11
 337 734 337 734 412 628 c 128,-1,12
 487 522 487 522 487 333 c 0,13,14
 487 235 487 235 463 164 c 128,-1,15
 439 93 439 93 400 57 c 0,16,17
 327.416666667 -10 327.416666667 -10 245 -10 c 0,18,19
 189.482758621 -10 189.482758621 -10 152.24137931 10 c 128,-1,20
 115 30 115 30 94.5 52 c 0,21,22
 47 102.975609756 47 102.975609756 47 195 c 0,23,24
 47 250 47 250 68 293 c 128,-1,25
 89 336 89 336 121 360.5 c 0,26,27
 185.653061224 410 185.653061224 410 252 410 c 0,28,29
 337 410 337 410 388 355 c 1,30,31
 385 391 385 391 384 396 c 0,32,0
 380 525 380 525 327.5 593 c 128,-1,1
175 293 m 128,-1,34
 139 246 139 246 139 191 c 128,-1,35
 139 136 139 136 165.5 96.5 c 128,-1,36
 192 57 192 57 249.5 57 c 128,-1,37
 307 57 307 57 343.5 124 c 128,-1,38
 380 191 380 191 386 290 c 1,39,40
 336 340 336 340 266 340 c 0,41,33
 211 340 211 340 175 293 c 128,-1,34
EndSplineSet
EndChar

